%TF.GenerationSoftware,KiCad,Pcbnew,8.0.5*%
%TF.CreationDate,2024-10-08T15:48:39-07:00*%
%TF.ProjectId,qimera_pcb,71696d65-7261-45f7-9063-622e6b696361,v1.0.0*%
%TF.SameCoordinates,Original*%
%TF.FileFunction,Soldermask,Bot*%
%TF.FilePolarity,Negative*%
%FSLAX46Y46*%
G04 Gerber Fmt 4.6, Leading zero omitted, Abs format (unit mm)*
G04 Created by KiCad (PCBNEW 8.0.5) date 2024-10-08 15:48:39*
%MOMM*%
%LPD*%
G01*
G04 APERTURE LIST*
%ADD10C,0.350000*%
%ADD11C,0.200000*%
%ADD12C,0.150000*%
%ADD13C,0.250000*%
%ADD14C,0.300000*%
%ADD15C,0.500000*%
%ADD16C,0.400000*%
%ADD17C,0.450000*%
%ADD18C,0.050000*%
%ADD19C,1.701800*%
%ADD20C,3.000000*%
%ADD21C,3.429000*%
%ADD22R,2.600000X2.600000*%
%ADD23R,0.900000X0.900000*%
%ADD24C,1.000000*%
%ADD25R,0.900000X1.250000*%
%ADD26C,0.750000*%
%ADD27R,1.000000X1.550000*%
%ADD28R,1.200000X0.900000*%
%ADD29C,3.500000*%
%ADD30C,1.752600*%
%ADD31R,1.700000X1.200000*%
%ADD32O,1.700000X1.200000*%
G04 APERTURE END LIST*
D10*
X196225000Y-109100000D02*
G75*
G02*
X195875000Y-109100000I-175000J0D01*
G01*
X195875000Y-109100000D02*
G75*
G02*
X196225000Y-109100000I175000J0D01*
G01*
D11*
X241150000Y-153300000D02*
G75*
G02*
X240950000Y-153300000I-100000J0D01*
G01*
X240950000Y-153300000D02*
G75*
G02*
X241150000Y-153300000I100000J0D01*
G01*
D12*
X120125000Y-161300000D02*
G75*
G02*
X119975000Y-161300000I-75000J0D01*
G01*
X119975000Y-161300000D02*
G75*
G02*
X120125000Y-161300000I75000J0D01*
G01*
X242125000Y-179300000D02*
G75*
G02*
X241975000Y-179300000I-75000J0D01*
G01*
X241975000Y-179300000D02*
G75*
G02*
X242125000Y-179300000I75000J0D01*
G01*
D13*
X241175000Y-143300000D02*
G75*
G02*
X240925000Y-143300000I-125000J0D01*
G01*
X240925000Y-143300000D02*
G75*
G02*
X241175000Y-143300000I125000J0D01*
G01*
D11*
X157150000Y-145300000D02*
G75*
G02*
X156950000Y-145300000I-100000J0D01*
G01*
X156950000Y-145300000D02*
G75*
G02*
X157150000Y-145300000I100000J0D01*
G01*
D14*
X137200000Y-124300000D02*
G75*
G02*
X136900000Y-124300000I-150000J0D01*
G01*
X136900000Y-124300000D02*
G75*
G02*
X137200000Y-124300000I150000J0D01*
G01*
D12*
X220125000Y-179300000D02*
G75*
G02*
X219975000Y-179300000I-75000J0D01*
G01*
X219975000Y-179300000D02*
G75*
G02*
X220125000Y-179300000I75000J0D01*
G01*
D11*
X221150000Y-155300000D02*
G75*
G02*
X220950000Y-155300000I-100000J0D01*
G01*
X220950000Y-155300000D02*
G75*
G02*
X221150000Y-155300000I100000J0D01*
G01*
D15*
X206250000Y-91700000D02*
G75*
G02*
X205750000Y-91700000I-250000J0D01*
G01*
X205750000Y-91700000D02*
G75*
G02*
X206250000Y-91700000I250000J0D01*
G01*
D11*
X128150000Y-157300000D02*
G75*
G02*
X127950000Y-157300000I-100000J0D01*
G01*
X127950000Y-157300000D02*
G75*
G02*
X128150000Y-157300000I100000J0D01*
G01*
D12*
X234125000Y-167300000D02*
G75*
G02*
X233975000Y-167300000I-75000J0D01*
G01*
X233975000Y-167300000D02*
G75*
G02*
X234125000Y-167300000I75000J0D01*
G01*
D11*
X158150000Y-149300000D02*
G75*
G02*
X157950000Y-149300000I-100000J0D01*
G01*
X157950000Y-149300000D02*
G75*
G02*
X158150000Y-149300000I100000J0D01*
G01*
D13*
X235175000Y-139300000D02*
G75*
G02*
X234925000Y-139300000I-125000J0D01*
G01*
X234925000Y-139300000D02*
G75*
G02*
X235175000Y-139300000I125000J0D01*
G01*
D16*
X185250000Y-106700000D02*
G75*
G02*
X184850000Y-106700000I-200000J0D01*
G01*
X184850000Y-106700000D02*
G75*
G02*
X185250000Y-106700000I200000J0D01*
G01*
D13*
X241175000Y-139300000D02*
G75*
G02*
X240925000Y-139300000I-125000J0D01*
G01*
X240925000Y-139300000D02*
G75*
G02*
X241175000Y-139300000I125000J0D01*
G01*
D14*
X156200000Y-128500000D02*
G75*
G02*
X155900000Y-128500000I-150000J0D01*
G01*
X155900000Y-128500000D02*
G75*
G02*
X156200000Y-128500000I150000J0D01*
G01*
D17*
X220225000Y-101900000D02*
G75*
G02*
X219775000Y-101900000I-225000J0D01*
G01*
X219775000Y-101900000D02*
G75*
G02*
X220225000Y-101900000I225000J0D01*
G01*
D13*
X195175000Y-131600000D02*
G75*
G02*
X194925000Y-131600000I-125000J0D01*
G01*
X194925000Y-131600000D02*
G75*
G02*
X195175000Y-131600000I125000J0D01*
G01*
D11*
X234150000Y-145300000D02*
G75*
G02*
X233950000Y-145300000I-100000J0D01*
G01*
X233950000Y-145300000D02*
G75*
G02*
X234150000Y-145300000I100000J0D01*
G01*
D12*
X235125000Y-159300000D02*
G75*
G02*
X234975000Y-159300000I-75000J0D01*
G01*
X234975000Y-159300000D02*
G75*
G02*
X235125000Y-159300000I75000J0D01*
G01*
D11*
X176150000Y-145300000D02*
G75*
G02*
X175950000Y-145300000I-100000J0D01*
G01*
X175950000Y-145300000D02*
G75*
G02*
X176150000Y-145300000I100000J0D01*
G01*
D13*
X196175000Y-143300000D02*
G75*
G02*
X195925000Y-143300000I-125000J0D01*
G01*
X195925000Y-143300000D02*
G75*
G02*
X196175000Y-143300000I125000J0D01*
G01*
D10*
X195225000Y-117300000D02*
G75*
G02*
X194875000Y-117300000I-175000J0D01*
G01*
X194875000Y-117300000D02*
G75*
G02*
X195225000Y-117300000I175000J0D01*
G01*
D11*
X236150000Y-149300000D02*
G75*
G02*
X235950000Y-149300000I-100000J0D01*
G01*
X235950000Y-149300000D02*
G75*
G02*
X236150000Y-149300000I100000J0D01*
G01*
D13*
X176175000Y-139300000D02*
G75*
G02*
X175925000Y-139300000I-125000J0D01*
G01*
X175925000Y-139300000D02*
G75*
G02*
X176175000Y-139300000I125000J0D01*
G01*
X220175000Y-133300000D02*
G75*
G02*
X219925000Y-133300000I-125000J0D01*
G01*
X219925000Y-133300000D02*
G75*
G02*
X220175000Y-133300000I125000J0D01*
G01*
D14*
X128200000Y-122900000D02*
G75*
G02*
X127900000Y-122900000I-150000J0D01*
G01*
X127900000Y-122900000D02*
G75*
G02*
X128200000Y-122900000I150000J0D01*
G01*
X136200000Y-129900000D02*
G75*
G02*
X135900000Y-129900000I-150000J0D01*
G01*
X135900000Y-129900000D02*
G75*
G02*
X136200000Y-129900000I150000J0D01*
G01*
D11*
X235150000Y-151300000D02*
G75*
G02*
X234950000Y-151300000I-100000J0D01*
G01*
X234950000Y-151300000D02*
G75*
G02*
X235150000Y-151300000I100000J0D01*
G01*
X119150000Y-151300000D02*
G75*
G02*
X118950000Y-151300000I-100000J0D01*
G01*
X118950000Y-151300000D02*
G75*
G02*
X119150000Y-151300000I100000J0D01*
G01*
D10*
X165225000Y-114500000D02*
G75*
G02*
X164875000Y-114500000I-175000J0D01*
G01*
X164875000Y-114500000D02*
G75*
G02*
X165225000Y-114500000I175000J0D01*
G01*
D15*
X177250000Y-82700000D02*
G75*
G02*
X176750000Y-82700000I-250000J0D01*
G01*
X176750000Y-82700000D02*
G75*
G02*
X177250000Y-82700000I250000J0D01*
G01*
D13*
X119175000Y-133300000D02*
G75*
G02*
X118925000Y-133300000I-125000J0D01*
G01*
X118925000Y-133300000D02*
G75*
G02*
X119175000Y-133300000I125000J0D01*
G01*
D17*
X176225000Y-103100000D02*
G75*
G02*
X175775000Y-103100000I-225000J0D01*
G01*
X175775000Y-103100000D02*
G75*
G02*
X176225000Y-103100000I225000J0D01*
G01*
D16*
X138250000Y-106700000D02*
G75*
G02*
X137850000Y-106700000I-200000J0D01*
G01*
X137850000Y-106700000D02*
G75*
G02*
X138250000Y-106700000I200000J0D01*
G01*
D15*
X195250000Y-94700000D02*
G75*
G02*
X194750000Y-94700000I-250000J0D01*
G01*
X194750000Y-94700000D02*
G75*
G02*
X195250000Y-94700000I250000J0D01*
G01*
D11*
X218150000Y-147300000D02*
G75*
G02*
X217950000Y-147300000I-100000J0D01*
G01*
X217950000Y-147300000D02*
G75*
G02*
X218150000Y-147300000I100000J0D01*
G01*
D15*
X196250000Y-82700000D02*
G75*
G02*
X195750000Y-82700000I-250000J0D01*
G01*
X195750000Y-82700000D02*
G75*
G02*
X196250000Y-82700000I250000J0D01*
G01*
X186250000Y-87700000D02*
G75*
G02*
X185750000Y-87700000I-250000J0D01*
G01*
X185750000Y-87700000D02*
G75*
G02*
X186250000Y-87700000I250000J0D01*
G01*
D12*
X236125000Y-165300000D02*
G75*
G02*
X235975000Y-165300000I-75000J0D01*
G01*
X235975000Y-165300000D02*
G75*
G02*
X236125000Y-165300000I75000J0D01*
G01*
D15*
X156250000Y-100700000D02*
G75*
G02*
X155750000Y-100700000I-250000J0D01*
G01*
X155750000Y-100700000D02*
G75*
G02*
X156250000Y-100700000I250000J0D01*
G01*
D13*
X235175000Y-143300000D02*
G75*
G02*
X234925000Y-143300000I-125000J0D01*
G01*
X234925000Y-143300000D02*
G75*
G02*
X235175000Y-143300000I125000J0D01*
G01*
D14*
X128200000Y-128500000D02*
G75*
G02*
X127900000Y-128500000I-150000J0D01*
G01*
X127900000Y-128500000D02*
G75*
G02*
X128200000Y-128500000I150000J0D01*
G01*
D13*
X119175000Y-135300000D02*
G75*
G02*
X118925000Y-135300000I-125000J0D01*
G01*
X118925000Y-135300000D02*
G75*
G02*
X119175000Y-135300000I125000J0D01*
G01*
D12*
X235125000Y-169300000D02*
G75*
G02*
X234975000Y-169300000I-75000J0D01*
G01*
X234975000Y-169300000D02*
G75*
G02*
X235125000Y-169300000I75000J0D01*
G01*
X219125000Y-183300000D02*
G75*
G02*
X218975000Y-183300000I-75000J0D01*
G01*
X218975000Y-183300000D02*
G75*
G02*
X219125000Y-183300000I75000J0D01*
G01*
D15*
X149250000Y-98700000D02*
G75*
G02*
X148750000Y-98700000I-250000J0D01*
G01*
X148750000Y-98700000D02*
G75*
G02*
X149250000Y-98700000I250000J0D01*
G01*
D13*
X136175000Y-139300000D02*
G75*
G02*
X135925000Y-139300000I-125000J0D01*
G01*
X135925000Y-139300000D02*
G75*
G02*
X136175000Y-139300000I125000J0D01*
G01*
D15*
X196250000Y-98700000D02*
G75*
G02*
X195750000Y-98700000I-250000J0D01*
G01*
X195750000Y-98700000D02*
G75*
G02*
X196250000Y-98700000I250000J0D01*
G01*
D10*
X119225000Y-117300000D02*
G75*
G02*
X118875000Y-117300000I-175000J0D01*
G01*
X118875000Y-117300000D02*
G75*
G02*
X119225000Y-117300000I175000J0D01*
G01*
D15*
X204250000Y-92700000D02*
G75*
G02*
X203750000Y-92700000I-250000J0D01*
G01*
X203750000Y-92700000D02*
G75*
G02*
X204250000Y-92700000I250000J0D01*
G01*
X219250000Y-100700000D02*
G75*
G02*
X218750000Y-100700000I-250000J0D01*
G01*
X218750000Y-100700000D02*
G75*
G02*
X219250000Y-100700000I250000J0D01*
G01*
D13*
X120175000Y-143300000D02*
G75*
G02*
X119925000Y-143300000I-125000J0D01*
G01*
X119925000Y-143300000D02*
G75*
G02*
X120175000Y-143300000I125000J0D01*
G01*
D15*
X176250000Y-84700000D02*
G75*
G02*
X175750000Y-84700000I-250000J0D01*
G01*
X175750000Y-84700000D02*
G75*
G02*
X176250000Y-84700000I250000J0D01*
G01*
D17*
X220225000Y-103100000D02*
G75*
G02*
X219775000Y-103100000I-225000J0D01*
G01*
X219775000Y-103100000D02*
G75*
G02*
X220225000Y-103100000I225000J0D01*
G01*
D13*
X241175000Y-137300000D02*
G75*
G02*
X240925000Y-137300000I-125000J0D01*
G01*
X240925000Y-137300000D02*
G75*
G02*
X241175000Y-137300000I125000J0D01*
G01*
D12*
X235125000Y-171300000D02*
G75*
G02*
X234975000Y-171300000I-75000J0D01*
G01*
X234975000Y-171300000D02*
G75*
G02*
X235125000Y-171300000I75000J0D01*
G01*
D10*
X150225000Y-111700000D02*
G75*
G02*
X149875000Y-111700000I-175000J0D01*
G01*
X149875000Y-111700000D02*
G75*
G02*
X150225000Y-111700000I175000J0D01*
G01*
D13*
X157275000Y-135500000D02*
G75*
G02*
X157025000Y-135500000I-125000J0D01*
G01*
X157025000Y-135500000D02*
G75*
G02*
X157275000Y-135500000I125000J0D01*
G01*
X120175000Y-135300000D02*
G75*
G02*
X119925000Y-135300000I-125000J0D01*
G01*
X119925000Y-135300000D02*
G75*
G02*
X120175000Y-135300000I125000J0D01*
G01*
D15*
X196250000Y-86700000D02*
G75*
G02*
X195750000Y-86700000I-250000J0D01*
G01*
X195750000Y-86700000D02*
G75*
G02*
X196250000Y-86700000I250000J0D01*
G01*
X177250000Y-98700000D02*
G75*
G02*
X176750000Y-98700000I-250000J0D01*
G01*
X176750000Y-98700000D02*
G75*
G02*
X177250000Y-98700000I250000J0D01*
G01*
D12*
X241125000Y-173300000D02*
G75*
G02*
X240975000Y-173300000I-75000J0D01*
G01*
X240975000Y-173300000D02*
G75*
G02*
X241125000Y-173300000I75000J0D01*
G01*
D13*
X234175000Y-135300000D02*
G75*
G02*
X233925000Y-135300000I-125000J0D01*
G01*
X233925000Y-135300000D02*
G75*
G02*
X234175000Y-135300000I125000J0D01*
G01*
X138175000Y-135300000D02*
G75*
G02*
X137925000Y-135300000I-125000J0D01*
G01*
X137925000Y-135300000D02*
G75*
G02*
X138175000Y-135300000I125000J0D01*
G01*
D12*
X196125000Y-167300000D02*
G75*
G02*
X195975000Y-167300000I-75000J0D01*
G01*
X195975000Y-167300000D02*
G75*
G02*
X196125000Y-167300000I75000J0D01*
G01*
D16*
X187250000Y-106700000D02*
G75*
G02*
X186850000Y-106700000I-200000J0D01*
G01*
X186850000Y-106700000D02*
G75*
G02*
X187250000Y-106700000I200000J0D01*
G01*
D12*
X196125000Y-165300000D02*
G75*
G02*
X195975000Y-165300000I-75000J0D01*
G01*
X195975000Y-165300000D02*
G75*
G02*
X196125000Y-165300000I75000J0D01*
G01*
X220125000Y-169300000D02*
G75*
G02*
X219975000Y-169300000I-75000J0D01*
G01*
X219975000Y-169300000D02*
G75*
G02*
X220125000Y-169300000I75000J0D01*
G01*
D14*
X127200000Y-122900000D02*
G75*
G02*
X126900000Y-122900000I-150000J0D01*
G01*
X126900000Y-122900000D02*
G75*
G02*
X127200000Y-122900000I150000J0D01*
G01*
D12*
X195125000Y-165300000D02*
G75*
G02*
X194975000Y-165300000I-75000J0D01*
G01*
X194975000Y-165300000D02*
G75*
G02*
X195125000Y-165300000I75000J0D01*
G01*
D13*
X156175000Y-133300000D02*
G75*
G02*
X155925000Y-133300000I-125000J0D01*
G01*
X155925000Y-133300000D02*
G75*
G02*
X156175000Y-133300000I125000J0D01*
G01*
D15*
X150250000Y-100700000D02*
G75*
G02*
X149750000Y-100700000I-250000J0D01*
G01*
X149750000Y-100700000D02*
G75*
G02*
X150250000Y-100700000I250000J0D01*
G01*
D12*
X234125000Y-171300000D02*
G75*
G02*
X233975000Y-171300000I-75000J0D01*
G01*
X233975000Y-171300000D02*
G75*
G02*
X234125000Y-171300000I75000J0D01*
G01*
D15*
X167250000Y-97700000D02*
G75*
G02*
X166750000Y-97700000I-250000J0D01*
G01*
X166750000Y-97700000D02*
G75*
G02*
X167250000Y-97700000I250000J0D01*
G01*
D11*
X243150000Y-151300000D02*
G75*
G02*
X242950000Y-151300000I-100000J0D01*
G01*
X242950000Y-151300000D02*
G75*
G02*
X243150000Y-151300000I100000J0D01*
G01*
D15*
X205250000Y-93700000D02*
G75*
G02*
X204750000Y-93700000I-250000J0D01*
G01*
X204750000Y-93700000D02*
G75*
G02*
X205250000Y-93700000I250000J0D01*
G01*
D12*
X234125000Y-169300000D02*
G75*
G02*
X233975000Y-169300000I-75000J0D01*
G01*
X233975000Y-169300000D02*
G75*
G02*
X234125000Y-169300000I75000J0D01*
G01*
D17*
X176225000Y-101900000D02*
G75*
G02*
X175775000Y-101900000I-225000J0D01*
G01*
X175775000Y-101900000D02*
G75*
G02*
X176225000Y-101900000I225000J0D01*
G01*
D11*
X235150000Y-157300000D02*
G75*
G02*
X234950000Y-157300000I-100000J0D01*
G01*
X234950000Y-157300000D02*
G75*
G02*
X235150000Y-157300000I100000J0D01*
G01*
D15*
X195250000Y-96700000D02*
G75*
G02*
X194750000Y-96700000I-250000J0D01*
G01*
X194750000Y-96700000D02*
G75*
G02*
X195250000Y-96700000I250000J0D01*
G01*
D12*
X119125000Y-169300000D02*
G75*
G02*
X118975000Y-169300000I-75000J0D01*
G01*
X118975000Y-169300000D02*
G75*
G02*
X119125000Y-169300000I75000J0D01*
G01*
D14*
X195200000Y-125700000D02*
G75*
G02*
X194900000Y-125700000I-150000J0D01*
G01*
X194900000Y-125700000D02*
G75*
G02*
X195200000Y-125700000I150000J0D01*
G01*
D15*
X196250000Y-89700000D02*
G75*
G02*
X195750000Y-89700000I-250000J0D01*
G01*
X195750000Y-89700000D02*
G75*
G02*
X196250000Y-89700000I250000J0D01*
G01*
D14*
X120200000Y-125700000D02*
G75*
G02*
X119900000Y-125700000I-150000J0D01*
G01*
X119900000Y-125700000D02*
G75*
G02*
X120200000Y-125700000I150000J0D01*
G01*
D11*
X206150000Y-147300000D02*
G75*
G02*
X205950000Y-147300000I-100000J0D01*
G01*
X205950000Y-147300000D02*
G75*
G02*
X206150000Y-147300000I100000J0D01*
G01*
D15*
X176250000Y-99700000D02*
G75*
G02*
X175750000Y-99700000I-250000J0D01*
G01*
X175750000Y-99700000D02*
G75*
G02*
X176250000Y-99700000I250000J0D01*
G01*
X203250000Y-92700000D02*
G75*
G02*
X202750000Y-92700000I-250000J0D01*
G01*
X202750000Y-92700000D02*
G75*
G02*
X203250000Y-92700000I250000J0D01*
G01*
D10*
X206225000Y-110300000D02*
G75*
G02*
X205875000Y-110300000I-175000J0D01*
G01*
X205875000Y-110300000D02*
G75*
G02*
X206225000Y-110300000I175000J0D01*
G01*
D11*
X203150000Y-145300000D02*
G75*
G02*
X202950000Y-145300000I-100000J0D01*
G01*
X202950000Y-145300000D02*
G75*
G02*
X203150000Y-145300000I100000J0D01*
G01*
D14*
X156200000Y-121500000D02*
G75*
G02*
X155900000Y-121500000I-150000J0D01*
G01*
X155900000Y-121500000D02*
G75*
G02*
X156200000Y-121500000I150000J0D01*
G01*
D15*
X175250000Y-97700000D02*
G75*
G02*
X174750000Y-97700000I-250000J0D01*
G01*
X174750000Y-97700000D02*
G75*
G02*
X175250000Y-97700000I250000J0D01*
G01*
D12*
X235125000Y-167300000D02*
G75*
G02*
X234975000Y-167300000I-75000J0D01*
G01*
X234975000Y-167300000D02*
G75*
G02*
X235125000Y-167300000I75000J0D01*
G01*
D15*
X149250000Y-99700000D02*
G75*
G02*
X148750000Y-99700000I-250000J0D01*
G01*
X148750000Y-99700000D02*
G75*
G02*
X149250000Y-99700000I250000J0D01*
G01*
D11*
X219150000Y-147300000D02*
G75*
G02*
X218950000Y-147300000I-100000J0D01*
G01*
X218950000Y-147300000D02*
G75*
G02*
X219150000Y-147300000I100000J0D01*
G01*
D15*
X175250000Y-83700000D02*
G75*
G02*
X174750000Y-83700000I-250000J0D01*
G01*
X174750000Y-83700000D02*
G75*
G02*
X175250000Y-83700000I250000J0D01*
G01*
X176250000Y-98700000D02*
G75*
G02*
X175750000Y-98700000I-250000J0D01*
G01*
X175750000Y-98700000D02*
G75*
G02*
X176250000Y-98700000I250000J0D01*
G01*
D13*
X138175000Y-133300000D02*
G75*
G02*
X137925000Y-133300000I-125000J0D01*
G01*
X137925000Y-133300000D02*
G75*
G02*
X138175000Y-133300000I125000J0D01*
G01*
D15*
X175250000Y-85700000D02*
G75*
G02*
X174750000Y-85700000I-250000J0D01*
G01*
X174750000Y-85700000D02*
G75*
G02*
X175250000Y-85700000I250000J0D01*
G01*
D11*
X195150000Y-151300000D02*
G75*
G02*
X194950000Y-151300000I-100000J0D01*
G01*
X194950000Y-151300000D02*
G75*
G02*
X195150000Y-151300000I100000J0D01*
G01*
D15*
X120250000Y-98700000D02*
G75*
G02*
X119750000Y-98700000I-250000J0D01*
G01*
X119750000Y-98700000D02*
G75*
G02*
X120250000Y-98700000I250000J0D01*
G01*
D10*
X127225000Y-113100000D02*
G75*
G02*
X126875000Y-113100000I-175000J0D01*
G01*
X126875000Y-113100000D02*
G75*
G02*
X127225000Y-113100000I175000J0D01*
G01*
D17*
X220225000Y-104300000D02*
G75*
G02*
X219775000Y-104300000I-225000J0D01*
G01*
X219775000Y-104300000D02*
G75*
G02*
X220225000Y-104300000I225000J0D01*
G01*
D11*
X241150000Y-155300000D02*
G75*
G02*
X240950000Y-155300000I-100000J0D01*
G01*
X240950000Y-155300000D02*
G75*
G02*
X241150000Y-155300000I100000J0D01*
G01*
D13*
X128175000Y-139300000D02*
G75*
G02*
X127925000Y-139300000I-125000J0D01*
G01*
X127925000Y-139300000D02*
G75*
G02*
X128175000Y-139300000I125000J0D01*
G01*
D15*
X196250000Y-85700000D02*
G75*
G02*
X195750000Y-85700000I-250000J0D01*
G01*
X195750000Y-85700000D02*
G75*
G02*
X196250000Y-85700000I250000J0D01*
G01*
D10*
X156225000Y-115900000D02*
G75*
G02*
X155875000Y-115900000I-175000J0D01*
G01*
X155875000Y-115900000D02*
G75*
G02*
X156225000Y-115900000I175000J0D01*
G01*
D14*
X186200000Y-129900000D02*
G75*
G02*
X185900000Y-129900000I-150000J0D01*
G01*
X185900000Y-129900000D02*
G75*
G02*
X186200000Y-129900000I150000J0D01*
G01*
D15*
X203250000Y-90700000D02*
G75*
G02*
X202750000Y-90700000I-250000J0D01*
G01*
X202750000Y-90700000D02*
G75*
G02*
X203250000Y-90700000I250000J0D01*
G01*
D10*
X157225000Y-110300000D02*
G75*
G02*
X156875000Y-110300000I-175000J0D01*
G01*
X156875000Y-110300000D02*
G75*
G02*
X157225000Y-110300000I175000J0D01*
G01*
D14*
X177200000Y-122900000D02*
G75*
G02*
X176900000Y-122900000I-150000J0D01*
G01*
X176900000Y-122900000D02*
G75*
G02*
X177200000Y-122900000I150000J0D01*
G01*
D11*
X235150000Y-155300000D02*
G75*
G02*
X234950000Y-155300000I-100000J0D01*
G01*
X234950000Y-155300000D02*
G75*
G02*
X235150000Y-155300000I100000J0D01*
G01*
D14*
X138200000Y-121500000D02*
G75*
G02*
X137900000Y-121500000I-150000J0D01*
G01*
X137900000Y-121500000D02*
G75*
G02*
X138200000Y-121500000I150000J0D01*
G01*
D15*
X148250000Y-98700000D02*
G75*
G02*
X147750000Y-98700000I-250000J0D01*
G01*
X147750000Y-98700000D02*
G75*
G02*
X148250000Y-98700000I250000J0D01*
G01*
X119250000Y-100700000D02*
G75*
G02*
X118750000Y-100700000I-250000J0D01*
G01*
X118750000Y-100700000D02*
G75*
G02*
X119250000Y-100700000I250000J0D01*
G01*
D16*
X119250000Y-106700000D02*
G75*
G02*
X118850000Y-106700000I-200000J0D01*
G01*
X118850000Y-106700000D02*
G75*
G02*
X119250000Y-106700000I200000J0D01*
G01*
D14*
X119200000Y-122900000D02*
G75*
G02*
X118900000Y-122900000I-150000J0D01*
G01*
X118900000Y-122900000D02*
G75*
G02*
X119200000Y-122900000I150000J0D01*
G01*
D12*
X243125000Y-165300000D02*
G75*
G02*
X242975000Y-165300000I-75000J0D01*
G01*
X242975000Y-165300000D02*
G75*
G02*
X243125000Y-165300000I75000J0D01*
G01*
D15*
X195250000Y-95700000D02*
G75*
G02*
X194750000Y-95700000I-250000J0D01*
G01*
X194750000Y-95700000D02*
G75*
G02*
X195250000Y-95700000I250000J0D01*
G01*
X139250000Y-100700000D02*
G75*
G02*
X138750000Y-100700000I-250000J0D01*
G01*
X138750000Y-100700000D02*
G75*
G02*
X139250000Y-100700000I250000J0D01*
G01*
D14*
X157200000Y-128500000D02*
G75*
G02*
X156900000Y-128500000I-150000J0D01*
G01*
X156900000Y-128500000D02*
G75*
G02*
X157200000Y-128500000I150000J0D01*
G01*
D12*
X221125000Y-171300000D02*
G75*
G02*
X220975000Y-171300000I-75000J0D01*
G01*
X220975000Y-171300000D02*
G75*
G02*
X221125000Y-171300000I75000J0D01*
G01*
D14*
X176200000Y-121500000D02*
G75*
G02*
X175900000Y-121500000I-150000J0D01*
G01*
X175900000Y-121500000D02*
G75*
G02*
X176200000Y-121500000I150000J0D01*
G01*
D15*
X205250000Y-97700000D02*
G75*
G02*
X204750000Y-97700000I-250000J0D01*
G01*
X204750000Y-97700000D02*
G75*
G02*
X205250000Y-97700000I250000J0D01*
G01*
D10*
X166225000Y-113100000D02*
G75*
G02*
X165875000Y-113100000I-175000J0D01*
G01*
X165875000Y-113100000D02*
G75*
G02*
X166225000Y-113100000I175000J0D01*
G01*
D15*
X196250000Y-88700000D02*
G75*
G02*
X195750000Y-88700000I-250000J0D01*
G01*
X195750000Y-88700000D02*
G75*
G02*
X196250000Y-88700000I250000J0D01*
G01*
D14*
X157200000Y-118700000D02*
G75*
G02*
X156900000Y-118700000I-150000J0D01*
G01*
X156900000Y-118700000D02*
G75*
G02*
X157200000Y-118700000I150000J0D01*
G01*
D10*
X137225000Y-111700000D02*
G75*
G02*
X136875000Y-111700000I-175000J0D01*
G01*
X136875000Y-111700000D02*
G75*
G02*
X137225000Y-111700000I175000J0D01*
G01*
D14*
X176200000Y-122900000D02*
G75*
G02*
X175900000Y-122900000I-150000J0D01*
G01*
X175900000Y-122900000D02*
G75*
G02*
X176200000Y-122900000I150000J0D01*
G01*
D12*
X241125000Y-161300000D02*
G75*
G02*
X240975000Y-161300000I-75000J0D01*
G01*
X240975000Y-161300000D02*
G75*
G02*
X241125000Y-161300000I75000J0D01*
G01*
D15*
X157250000Y-92700000D02*
G75*
G02*
X156750000Y-92700000I-250000J0D01*
G01*
X156750000Y-92700000D02*
G75*
G02*
X157250000Y-92700000I250000J0D01*
G01*
X156250000Y-93700000D02*
G75*
G02*
X155750000Y-93700000I-250000J0D01*
G01*
X155750000Y-93700000D02*
G75*
G02*
X156250000Y-93700000I250000J0D01*
G01*
D16*
X220250000Y-106700000D02*
G75*
G02*
X219850000Y-106700000I-200000J0D01*
G01*
X219850000Y-106700000D02*
G75*
G02*
X220250000Y-106700000I200000J0D01*
G01*
D12*
X236125000Y-169300000D02*
G75*
G02*
X235975000Y-169300000I-75000J0D01*
G01*
X235975000Y-169300000D02*
G75*
G02*
X236125000Y-169300000I75000J0D01*
G01*
D16*
X150250000Y-106700000D02*
G75*
G02*
X149850000Y-106700000I-200000J0D01*
G01*
X149850000Y-106700000D02*
G75*
G02*
X150250000Y-106700000I200000J0D01*
G01*
D13*
X156175000Y-141300000D02*
G75*
G02*
X155925000Y-141300000I-125000J0D01*
G01*
X155925000Y-141300000D02*
G75*
G02*
X156175000Y-141300000I125000J0D01*
G01*
D10*
X120225000Y-115900000D02*
G75*
G02*
X119875000Y-115900000I-175000J0D01*
G01*
X119875000Y-115900000D02*
G75*
G02*
X120225000Y-115900000I175000J0D01*
G01*
D14*
X138200000Y-127100000D02*
G75*
G02*
X137900000Y-127100000I-150000J0D01*
G01*
X137900000Y-127100000D02*
G75*
G02*
X138200000Y-127100000I150000J0D01*
G01*
D13*
X195175000Y-143300000D02*
G75*
G02*
X194925000Y-143300000I-125000J0D01*
G01*
X194925000Y-143300000D02*
G75*
G02*
X195175000Y-143300000I125000J0D01*
G01*
D12*
X217125000Y-183300000D02*
G75*
G02*
X216975000Y-183300000I-75000J0D01*
G01*
X216975000Y-183300000D02*
G75*
G02*
X217125000Y-183300000I75000J0D01*
G01*
X242125000Y-181300000D02*
G75*
G02*
X241975000Y-181300000I-75000J0D01*
G01*
X241975000Y-181300000D02*
G75*
G02*
X242125000Y-181300000I75000J0D01*
G01*
D14*
X188200000Y-120100000D02*
G75*
G02*
X187900000Y-120100000I-150000J0D01*
G01*
X187900000Y-120100000D02*
G75*
G02*
X188200000Y-120100000I150000J0D01*
G01*
D15*
X157250000Y-94700000D02*
G75*
G02*
X156750000Y-94700000I-250000J0D01*
G01*
X156750000Y-94700000D02*
G75*
G02*
X157250000Y-94700000I250000J0D01*
G01*
D12*
X221125000Y-161300000D02*
G75*
G02*
X220975000Y-161300000I-75000J0D01*
G01*
X220975000Y-161300000D02*
G75*
G02*
X221125000Y-161300000I75000J0D01*
G01*
D15*
X166250000Y-95700000D02*
G75*
G02*
X165750000Y-95700000I-250000J0D01*
G01*
X165750000Y-95700000D02*
G75*
G02*
X166250000Y-95700000I250000J0D01*
G01*
D17*
X120225000Y-104300000D02*
G75*
G02*
X119775000Y-104300000I-225000J0D01*
G01*
X119775000Y-104300000D02*
G75*
G02*
X120225000Y-104300000I225000J0D01*
G01*
D13*
X218175000Y-133300000D02*
G75*
G02*
X217925000Y-133300000I-125000J0D01*
G01*
X217925000Y-133300000D02*
G75*
G02*
X218175000Y-133300000I125000J0D01*
G01*
D12*
X243125000Y-186700000D02*
G75*
G02*
X242975000Y-186700000I-75000J0D01*
G01*
X242975000Y-186700000D02*
G75*
G02*
X243125000Y-186700000I75000J0D01*
G01*
D13*
X137175000Y-139300000D02*
G75*
G02*
X136925000Y-139300000I-125000J0D01*
G01*
X136925000Y-139300000D02*
G75*
G02*
X137175000Y-139300000I125000J0D01*
G01*
X176175000Y-133300000D02*
G75*
G02*
X175925000Y-133300000I-125000J0D01*
G01*
X175925000Y-133300000D02*
G75*
G02*
X176175000Y-133300000I125000J0D01*
G01*
D15*
X206250000Y-92700000D02*
G75*
G02*
X205750000Y-92700000I-250000J0D01*
G01*
X205750000Y-92700000D02*
G75*
G02*
X206250000Y-92700000I250000J0D01*
G01*
X136250000Y-100700000D02*
G75*
G02*
X135750000Y-100700000I-250000J0D01*
G01*
X135750000Y-100700000D02*
G75*
G02*
X136250000Y-100700000I250000J0D01*
G01*
X157250000Y-95700000D02*
G75*
G02*
X156750000Y-95700000I-250000J0D01*
G01*
X156750000Y-95700000D02*
G75*
G02*
X157250000Y-95700000I250000J0D01*
G01*
D14*
X187200000Y-122900000D02*
G75*
G02*
X186900000Y-122900000I-150000J0D01*
G01*
X186900000Y-122900000D02*
G75*
G02*
X187200000Y-122900000I150000J0D01*
G01*
X157200000Y-129900000D02*
G75*
G02*
X156900000Y-129900000I-150000J0D01*
G01*
X156900000Y-129900000D02*
G75*
G02*
X157200000Y-129900000I150000J0D01*
G01*
D15*
X196250000Y-97700000D02*
G75*
G02*
X195750000Y-97700000I-250000J0D01*
G01*
X195750000Y-97700000D02*
G75*
G02*
X196250000Y-97700000I250000J0D01*
G01*
D10*
X175225000Y-111700000D02*
G75*
G02*
X174875000Y-111700000I-175000J0D01*
G01*
X174875000Y-111700000D02*
G75*
G02*
X175225000Y-111700000I175000J0D01*
G01*
D14*
X120200000Y-122900000D02*
G75*
G02*
X119900000Y-122900000I-150000J0D01*
G01*
X119900000Y-122900000D02*
G75*
G02*
X120200000Y-122900000I150000J0D01*
G01*
D11*
X242150000Y-149300000D02*
G75*
G02*
X241950000Y-149300000I-100000J0D01*
G01*
X241950000Y-149300000D02*
G75*
G02*
X242150000Y-149300000I100000J0D01*
G01*
D15*
X136250000Y-99700000D02*
G75*
G02*
X135750000Y-99700000I-250000J0D01*
G01*
X135750000Y-99700000D02*
G75*
G02*
X136250000Y-99700000I250000J0D01*
G01*
D12*
X120125000Y-167300000D02*
G75*
G02*
X119975000Y-167300000I-75000J0D01*
G01*
X119975000Y-167300000D02*
G75*
G02*
X120125000Y-167300000I75000J0D01*
G01*
D14*
X188200000Y-124300000D02*
G75*
G02*
X187900000Y-124300000I-150000J0D01*
G01*
X187900000Y-124300000D02*
G75*
G02*
X188200000Y-124300000I150000J0D01*
G01*
D13*
X177175000Y-139300000D02*
G75*
G02*
X176925000Y-139300000I-125000J0D01*
G01*
X176925000Y-139300000D02*
G75*
G02*
X177175000Y-139300000I125000J0D01*
G01*
X127175000Y-141300000D02*
G75*
G02*
X126925000Y-141300000I-125000J0D01*
G01*
X126925000Y-141300000D02*
G75*
G02*
X127175000Y-141300000I125000J0D01*
G01*
D14*
X219200000Y-124300000D02*
G75*
G02*
X218900000Y-124300000I-150000J0D01*
G01*
X218900000Y-124300000D02*
G75*
G02*
X219200000Y-124300000I150000J0D01*
G01*
D13*
X138175000Y-141300000D02*
G75*
G02*
X137925000Y-141300000I-125000J0D01*
G01*
X137925000Y-141300000D02*
G75*
G02*
X138175000Y-141300000I125000J0D01*
G01*
D15*
X175250000Y-84700000D02*
G75*
G02*
X174750000Y-84700000I-250000J0D01*
G01*
X174750000Y-84700000D02*
G75*
G02*
X175250000Y-84700000I250000J0D01*
G01*
D17*
X119225000Y-104300000D02*
G75*
G02*
X118775000Y-104300000I-225000J0D01*
G01*
X118775000Y-104300000D02*
G75*
G02*
X119225000Y-104300000I225000J0D01*
G01*
D10*
X196475000Y-111600000D02*
G75*
G02*
X196125000Y-111600000I-175000J0D01*
G01*
X196125000Y-111600000D02*
G75*
G02*
X196475000Y-111600000I175000J0D01*
G01*
D15*
X167250000Y-95700000D02*
G75*
G02*
X166750000Y-95700000I-250000J0D01*
G01*
X166750000Y-95700000D02*
G75*
G02*
X167250000Y-95700000I250000J0D01*
G01*
X177250000Y-84700000D02*
G75*
G02*
X176750000Y-84700000I-250000J0D01*
G01*
X176750000Y-84700000D02*
G75*
G02*
X177250000Y-84700000I250000J0D01*
G01*
D16*
X138250000Y-107900000D02*
G75*
G02*
X137850000Y-107900000I-200000J0D01*
G01*
X137850000Y-107900000D02*
G75*
G02*
X138250000Y-107900000I200000J0D01*
G01*
D14*
X186200000Y-120100000D02*
G75*
G02*
X185900000Y-120100000I-150000J0D01*
G01*
X185900000Y-120100000D02*
G75*
G02*
X186200000Y-120100000I150000J0D01*
G01*
D17*
X150225000Y-104300000D02*
G75*
G02*
X149775000Y-104300000I-225000J0D01*
G01*
X149775000Y-104300000D02*
G75*
G02*
X150225000Y-104300000I225000J0D01*
G01*
D10*
X196225000Y-115900000D02*
G75*
G02*
X195875000Y-115900000I-175000J0D01*
G01*
X195875000Y-115900000D02*
G75*
G02*
X196225000Y-115900000I175000J0D01*
G01*
D12*
X221125000Y-173300000D02*
G75*
G02*
X220975000Y-173300000I-75000J0D01*
G01*
X220975000Y-173300000D02*
G75*
G02*
X221125000Y-173300000I75000J0D01*
G01*
D10*
X127225000Y-115900000D02*
G75*
G02*
X126875000Y-115900000I-175000J0D01*
G01*
X126875000Y-115900000D02*
G75*
G02*
X127225000Y-115900000I175000J0D01*
G01*
X165225000Y-110300000D02*
G75*
G02*
X164875000Y-110300000I-175000J0D01*
G01*
X164875000Y-110300000D02*
G75*
G02*
X165225000Y-110300000I175000J0D01*
G01*
D13*
X206175000Y-135300000D02*
G75*
G02*
X205925000Y-135300000I-125000J0D01*
G01*
X205925000Y-135300000D02*
G75*
G02*
X206175000Y-135300000I125000J0D01*
G01*
D11*
X235150000Y-147300000D02*
G75*
G02*
X234950000Y-147300000I-100000J0D01*
G01*
X234950000Y-147300000D02*
G75*
G02*
X235150000Y-147300000I100000J0D01*
G01*
D14*
X188200000Y-128500000D02*
G75*
G02*
X187900000Y-128500000I-150000J0D01*
G01*
X187900000Y-128500000D02*
G75*
G02*
X188200000Y-128500000I150000J0D01*
G01*
D12*
X236125000Y-167300000D02*
G75*
G02*
X235975000Y-167300000I-75000J0D01*
G01*
X235975000Y-167300000D02*
G75*
G02*
X236125000Y-167300000I75000J0D01*
G01*
D15*
X196250000Y-93700000D02*
G75*
G02*
X195750000Y-93700000I-250000J0D01*
G01*
X195750000Y-93700000D02*
G75*
G02*
X196250000Y-93700000I250000J0D01*
G01*
D10*
X204225000Y-115900000D02*
G75*
G02*
X203875000Y-115900000I-175000J0D01*
G01*
X203875000Y-115900000D02*
G75*
G02*
X204225000Y-115900000I175000J0D01*
G01*
D17*
X175225000Y-101900000D02*
G75*
G02*
X174775000Y-101900000I-225000J0D01*
G01*
X174775000Y-101900000D02*
G75*
G02*
X175225000Y-101900000I225000J0D01*
G01*
D15*
X157250000Y-90700000D02*
G75*
G02*
X156750000Y-90700000I-250000J0D01*
G01*
X156750000Y-90700000D02*
G75*
G02*
X157250000Y-90700000I250000J0D01*
G01*
D14*
X119200000Y-124300000D02*
G75*
G02*
X118900000Y-124300000I-150000J0D01*
G01*
X118900000Y-124300000D02*
G75*
G02*
X119200000Y-124300000I150000J0D01*
G01*
D10*
X196225000Y-114500000D02*
G75*
G02*
X195875000Y-114500000I-175000J0D01*
G01*
X195875000Y-114500000D02*
G75*
G02*
X196225000Y-114500000I175000J0D01*
G01*
D13*
X195175000Y-133300000D02*
G75*
G02*
X194925000Y-133300000I-125000J0D01*
G01*
X194925000Y-133300000D02*
G75*
G02*
X195175000Y-133300000I125000J0D01*
G01*
D14*
X186200000Y-122900000D02*
G75*
G02*
X185900000Y-122900000I-150000J0D01*
G01*
X185900000Y-122900000D02*
G75*
G02*
X186200000Y-122900000I150000J0D01*
G01*
D13*
X127175000Y-135300000D02*
G75*
G02*
X126925000Y-135300000I-125000J0D01*
G01*
X126925000Y-135300000D02*
G75*
G02*
X127175000Y-135300000I125000J0D01*
G01*
D14*
X149200000Y-121500000D02*
G75*
G02*
X148900000Y-121500000I-150000J0D01*
G01*
X148900000Y-121500000D02*
G75*
G02*
X149200000Y-121500000I150000J0D01*
G01*
D11*
X156150000Y-157300000D02*
G75*
G02*
X155950000Y-157300000I-100000J0D01*
G01*
X155950000Y-157300000D02*
G75*
G02*
X156150000Y-157300000I100000J0D01*
G01*
D10*
X167225000Y-110300000D02*
G75*
G02*
X166875000Y-110300000I-175000J0D01*
G01*
X166875000Y-110300000D02*
G75*
G02*
X167225000Y-110300000I175000J0D01*
G01*
D15*
X196250000Y-84700000D02*
G75*
G02*
X195750000Y-84700000I-250000J0D01*
G01*
X195750000Y-84700000D02*
G75*
G02*
X196250000Y-84700000I250000J0D01*
G01*
X206250000Y-95700000D02*
G75*
G02*
X205750000Y-95700000I-250000J0D01*
G01*
X205750000Y-95700000D02*
G75*
G02*
X206250000Y-95700000I250000J0D01*
G01*
D13*
X136175000Y-141300000D02*
G75*
G02*
X135925000Y-141300000I-125000J0D01*
G01*
X135925000Y-141300000D02*
G75*
G02*
X136175000Y-141300000I125000J0D01*
G01*
D12*
X241125000Y-175300000D02*
G75*
G02*
X240975000Y-175300000I-75000J0D01*
G01*
X240975000Y-175300000D02*
G75*
G02*
X241125000Y-175300000I75000J0D01*
G01*
X234125000Y-173300000D02*
G75*
G02*
X233975000Y-173300000I-75000J0D01*
G01*
X233975000Y-173300000D02*
G75*
G02*
X234125000Y-173300000I75000J0D01*
G01*
D10*
X127225000Y-111700000D02*
G75*
G02*
X126875000Y-111700000I-175000J0D01*
G01*
X126875000Y-111700000D02*
G75*
G02*
X127225000Y-111700000I175000J0D01*
G01*
D15*
X156250000Y-97700000D02*
G75*
G02*
X155750000Y-97700000I-250000J0D01*
G01*
X155750000Y-97700000D02*
G75*
G02*
X156250000Y-97700000I250000J0D01*
G01*
D10*
X167225000Y-114500000D02*
G75*
G02*
X166875000Y-114500000I-175000J0D01*
G01*
X166875000Y-114500000D02*
G75*
G02*
X167225000Y-114500000I175000J0D01*
G01*
D11*
X119150000Y-157300000D02*
G75*
G02*
X118950000Y-157300000I-100000J0D01*
G01*
X118950000Y-157300000D02*
G75*
G02*
X119150000Y-157300000I100000J0D01*
G01*
D16*
X139250000Y-106700000D02*
G75*
G02*
X138850000Y-106700000I-200000J0D01*
G01*
X138850000Y-106700000D02*
G75*
G02*
X139250000Y-106700000I200000J0D01*
G01*
D10*
X195225000Y-114500000D02*
G75*
G02*
X194875000Y-114500000I-175000J0D01*
G01*
X194875000Y-114500000D02*
G75*
G02*
X195225000Y-114500000I175000J0D01*
G01*
D13*
X236175000Y-139300000D02*
G75*
G02*
X235925000Y-139300000I-125000J0D01*
G01*
X235925000Y-139300000D02*
G75*
G02*
X236175000Y-139300000I125000J0D01*
G01*
D11*
X234150000Y-149300000D02*
G75*
G02*
X233950000Y-149300000I-100000J0D01*
G01*
X233950000Y-149300000D02*
G75*
G02*
X234150000Y-149300000I100000J0D01*
G01*
D15*
X195250000Y-93700000D02*
G75*
G02*
X194750000Y-93700000I-250000J0D01*
G01*
X194750000Y-93700000D02*
G75*
G02*
X195250000Y-93700000I250000J0D01*
G01*
D11*
X206150000Y-145300000D02*
G75*
G02*
X205950000Y-145300000I-100000J0D01*
G01*
X205950000Y-145300000D02*
G75*
G02*
X206150000Y-145300000I100000J0D01*
G01*
D14*
X188200000Y-127100000D02*
G75*
G02*
X187900000Y-127100000I-150000J0D01*
G01*
X187900000Y-127100000D02*
G75*
G02*
X188200000Y-127100000I150000J0D01*
G01*
D15*
X195250000Y-88700000D02*
G75*
G02*
X194750000Y-88700000I-250000J0D01*
G01*
X194750000Y-88700000D02*
G75*
G02*
X195250000Y-88700000I250000J0D01*
G01*
D16*
X187250000Y-107900000D02*
G75*
G02*
X186850000Y-107900000I-200000J0D01*
G01*
X186850000Y-107900000D02*
G75*
G02*
X187250000Y-107900000I200000J0D01*
G01*
D14*
X218200000Y-129900000D02*
G75*
G02*
X217900000Y-129900000I-150000J0D01*
G01*
X217900000Y-129900000D02*
G75*
G02*
X218200000Y-129900000I150000J0D01*
G01*
D11*
X127150000Y-145300000D02*
G75*
G02*
X126950000Y-145300000I-100000J0D01*
G01*
X126950000Y-145300000D02*
G75*
G02*
X127150000Y-145300000I100000J0D01*
G01*
D12*
X236125000Y-175300000D02*
G75*
G02*
X235975000Y-175300000I-75000J0D01*
G01*
X235975000Y-175300000D02*
G75*
G02*
X236125000Y-175300000I75000J0D01*
G01*
D15*
X205250000Y-96700000D02*
G75*
G02*
X204750000Y-96700000I-250000J0D01*
G01*
X204750000Y-96700000D02*
G75*
G02*
X205250000Y-96700000I250000J0D01*
G01*
D14*
X119200000Y-121500000D02*
G75*
G02*
X118900000Y-121500000I-150000J0D01*
G01*
X118900000Y-121500000D02*
G75*
G02*
X119200000Y-121500000I150000J0D01*
G01*
D11*
X157150000Y-153300000D02*
G75*
G02*
X156950000Y-153300000I-100000J0D01*
G01*
X156950000Y-153300000D02*
G75*
G02*
X157150000Y-153300000I100000J0D01*
G01*
D17*
X206225000Y-101900000D02*
G75*
G02*
X205775000Y-101900000I-225000J0D01*
G01*
X205775000Y-101900000D02*
G75*
G02*
X206225000Y-101900000I225000J0D01*
G01*
D13*
X175175000Y-141300000D02*
G75*
G02*
X174925000Y-141300000I-125000J0D01*
G01*
X174925000Y-141300000D02*
G75*
G02*
X175175000Y-141300000I125000J0D01*
G01*
D14*
X165200000Y-125700000D02*
G75*
G02*
X164900000Y-125700000I-150000J0D01*
G01*
X164900000Y-125700000D02*
G75*
G02*
X165200000Y-125700000I150000J0D01*
G01*
X119200000Y-120100000D02*
G75*
G02*
X118900000Y-120100000I-150000J0D01*
G01*
X118900000Y-120100000D02*
G75*
G02*
X119200000Y-120100000I150000J0D01*
G01*
D16*
X156250000Y-106700000D02*
G75*
G02*
X155850000Y-106700000I-200000J0D01*
G01*
X155850000Y-106700000D02*
G75*
G02*
X156250000Y-106700000I200000J0D01*
G01*
D11*
X177150000Y-147300000D02*
G75*
G02*
X176950000Y-147300000I-100000J0D01*
G01*
X176950000Y-147300000D02*
G75*
G02*
X177150000Y-147300000I100000J0D01*
G01*
D13*
X127175000Y-139300000D02*
G75*
G02*
X126925000Y-139300000I-125000J0D01*
G01*
X126925000Y-139300000D02*
G75*
G02*
X127175000Y-139300000I125000J0D01*
G01*
D11*
X175150000Y-149300000D02*
G75*
G02*
X174950000Y-149300000I-100000J0D01*
G01*
X174950000Y-149300000D02*
G75*
G02*
X175150000Y-149300000I100000J0D01*
G01*
D15*
X165250000Y-92700000D02*
G75*
G02*
X164750000Y-92700000I-250000J0D01*
G01*
X164750000Y-92700000D02*
G75*
G02*
X165250000Y-92700000I250000J0D01*
G01*
D10*
X219225000Y-113100000D02*
G75*
G02*
X218875000Y-113100000I-175000J0D01*
G01*
X218875000Y-113100000D02*
G75*
G02*
X219225000Y-113100000I175000J0D01*
G01*
D13*
X119175000Y-141300000D02*
G75*
G02*
X118925000Y-141300000I-125000J0D01*
G01*
X118925000Y-141300000D02*
G75*
G02*
X119175000Y-141300000I125000J0D01*
G01*
X138175000Y-139300000D02*
G75*
G02*
X137925000Y-139300000I-125000J0D01*
G01*
X137925000Y-139300000D02*
G75*
G02*
X138175000Y-139300000I125000J0D01*
G01*
D14*
X148200000Y-118700000D02*
G75*
G02*
X147900000Y-118700000I-150000J0D01*
G01*
X147900000Y-118700000D02*
G75*
G02*
X148200000Y-118700000I150000J0D01*
G01*
D17*
X119225000Y-103100000D02*
G75*
G02*
X118775000Y-103100000I-225000J0D01*
G01*
X118775000Y-103100000D02*
G75*
G02*
X119225000Y-103100000I225000J0D01*
G01*
D12*
X220125000Y-175300000D02*
G75*
G02*
X219975000Y-175300000I-75000J0D01*
G01*
X219975000Y-175300000D02*
G75*
G02*
X220125000Y-175300000I75000J0D01*
G01*
D14*
X127200000Y-118700000D02*
G75*
G02*
X126900000Y-118700000I-150000J0D01*
G01*
X126900000Y-118700000D02*
G75*
G02*
X127200000Y-118700000I150000J0D01*
G01*
D10*
X218225000Y-111700000D02*
G75*
G02*
X217875000Y-111700000I-175000J0D01*
G01*
X217875000Y-111700000D02*
G75*
G02*
X218225000Y-111700000I175000J0D01*
G01*
X138225000Y-109100000D02*
G75*
G02*
X137875000Y-109100000I-175000J0D01*
G01*
X137875000Y-109100000D02*
G75*
G02*
X138225000Y-109100000I175000J0D01*
G01*
D12*
X221125000Y-179300000D02*
G75*
G02*
X220975000Y-179300000I-75000J0D01*
G01*
X220975000Y-179300000D02*
G75*
G02*
X221125000Y-179300000I75000J0D01*
G01*
D14*
X195200000Y-118700000D02*
G75*
G02*
X194900000Y-118700000I-150000J0D01*
G01*
X194900000Y-118700000D02*
G75*
G02*
X195200000Y-118700000I150000J0D01*
G01*
D12*
X242125000Y-186700000D02*
G75*
G02*
X241975000Y-186700000I-75000J0D01*
G01*
X241975000Y-186700000D02*
G75*
G02*
X242125000Y-186700000I75000J0D01*
G01*
D13*
X219175000Y-135300000D02*
G75*
G02*
X218925000Y-135300000I-125000J0D01*
G01*
X218925000Y-135300000D02*
G75*
G02*
X219175000Y-135300000I125000J0D01*
G01*
X157175000Y-137300000D02*
G75*
G02*
X156925000Y-137300000I-125000J0D01*
G01*
X156925000Y-137300000D02*
G75*
G02*
X157175000Y-137300000I125000J0D01*
G01*
D15*
X195250000Y-92700000D02*
G75*
G02*
X194750000Y-92700000I-250000J0D01*
G01*
X194750000Y-92700000D02*
G75*
G02*
X195250000Y-92700000I250000J0D01*
G01*
D13*
X175175000Y-139300000D02*
G75*
G02*
X174925000Y-139300000I-125000J0D01*
G01*
X174925000Y-139300000D02*
G75*
G02*
X175175000Y-139300000I125000J0D01*
G01*
D10*
X119225000Y-109100000D02*
G75*
G02*
X118875000Y-109100000I-175000J0D01*
G01*
X118875000Y-109100000D02*
G75*
G02*
X119225000Y-109100000I175000J0D01*
G01*
D15*
X150250000Y-99700000D02*
G75*
G02*
X149750000Y-99700000I-250000J0D01*
G01*
X149750000Y-99700000D02*
G75*
G02*
X150250000Y-99700000I250000J0D01*
G01*
D14*
X157200000Y-124300000D02*
G75*
G02*
X156900000Y-124300000I-150000J0D01*
G01*
X156900000Y-124300000D02*
G75*
G02*
X157200000Y-124300000I150000J0D01*
G01*
D12*
X242125000Y-169300000D02*
G75*
G02*
X241975000Y-169300000I-75000J0D01*
G01*
X241975000Y-169300000D02*
G75*
G02*
X242125000Y-169300000I75000J0D01*
G01*
D15*
X195250000Y-86700000D02*
G75*
G02*
X194750000Y-86700000I-250000J0D01*
G01*
X194750000Y-86700000D02*
G75*
G02*
X195250000Y-86700000I250000J0D01*
G01*
D11*
X243150000Y-153300000D02*
G75*
G02*
X242950000Y-153300000I-100000J0D01*
G01*
X242950000Y-153300000D02*
G75*
G02*
X243150000Y-153300000I100000J0D01*
G01*
D15*
X203250000Y-93700000D02*
G75*
G02*
X202750000Y-93700000I-250000J0D01*
G01*
X202750000Y-93700000D02*
G75*
G02*
X203250000Y-93700000I250000J0D01*
G01*
D13*
X206175000Y-133300000D02*
G75*
G02*
X205925000Y-133300000I-125000J0D01*
G01*
X205925000Y-133300000D02*
G75*
G02*
X206175000Y-133300000I125000J0D01*
G01*
X119175000Y-143300000D02*
G75*
G02*
X118925000Y-143300000I-125000J0D01*
G01*
X118925000Y-143300000D02*
G75*
G02*
X119175000Y-143300000I125000J0D01*
G01*
X166175000Y-133300000D02*
G75*
G02*
X165925000Y-133300000I-125000J0D01*
G01*
X165925000Y-133300000D02*
G75*
G02*
X166175000Y-133300000I125000J0D01*
G01*
D12*
X243125000Y-169300000D02*
G75*
G02*
X242975000Y-169300000I-75000J0D01*
G01*
X242975000Y-169300000D02*
G75*
G02*
X243125000Y-169300000I75000J0D01*
G01*
X195125000Y-161300000D02*
G75*
G02*
X194975000Y-161300000I-75000J0D01*
G01*
X194975000Y-161300000D02*
G75*
G02*
X195125000Y-161300000I75000J0D01*
G01*
D15*
X176250000Y-91700000D02*
G75*
G02*
X175750000Y-91700000I-250000J0D01*
G01*
X175750000Y-91700000D02*
G75*
G02*
X176250000Y-91700000I250000J0D01*
G01*
X205250000Y-95700000D02*
G75*
G02*
X204750000Y-95700000I-250000J0D01*
G01*
X204750000Y-95700000D02*
G75*
G02*
X205250000Y-95700000I250000J0D01*
G01*
D10*
X136225000Y-109100000D02*
G75*
G02*
X135875000Y-109100000I-175000J0D01*
G01*
X135875000Y-109100000D02*
G75*
G02*
X136225000Y-109100000I175000J0D01*
G01*
D14*
X196200000Y-129900000D02*
G75*
G02*
X195900000Y-129900000I-150000J0D01*
G01*
X195900000Y-129900000D02*
G75*
G02*
X196200000Y-129900000I150000J0D01*
G01*
D12*
X241125000Y-183300000D02*
G75*
G02*
X240975000Y-183300000I-75000J0D01*
G01*
X240975000Y-183300000D02*
G75*
G02*
X241125000Y-183300000I75000J0D01*
G01*
D10*
X136225000Y-110300000D02*
G75*
G02*
X135875000Y-110300000I-175000J0D01*
G01*
X135875000Y-110300000D02*
G75*
G02*
X136225000Y-110300000I175000J0D01*
G01*
D15*
X165250000Y-98700000D02*
G75*
G02*
X164750000Y-98700000I-250000J0D01*
G01*
X164750000Y-98700000D02*
G75*
G02*
X165250000Y-98700000I250000J0D01*
G01*
D14*
X205200000Y-128500000D02*
G75*
G02*
X204900000Y-128500000I-150000J0D01*
G01*
X204900000Y-128500000D02*
G75*
G02*
X205200000Y-128500000I150000J0D01*
G01*
D12*
X195125000Y-169300000D02*
G75*
G02*
X194975000Y-169300000I-75000J0D01*
G01*
X194975000Y-169300000D02*
G75*
G02*
X195125000Y-169300000I75000J0D01*
G01*
D11*
X127150000Y-149300000D02*
G75*
G02*
X126950000Y-149300000I-100000J0D01*
G01*
X126950000Y-149300000D02*
G75*
G02*
X127150000Y-149300000I100000J0D01*
G01*
X195150000Y-149300000D02*
G75*
G02*
X194950000Y-149300000I-100000J0D01*
G01*
X194950000Y-149300000D02*
G75*
G02*
X195150000Y-149300000I100000J0D01*
G01*
D12*
X235125000Y-175300000D02*
G75*
G02*
X234975000Y-175300000I-75000J0D01*
G01*
X234975000Y-175300000D02*
G75*
G02*
X235125000Y-175300000I75000J0D01*
G01*
D14*
X137200000Y-129900000D02*
G75*
G02*
X136900000Y-129900000I-150000J0D01*
G01*
X136900000Y-129900000D02*
G75*
G02*
X137200000Y-129900000I150000J0D01*
G01*
D15*
X196250000Y-90700000D02*
G75*
G02*
X195750000Y-90700000I-250000J0D01*
G01*
X195750000Y-90700000D02*
G75*
G02*
X196250000Y-90700000I250000J0D01*
G01*
X195250000Y-97700000D02*
G75*
G02*
X194750000Y-97700000I-250000J0D01*
G01*
X194750000Y-97700000D02*
G75*
G02*
X195250000Y-97700000I250000J0D01*
G01*
D10*
X157225000Y-111700000D02*
G75*
G02*
X156875000Y-111700000I-175000J0D01*
G01*
X156875000Y-111700000D02*
G75*
G02*
X157225000Y-111700000I175000J0D01*
G01*
D14*
X139200000Y-124300000D02*
G75*
G02*
X138900000Y-124300000I-150000J0D01*
G01*
X138900000Y-124300000D02*
G75*
G02*
X139200000Y-124300000I150000J0D01*
G01*
D12*
X242125000Y-165300000D02*
G75*
G02*
X241975000Y-165300000I-75000J0D01*
G01*
X241975000Y-165300000D02*
G75*
G02*
X242125000Y-165300000I75000J0D01*
G01*
D13*
X137175000Y-135300000D02*
G75*
G02*
X136925000Y-135300000I-125000J0D01*
G01*
X136925000Y-135300000D02*
G75*
G02*
X137175000Y-135300000I125000J0D01*
G01*
D12*
X243125000Y-177300000D02*
G75*
G02*
X242975000Y-177300000I-75000J0D01*
G01*
X242975000Y-177300000D02*
G75*
G02*
X243125000Y-177300000I75000J0D01*
G01*
D14*
X119200000Y-125700000D02*
G75*
G02*
X118900000Y-125700000I-150000J0D01*
G01*
X118900000Y-125700000D02*
G75*
G02*
X119200000Y-125700000I150000J0D01*
G01*
D13*
X203175000Y-133300000D02*
G75*
G02*
X202925000Y-133300000I-125000J0D01*
G01*
X202925000Y-133300000D02*
G75*
G02*
X203175000Y-133300000I125000J0D01*
G01*
D15*
X175250000Y-88700000D02*
G75*
G02*
X174750000Y-88700000I-250000J0D01*
G01*
X174750000Y-88700000D02*
G75*
G02*
X175250000Y-88700000I250000J0D01*
G01*
D13*
X234175000Y-143300000D02*
G75*
G02*
X233925000Y-143300000I-125000J0D01*
G01*
X233925000Y-143300000D02*
G75*
G02*
X234175000Y-143300000I125000J0D01*
G01*
X120175000Y-133300000D02*
G75*
G02*
X119925000Y-133300000I-125000J0D01*
G01*
X119925000Y-133300000D02*
G75*
G02*
X120175000Y-133300000I125000J0D01*
G01*
X219175000Y-143300000D02*
G75*
G02*
X218925000Y-143300000I-125000J0D01*
G01*
X218925000Y-143300000D02*
G75*
G02*
X219175000Y-143300000I125000J0D01*
G01*
D14*
X175200000Y-121500000D02*
G75*
G02*
X174900000Y-121500000I-150000J0D01*
G01*
X174900000Y-121500000D02*
G75*
G02*
X175200000Y-121500000I150000J0D01*
G01*
D15*
X204250000Y-95700000D02*
G75*
G02*
X203750000Y-95700000I-250000J0D01*
G01*
X203750000Y-95700000D02*
G75*
G02*
X204250000Y-95700000I250000J0D01*
G01*
D11*
X120150000Y-157300000D02*
G75*
G02*
X119950000Y-157300000I-100000J0D01*
G01*
X119950000Y-157300000D02*
G75*
G02*
X120150000Y-157300000I100000J0D01*
G01*
X234150000Y-155300000D02*
G75*
G02*
X233950000Y-155300000I-100000J0D01*
G01*
X233950000Y-155300000D02*
G75*
G02*
X234150000Y-155300000I100000J0D01*
G01*
X219150000Y-155300000D02*
G75*
G02*
X218950000Y-155300000I-100000J0D01*
G01*
X218950000Y-155300000D02*
G75*
G02*
X219150000Y-155300000I100000J0D01*
G01*
D15*
X185250000Y-88700000D02*
G75*
G02*
X184750000Y-88700000I-250000J0D01*
G01*
X184750000Y-88700000D02*
G75*
G02*
X185250000Y-88700000I250000J0D01*
G01*
X176250000Y-92700000D02*
G75*
G02*
X175750000Y-92700000I-250000J0D01*
G01*
X175750000Y-92700000D02*
G75*
G02*
X176250000Y-92700000I250000J0D01*
G01*
D12*
X219125000Y-171300000D02*
G75*
G02*
X218975000Y-171300000I-75000J0D01*
G01*
X218975000Y-171300000D02*
G75*
G02*
X219125000Y-171300000I75000J0D01*
G01*
D13*
X175175000Y-137300000D02*
G75*
G02*
X174925000Y-137300000I-125000J0D01*
G01*
X174925000Y-137300000D02*
G75*
G02*
X175175000Y-137300000I125000J0D01*
G01*
D10*
X138225000Y-110300000D02*
G75*
G02*
X137875000Y-110300000I-175000J0D01*
G01*
X137875000Y-110300000D02*
G75*
G02*
X138225000Y-110300000I175000J0D01*
G01*
D13*
X157175000Y-133300000D02*
G75*
G02*
X156925000Y-133300000I-125000J0D01*
G01*
X156925000Y-133300000D02*
G75*
G02*
X157175000Y-133300000I125000J0D01*
G01*
X206175000Y-139300000D02*
G75*
G02*
X205925000Y-139300000I-125000J0D01*
G01*
X205925000Y-139300000D02*
G75*
G02*
X206175000Y-139300000I125000J0D01*
G01*
D12*
X236125000Y-173300000D02*
G75*
G02*
X235975000Y-173300000I-75000J0D01*
G01*
X235975000Y-173300000D02*
G75*
G02*
X236125000Y-173300000I75000J0D01*
G01*
D14*
X175200000Y-122900000D02*
G75*
G02*
X174900000Y-122900000I-150000J0D01*
G01*
X174900000Y-122900000D02*
G75*
G02*
X175200000Y-122900000I150000J0D01*
G01*
X206200000Y-121500000D02*
G75*
G02*
X205900000Y-121500000I-150000J0D01*
G01*
X205900000Y-121500000D02*
G75*
G02*
X206200000Y-121500000I150000J0D01*
G01*
D15*
X204250000Y-93700000D02*
G75*
G02*
X203750000Y-93700000I-250000J0D01*
G01*
X203750000Y-93700000D02*
G75*
G02*
X204250000Y-93700000I250000J0D01*
G01*
D17*
X175275000Y-105500000D02*
G75*
G02*
X174825000Y-105500000I-225000J0D01*
G01*
X174825000Y-105500000D02*
G75*
G02*
X175275000Y-105500000I225000J0D01*
G01*
D11*
X235150000Y-149300000D02*
G75*
G02*
X234950000Y-149300000I-100000J0D01*
G01*
X234950000Y-149300000D02*
G75*
G02*
X235150000Y-149300000I100000J0D01*
G01*
D16*
X157250000Y-107900000D02*
G75*
G02*
X156850000Y-107900000I-200000J0D01*
G01*
X156850000Y-107900000D02*
G75*
G02*
X157250000Y-107900000I200000J0D01*
G01*
D15*
X217250000Y-96700000D02*
G75*
G02*
X216750000Y-96700000I-250000J0D01*
G01*
X216750000Y-96700000D02*
G75*
G02*
X217250000Y-96700000I250000J0D01*
G01*
D16*
X137250000Y-107900000D02*
G75*
G02*
X136850000Y-107900000I-200000J0D01*
G01*
X136850000Y-107900000D02*
G75*
G02*
X137250000Y-107900000I200000J0D01*
G01*
D15*
X119250000Y-99700000D02*
G75*
G02*
X118750000Y-99700000I-250000J0D01*
G01*
X118750000Y-99700000D02*
G75*
G02*
X119250000Y-99700000I250000J0D01*
G01*
X136250000Y-98700000D02*
G75*
G02*
X135750000Y-98700000I-250000J0D01*
G01*
X135750000Y-98700000D02*
G75*
G02*
X136250000Y-98700000I250000J0D01*
G01*
X167250000Y-96700000D02*
G75*
G02*
X166750000Y-96700000I-250000J0D01*
G01*
X166750000Y-96700000D02*
G75*
G02*
X167250000Y-96700000I250000J0D01*
G01*
X175250000Y-93700000D02*
G75*
G02*
X174750000Y-93700000I-250000J0D01*
G01*
X174750000Y-93700000D02*
G75*
G02*
X175250000Y-93700000I250000J0D01*
G01*
D14*
X120200000Y-121500000D02*
G75*
G02*
X119900000Y-121500000I-150000J0D01*
G01*
X119900000Y-121500000D02*
G75*
G02*
X120200000Y-121500000I150000J0D01*
G01*
X150200000Y-118700000D02*
G75*
G02*
X149900000Y-118700000I-150000J0D01*
G01*
X149900000Y-118700000D02*
G75*
G02*
X150200000Y-118700000I150000J0D01*
G01*
D15*
X137250000Y-98700000D02*
G75*
G02*
X136750000Y-98700000I-250000J0D01*
G01*
X136750000Y-98700000D02*
G75*
G02*
X137250000Y-98700000I250000J0D01*
G01*
D11*
X157150000Y-149300000D02*
G75*
G02*
X156950000Y-149300000I-100000J0D01*
G01*
X156950000Y-149300000D02*
G75*
G02*
X157150000Y-149300000I100000J0D01*
G01*
D17*
X156225000Y-104300000D02*
G75*
G02*
X155775000Y-104300000I-225000J0D01*
G01*
X155775000Y-104300000D02*
G75*
G02*
X156225000Y-104300000I225000J0D01*
G01*
D11*
X156150000Y-155300000D02*
G75*
G02*
X155950000Y-155300000I-100000J0D01*
G01*
X155950000Y-155300000D02*
G75*
G02*
X156150000Y-155300000I100000J0D01*
G01*
D10*
X203225000Y-115900000D02*
G75*
G02*
X202875000Y-115900000I-175000J0D01*
G01*
X202875000Y-115900000D02*
G75*
G02*
X203225000Y-115900000I175000J0D01*
G01*
D14*
X156200000Y-120100000D02*
G75*
G02*
X155900000Y-120100000I-150000J0D01*
G01*
X155900000Y-120100000D02*
G75*
G02*
X156200000Y-120100000I150000J0D01*
G01*
D12*
X243125000Y-167300000D02*
G75*
G02*
X242975000Y-167300000I-75000J0D01*
G01*
X242975000Y-167300000D02*
G75*
G02*
X243125000Y-167300000I75000J0D01*
G01*
D14*
X120200000Y-124300000D02*
G75*
G02*
X119900000Y-124300000I-150000J0D01*
G01*
X119900000Y-124300000D02*
G75*
G02*
X120200000Y-124300000I150000J0D01*
G01*
D12*
X120125000Y-159300000D02*
G75*
G02*
X119975000Y-159300000I-75000J0D01*
G01*
X119975000Y-159300000D02*
G75*
G02*
X120125000Y-159300000I75000J0D01*
G01*
D15*
X176250000Y-82700000D02*
G75*
G02*
X175750000Y-82700000I-250000J0D01*
G01*
X175750000Y-82700000D02*
G75*
G02*
X176250000Y-82700000I250000J0D01*
G01*
D17*
X136275000Y-105500000D02*
G75*
G02*
X135825000Y-105500000I-225000J0D01*
G01*
X135825000Y-105500000D02*
G75*
G02*
X136275000Y-105500000I225000J0D01*
G01*
D12*
X218125000Y-165300000D02*
G75*
G02*
X217975000Y-165300000I-75000J0D01*
G01*
X217975000Y-165300000D02*
G75*
G02*
X218125000Y-165300000I75000J0D01*
G01*
D15*
X217250000Y-95700000D02*
G75*
G02*
X216750000Y-95700000I-250000J0D01*
G01*
X216750000Y-95700000D02*
G75*
G02*
X217250000Y-95700000I250000J0D01*
G01*
X166250000Y-97700000D02*
G75*
G02*
X165750000Y-97700000I-250000J0D01*
G01*
X165750000Y-97700000D02*
G75*
G02*
X166250000Y-97700000I250000J0D01*
G01*
D14*
X119200000Y-118700000D02*
G75*
G02*
X118900000Y-118700000I-150000J0D01*
G01*
X118900000Y-118700000D02*
G75*
G02*
X119200000Y-118700000I150000J0D01*
G01*
X177200000Y-121500000D02*
G75*
G02*
X176900000Y-121500000I-150000J0D01*
G01*
X176900000Y-121500000D02*
G75*
G02*
X177200000Y-121500000I150000J0D01*
G01*
D13*
X220175000Y-143300000D02*
G75*
G02*
X219925000Y-143300000I-125000J0D01*
G01*
X219925000Y-143300000D02*
G75*
G02*
X220175000Y-143300000I125000J0D01*
G01*
D14*
X128200000Y-118700000D02*
G75*
G02*
X127900000Y-118700000I-150000J0D01*
G01*
X127900000Y-118700000D02*
G75*
G02*
X128200000Y-118700000I150000J0D01*
G01*
D10*
X175225000Y-114500000D02*
G75*
G02*
X174875000Y-114500000I-175000J0D01*
G01*
X174875000Y-114500000D02*
G75*
G02*
X175225000Y-114500000I175000J0D01*
G01*
D14*
X156200000Y-124300000D02*
G75*
G02*
X155900000Y-124300000I-150000J0D01*
G01*
X155900000Y-124300000D02*
G75*
G02*
X156200000Y-124300000I150000J0D01*
G01*
D11*
X241150000Y-147300000D02*
G75*
G02*
X240950000Y-147300000I-100000J0D01*
G01*
X240950000Y-147300000D02*
G75*
G02*
X241150000Y-147300000I100000J0D01*
G01*
D13*
X196175000Y-133300000D02*
G75*
G02*
X195925000Y-133300000I-125000J0D01*
G01*
X195925000Y-133300000D02*
G75*
G02*
X196175000Y-133300000I125000J0D01*
G01*
D17*
X138225000Y-104300000D02*
G75*
G02*
X137775000Y-104300000I-225000J0D01*
G01*
X137775000Y-104300000D02*
G75*
G02*
X138225000Y-104300000I225000J0D01*
G01*
D15*
X157250000Y-91700000D02*
G75*
G02*
X156750000Y-91700000I-250000J0D01*
G01*
X156750000Y-91700000D02*
G75*
G02*
X157250000Y-91700000I250000J0D01*
G01*
X195250000Y-89700000D02*
G75*
G02*
X194750000Y-89700000I-250000J0D01*
G01*
X194750000Y-89700000D02*
G75*
G02*
X195250000Y-89700000I250000J0D01*
G01*
D12*
X243125000Y-183300000D02*
G75*
G02*
X242975000Y-183300000I-75000J0D01*
G01*
X242975000Y-183300000D02*
G75*
G02*
X243125000Y-183300000I75000J0D01*
G01*
D14*
X187200000Y-120100000D02*
G75*
G02*
X186900000Y-120100000I-150000J0D01*
G01*
X186900000Y-120100000D02*
G75*
G02*
X187200000Y-120100000I150000J0D01*
G01*
X206200000Y-128500000D02*
G75*
G02*
X205900000Y-128500000I-150000J0D01*
G01*
X205900000Y-128500000D02*
G75*
G02*
X206200000Y-128500000I150000J0D01*
G01*
X196200000Y-125700000D02*
G75*
G02*
X195900000Y-125700000I-150000J0D01*
G01*
X195900000Y-125700000D02*
G75*
G02*
X196200000Y-125700000I150000J0D01*
G01*
D12*
X234125000Y-159300000D02*
G75*
G02*
X233975000Y-159300000I-75000J0D01*
G01*
X233975000Y-159300000D02*
G75*
G02*
X234125000Y-159300000I75000J0D01*
G01*
D10*
X165225000Y-113100000D02*
G75*
G02*
X164875000Y-113100000I-175000J0D01*
G01*
X164875000Y-113100000D02*
G75*
G02*
X165225000Y-113100000I175000J0D01*
G01*
D13*
X165175000Y-131600000D02*
G75*
G02*
X164925000Y-131600000I-125000J0D01*
G01*
X164925000Y-131600000D02*
G75*
G02*
X165175000Y-131600000I125000J0D01*
G01*
D12*
X236125000Y-159300000D02*
G75*
G02*
X235975000Y-159300000I-75000J0D01*
G01*
X235975000Y-159300000D02*
G75*
G02*
X236125000Y-159300000I75000J0D01*
G01*
D15*
X205250000Y-91700000D02*
G75*
G02*
X204750000Y-91700000I-250000J0D01*
G01*
X204750000Y-91700000D02*
G75*
G02*
X205250000Y-91700000I250000J0D01*
G01*
X196250000Y-94700000D02*
G75*
G02*
X195750000Y-94700000I-250000J0D01*
G01*
X195750000Y-94700000D02*
G75*
G02*
X196250000Y-94700000I250000J0D01*
G01*
X148250000Y-100700000D02*
G75*
G02*
X147750000Y-100700000I-250000J0D01*
G01*
X147750000Y-100700000D02*
G75*
G02*
X148250000Y-100700000I250000J0D01*
G01*
D14*
X137200000Y-122900000D02*
G75*
G02*
X136900000Y-122900000I-150000J0D01*
G01*
X136900000Y-122900000D02*
G75*
G02*
X137200000Y-122900000I150000J0D01*
G01*
X156200000Y-127100000D02*
G75*
G02*
X155900000Y-127100000I-150000J0D01*
G01*
X155900000Y-127100000D02*
G75*
G02*
X156200000Y-127100000I150000J0D01*
G01*
D10*
X195225000Y-115900000D02*
G75*
G02*
X194875000Y-115900000I-175000J0D01*
G01*
X194875000Y-115900000D02*
G75*
G02*
X195225000Y-115900000I175000J0D01*
G01*
D14*
X195200000Y-124300000D02*
G75*
G02*
X194900000Y-124300000I-150000J0D01*
G01*
X194900000Y-124300000D02*
G75*
G02*
X195200000Y-124300000I150000J0D01*
G01*
D11*
X243150000Y-155300000D02*
G75*
G02*
X242950000Y-155300000I-100000J0D01*
G01*
X242950000Y-155300000D02*
G75*
G02*
X243150000Y-155300000I100000J0D01*
G01*
D17*
X187225000Y-101900000D02*
G75*
G02*
X186775000Y-101900000I-225000J0D01*
G01*
X186775000Y-101900000D02*
G75*
G02*
X187225000Y-101900000I225000J0D01*
G01*
D13*
X127175000Y-133300000D02*
G75*
G02*
X126925000Y-133300000I-125000J0D01*
G01*
X126925000Y-133300000D02*
G75*
G02*
X127175000Y-133300000I125000J0D01*
G01*
D14*
X219200000Y-118700000D02*
G75*
G02*
X218900000Y-118700000I-150000J0D01*
G01*
X218900000Y-118700000D02*
G75*
G02*
X219200000Y-118700000I150000J0D01*
G01*
D11*
X204150000Y-147300000D02*
G75*
G02*
X203950000Y-147300000I-100000J0D01*
G01*
X203950000Y-147300000D02*
G75*
G02*
X204150000Y-147300000I100000J0D01*
G01*
D12*
X241125000Y-163300000D02*
G75*
G02*
X240975000Y-163300000I-75000J0D01*
G01*
X240975000Y-163300000D02*
G75*
G02*
X241125000Y-163300000I75000J0D01*
G01*
D11*
X175150000Y-147300000D02*
G75*
G02*
X174950000Y-147300000I-100000J0D01*
G01*
X174950000Y-147300000D02*
G75*
G02*
X175150000Y-147300000I100000J0D01*
G01*
X205150000Y-147300000D02*
G75*
G02*
X204950000Y-147300000I-100000J0D01*
G01*
X204950000Y-147300000D02*
G75*
G02*
X205150000Y-147300000I100000J0D01*
G01*
D15*
X187250000Y-94700000D02*
G75*
G02*
X186750000Y-94700000I-250000J0D01*
G01*
X186750000Y-94700000D02*
G75*
G02*
X187250000Y-94700000I250000J0D01*
G01*
X195250000Y-82700000D02*
G75*
G02*
X194750000Y-82700000I-250000J0D01*
G01*
X194750000Y-82700000D02*
G75*
G02*
X195250000Y-82700000I250000J0D01*
G01*
D13*
X156175000Y-143300000D02*
G75*
G02*
X155925000Y-143300000I-125000J0D01*
G01*
X155925000Y-143300000D02*
G75*
G02*
X156175000Y-143300000I125000J0D01*
G01*
D10*
X176225000Y-115900000D02*
G75*
G02*
X175875000Y-115900000I-175000J0D01*
G01*
X175875000Y-115900000D02*
G75*
G02*
X176225000Y-115900000I175000J0D01*
G01*
D12*
X221125000Y-169300000D02*
G75*
G02*
X220975000Y-169300000I-75000J0D01*
G01*
X220975000Y-169300000D02*
G75*
G02*
X221125000Y-169300000I75000J0D01*
G01*
D14*
X157200000Y-125700000D02*
G75*
G02*
X156900000Y-125700000I-150000J0D01*
G01*
X156900000Y-125700000D02*
G75*
G02*
X157200000Y-125700000I150000J0D01*
G01*
D11*
X236150000Y-147300000D02*
G75*
G02*
X235950000Y-147300000I-100000J0D01*
G01*
X235950000Y-147300000D02*
G75*
G02*
X236150000Y-147300000I100000J0D01*
G01*
D14*
X176200000Y-124300000D02*
G75*
G02*
X175900000Y-124300000I-150000J0D01*
G01*
X175900000Y-124300000D02*
G75*
G02*
X176200000Y-124300000I150000J0D01*
G01*
D12*
X241125000Y-159300000D02*
G75*
G02*
X240975000Y-159300000I-75000J0D01*
G01*
X240975000Y-159300000D02*
G75*
G02*
X241125000Y-159300000I75000J0D01*
G01*
X195125000Y-167300000D02*
G75*
G02*
X194975000Y-167300000I-75000J0D01*
G01*
X194975000Y-167300000D02*
G75*
G02*
X195125000Y-167300000I75000J0D01*
G01*
D14*
X167200000Y-128500000D02*
G75*
G02*
X166900000Y-128500000I-150000J0D01*
G01*
X166900000Y-128500000D02*
G75*
G02*
X167200000Y-128500000I150000J0D01*
G01*
D17*
X186225000Y-101900000D02*
G75*
G02*
X185775000Y-101900000I-225000J0D01*
G01*
X185775000Y-101900000D02*
G75*
G02*
X186225000Y-101900000I225000J0D01*
G01*
D10*
X187225000Y-111700000D02*
G75*
G02*
X186875000Y-111700000I-175000J0D01*
G01*
X186875000Y-111700000D02*
G75*
G02*
X187225000Y-111700000I175000J0D01*
G01*
D13*
X120175000Y-139300000D02*
G75*
G02*
X119925000Y-139300000I-125000J0D01*
G01*
X119925000Y-139300000D02*
G75*
G02*
X120175000Y-139300000I125000J0D01*
G01*
X137175000Y-141300000D02*
G75*
G02*
X136925000Y-141300000I-125000J0D01*
G01*
X136925000Y-141300000D02*
G75*
G02*
X137175000Y-141300000I125000J0D01*
G01*
D10*
X220225000Y-109100000D02*
G75*
G02*
X219875000Y-109100000I-175000J0D01*
G01*
X219875000Y-109100000D02*
G75*
G02*
X220225000Y-109100000I175000J0D01*
G01*
D14*
X195200000Y-129900000D02*
G75*
G02*
X194900000Y-129900000I-150000J0D01*
G01*
X194900000Y-129900000D02*
G75*
G02*
X195200000Y-129900000I150000J0D01*
G01*
D12*
X242125000Y-173300000D02*
G75*
G02*
X241975000Y-173300000I-75000J0D01*
G01*
X241975000Y-173300000D02*
G75*
G02*
X242125000Y-173300000I75000J0D01*
G01*
D15*
X177250000Y-85700000D02*
G75*
G02*
X176750000Y-85700000I-250000J0D01*
G01*
X176750000Y-85700000D02*
G75*
G02*
X177250000Y-85700000I250000J0D01*
G01*
X185250000Y-84700000D02*
G75*
G02*
X184750000Y-84700000I-250000J0D01*
G01*
X184750000Y-84700000D02*
G75*
G02*
X185250000Y-84700000I250000J0D01*
G01*
D13*
X241175000Y-141300000D02*
G75*
G02*
X240925000Y-141300000I-125000J0D01*
G01*
X240925000Y-141300000D02*
G75*
G02*
X241175000Y-141300000I125000J0D01*
G01*
D16*
X157250000Y-106700000D02*
G75*
G02*
X156850000Y-106700000I-200000J0D01*
G01*
X156850000Y-106700000D02*
G75*
G02*
X157250000Y-106700000I200000J0D01*
G01*
D12*
X196125000Y-161300000D02*
G75*
G02*
X195975000Y-161300000I-75000J0D01*
G01*
X195975000Y-161300000D02*
G75*
G02*
X196125000Y-161300000I75000J0D01*
G01*
D10*
X195175000Y-110500000D02*
G75*
G02*
X194825000Y-110500000I-175000J0D01*
G01*
X194825000Y-110500000D02*
G75*
G02*
X195175000Y-110500000I175000J0D01*
G01*
D13*
X236175000Y-133300000D02*
G75*
G02*
X235925000Y-133300000I-125000J0D01*
G01*
X235925000Y-133300000D02*
G75*
G02*
X236175000Y-133300000I125000J0D01*
G01*
X219175000Y-141300000D02*
G75*
G02*
X218925000Y-141300000I-125000J0D01*
G01*
X218925000Y-141300000D02*
G75*
G02*
X219175000Y-141300000I125000J0D01*
G01*
D17*
X177275000Y-105500000D02*
G75*
G02*
X176825000Y-105500000I-225000J0D01*
G01*
X176825000Y-105500000D02*
G75*
G02*
X177275000Y-105500000I225000J0D01*
G01*
D12*
X220125000Y-165300000D02*
G75*
G02*
X219975000Y-165300000I-75000J0D01*
G01*
X219975000Y-165300000D02*
G75*
G02*
X220125000Y-165300000I75000J0D01*
G01*
D11*
X156150000Y-147300000D02*
G75*
G02*
X155950000Y-147300000I-100000J0D01*
G01*
X155950000Y-147300000D02*
G75*
G02*
X156150000Y-147300000I100000J0D01*
G01*
D17*
X150275000Y-105500000D02*
G75*
G02*
X149825000Y-105500000I-225000J0D01*
G01*
X149825000Y-105500000D02*
G75*
G02*
X150275000Y-105500000I225000J0D01*
G01*
D15*
X196250000Y-95700000D02*
G75*
G02*
X195750000Y-95700000I-250000J0D01*
G01*
X195750000Y-95700000D02*
G75*
G02*
X196250000Y-95700000I250000J0D01*
G01*
D14*
X120200000Y-120100000D02*
G75*
G02*
X119900000Y-120100000I-150000J0D01*
G01*
X119900000Y-120100000D02*
G75*
G02*
X120200000Y-120100000I150000J0D01*
G01*
D13*
X176175000Y-141300000D02*
G75*
G02*
X175925000Y-141300000I-125000J0D01*
G01*
X175925000Y-141300000D02*
G75*
G02*
X176175000Y-141300000I125000J0D01*
G01*
D17*
X205225000Y-103100000D02*
G75*
G02*
X204775000Y-103100000I-225000J0D01*
G01*
X204775000Y-103100000D02*
G75*
G02*
X205225000Y-103100000I225000J0D01*
G01*
D14*
X128200000Y-121500000D02*
G75*
G02*
X127900000Y-121500000I-150000J0D01*
G01*
X127900000Y-121500000D02*
G75*
G02*
X128200000Y-121500000I150000J0D01*
G01*
D12*
X242125000Y-171300000D02*
G75*
G02*
X241975000Y-171300000I-75000J0D01*
G01*
X241975000Y-171300000D02*
G75*
G02*
X242125000Y-171300000I75000J0D01*
G01*
D13*
X128175000Y-131600000D02*
G75*
G02*
X127925000Y-131600000I-125000J0D01*
G01*
X127925000Y-131600000D02*
G75*
G02*
X128175000Y-131600000I125000J0D01*
G01*
D11*
X196150000Y-147300000D02*
G75*
G02*
X195950000Y-147300000I-100000J0D01*
G01*
X195950000Y-147300000D02*
G75*
G02*
X196150000Y-147300000I100000J0D01*
G01*
D15*
X176250000Y-86700000D02*
G75*
G02*
X175750000Y-86700000I-250000J0D01*
G01*
X175750000Y-86700000D02*
G75*
G02*
X176250000Y-86700000I250000J0D01*
G01*
D10*
X119225000Y-114500000D02*
G75*
G02*
X118875000Y-114500000I-175000J0D01*
G01*
X118875000Y-114500000D02*
G75*
G02*
X119225000Y-114500000I175000J0D01*
G01*
D15*
X206250000Y-98700000D02*
G75*
G02*
X205750000Y-98700000I-250000J0D01*
G01*
X205750000Y-98700000D02*
G75*
G02*
X206250000Y-98700000I250000J0D01*
G01*
D12*
X220125000Y-159300000D02*
G75*
G02*
X219975000Y-159300000I-75000J0D01*
G01*
X219975000Y-159300000D02*
G75*
G02*
X220125000Y-159300000I75000J0D01*
G01*
X219125000Y-175300000D02*
G75*
G02*
X218975000Y-175300000I-75000J0D01*
G01*
X218975000Y-175300000D02*
G75*
G02*
X219125000Y-175300000I75000J0D01*
G01*
D15*
X139250000Y-98700000D02*
G75*
G02*
X138750000Y-98700000I-250000J0D01*
G01*
X138750000Y-98700000D02*
G75*
G02*
X139250000Y-98700000I250000J0D01*
G01*
D14*
X138200000Y-124300000D02*
G75*
G02*
X137900000Y-124300000I-150000J0D01*
G01*
X137900000Y-124300000D02*
G75*
G02*
X138200000Y-124300000I150000J0D01*
G01*
D15*
X137250000Y-100700000D02*
G75*
G02*
X136750000Y-100700000I-250000J0D01*
G01*
X136750000Y-100700000D02*
G75*
G02*
X137250000Y-100700000I250000J0D01*
G01*
X156250000Y-92700000D02*
G75*
G02*
X155750000Y-92700000I-250000J0D01*
G01*
X155750000Y-92700000D02*
G75*
G02*
X156250000Y-92700000I250000J0D01*
G01*
D14*
X219200000Y-129900000D02*
G75*
G02*
X218900000Y-129900000I-150000J0D01*
G01*
X218900000Y-129900000D02*
G75*
G02*
X219200000Y-129900000I150000J0D01*
G01*
D12*
X219125000Y-159300000D02*
G75*
G02*
X218975000Y-159300000I-75000J0D01*
G01*
X218975000Y-159300000D02*
G75*
G02*
X219125000Y-159300000I75000J0D01*
G01*
D14*
X165200000Y-128500000D02*
G75*
G02*
X164900000Y-128500000I-150000J0D01*
G01*
X164900000Y-128500000D02*
G75*
G02*
X165200000Y-128500000I150000J0D01*
G01*
D10*
X175225000Y-110300000D02*
G75*
G02*
X174875000Y-110300000I-175000J0D01*
G01*
X174875000Y-110300000D02*
G75*
G02*
X175225000Y-110300000I175000J0D01*
G01*
D12*
X242125000Y-163300000D02*
G75*
G02*
X241975000Y-163300000I-75000J0D01*
G01*
X241975000Y-163300000D02*
G75*
G02*
X242125000Y-163300000I75000J0D01*
G01*
D11*
X241150000Y-149300000D02*
G75*
G02*
X240950000Y-149300000I-100000J0D01*
G01*
X240950000Y-149300000D02*
G75*
G02*
X241150000Y-149300000I100000J0D01*
G01*
D15*
X175250000Y-82700000D02*
G75*
G02*
X174750000Y-82700000I-250000J0D01*
G01*
X174750000Y-82700000D02*
G75*
G02*
X175250000Y-82700000I250000J0D01*
G01*
D13*
X196175000Y-131600000D02*
G75*
G02*
X195925000Y-131600000I-125000J0D01*
G01*
X195925000Y-131600000D02*
G75*
G02*
X196175000Y-131600000I125000J0D01*
G01*
D17*
X175225000Y-104300000D02*
G75*
G02*
X174775000Y-104300000I-225000J0D01*
G01*
X174775000Y-104300000D02*
G75*
G02*
X175225000Y-104300000I225000J0D01*
G01*
D14*
X137200000Y-127100000D02*
G75*
G02*
X136900000Y-127100000I-150000J0D01*
G01*
X136900000Y-127100000D02*
G75*
G02*
X137200000Y-127100000I150000J0D01*
G01*
D15*
X176250000Y-81700000D02*
G75*
G02*
X175750000Y-81700000I-250000J0D01*
G01*
X175750000Y-81700000D02*
G75*
G02*
X176250000Y-81700000I250000J0D01*
G01*
D17*
X157225000Y-101900000D02*
G75*
G02*
X156775000Y-101900000I-225000J0D01*
G01*
X156775000Y-101900000D02*
G75*
G02*
X157225000Y-101900000I225000J0D01*
G01*
D12*
X119125000Y-159300000D02*
G75*
G02*
X118975000Y-159300000I-75000J0D01*
G01*
X118975000Y-159300000D02*
G75*
G02*
X119125000Y-159300000I75000J0D01*
G01*
D15*
X205250000Y-92700000D02*
G75*
G02*
X204750000Y-92700000I-250000J0D01*
G01*
X204750000Y-92700000D02*
G75*
G02*
X205250000Y-92700000I250000J0D01*
G01*
X195250000Y-85700000D02*
G75*
G02*
X194750000Y-85700000I-250000J0D01*
G01*
X194750000Y-85700000D02*
G75*
G02*
X195250000Y-85700000I250000J0D01*
G01*
D11*
X127150000Y-151300000D02*
G75*
G02*
X126950000Y-151300000I-100000J0D01*
G01*
X126950000Y-151300000D02*
G75*
G02*
X127150000Y-151300000I100000J0D01*
G01*
D14*
X176200000Y-128500000D02*
G75*
G02*
X175900000Y-128500000I-150000J0D01*
G01*
X175900000Y-128500000D02*
G75*
G02*
X176200000Y-128500000I150000J0D01*
G01*
D15*
X195250000Y-84700000D02*
G75*
G02*
X194750000Y-84700000I-250000J0D01*
G01*
X194750000Y-84700000D02*
G75*
G02*
X195250000Y-84700000I250000J0D01*
G01*
D14*
X218200000Y-124300000D02*
G75*
G02*
X217900000Y-124300000I-150000J0D01*
G01*
X217900000Y-124300000D02*
G75*
G02*
X218200000Y-124300000I150000J0D01*
G01*
D11*
X119150000Y-155300000D02*
G75*
G02*
X118950000Y-155300000I-100000J0D01*
G01*
X118950000Y-155300000D02*
G75*
G02*
X119150000Y-155300000I100000J0D01*
G01*
D15*
X195250000Y-81700000D02*
G75*
G02*
X194750000Y-81700000I-250000J0D01*
G01*
X194750000Y-81700000D02*
G75*
G02*
X195250000Y-81700000I250000J0D01*
G01*
D17*
X165225000Y-103100000D02*
G75*
G02*
X164775000Y-103100000I-225000J0D01*
G01*
X164775000Y-103100000D02*
G75*
G02*
X165225000Y-103100000I225000J0D01*
G01*
D16*
X120250000Y-106700000D02*
G75*
G02*
X119850000Y-106700000I-200000J0D01*
G01*
X119850000Y-106700000D02*
G75*
G02*
X120250000Y-106700000I200000J0D01*
G01*
D14*
X203200000Y-128500000D02*
G75*
G02*
X202900000Y-128500000I-150000J0D01*
G01*
X202900000Y-128500000D02*
G75*
G02*
X203200000Y-128500000I150000J0D01*
G01*
D15*
X187250000Y-87700000D02*
G75*
G02*
X186750000Y-87700000I-250000J0D01*
G01*
X186750000Y-87700000D02*
G75*
G02*
X187250000Y-87700000I250000J0D01*
G01*
D11*
X119150000Y-153300000D02*
G75*
G02*
X118950000Y-153300000I-100000J0D01*
G01*
X118950000Y-153300000D02*
G75*
G02*
X119150000Y-153300000I100000J0D01*
G01*
D17*
X137275000Y-105500000D02*
G75*
G02*
X136825000Y-105500000I-225000J0D01*
G01*
X136825000Y-105500000D02*
G75*
G02*
X137275000Y-105500000I225000J0D01*
G01*
D15*
X156250000Y-91700000D02*
G75*
G02*
X155750000Y-91700000I-250000J0D01*
G01*
X155750000Y-91700000D02*
G75*
G02*
X156250000Y-91700000I250000J0D01*
G01*
X165250000Y-90700000D02*
G75*
G02*
X164750000Y-90700000I-250000J0D01*
G01*
X164750000Y-90700000D02*
G75*
G02*
X165250000Y-90700000I250000J0D01*
G01*
D13*
X236175000Y-143300000D02*
G75*
G02*
X235925000Y-143300000I-125000J0D01*
G01*
X235925000Y-143300000D02*
G75*
G02*
X236175000Y-143300000I125000J0D01*
G01*
D10*
X137225000Y-109100000D02*
G75*
G02*
X136875000Y-109100000I-175000J0D01*
G01*
X136875000Y-109100000D02*
G75*
G02*
X137225000Y-109100000I175000J0D01*
G01*
D14*
X136200000Y-128500000D02*
G75*
G02*
X135900000Y-128500000I-150000J0D01*
G01*
X135900000Y-128500000D02*
G75*
G02*
X136200000Y-128500000I150000J0D01*
G01*
D13*
X157175000Y-143300000D02*
G75*
G02*
X156925000Y-143300000I-125000J0D01*
G01*
X156925000Y-143300000D02*
G75*
G02*
X157175000Y-143300000I125000J0D01*
G01*
D15*
X175250000Y-87700000D02*
G75*
G02*
X174750000Y-87700000I-250000J0D01*
G01*
X174750000Y-87700000D02*
G75*
G02*
X175250000Y-87700000I250000J0D01*
G01*
D12*
X236125000Y-161300000D02*
G75*
G02*
X235975000Y-161300000I-75000J0D01*
G01*
X235975000Y-161300000D02*
G75*
G02*
X236125000Y-161300000I75000J0D01*
G01*
X241125000Y-171300000D02*
G75*
G02*
X240975000Y-171300000I-75000J0D01*
G01*
X240975000Y-171300000D02*
G75*
G02*
X241125000Y-171300000I75000J0D01*
G01*
D11*
X195150000Y-147300000D02*
G75*
G02*
X194950000Y-147300000I-100000J0D01*
G01*
X194950000Y-147300000D02*
G75*
G02*
X195150000Y-147300000I100000J0D01*
G01*
X205150000Y-145300000D02*
G75*
G02*
X204950000Y-145300000I-100000J0D01*
G01*
X204950000Y-145300000D02*
G75*
G02*
X205150000Y-145300000I100000J0D01*
G01*
D15*
X177250000Y-99700000D02*
G75*
G02*
X176750000Y-99700000I-250000J0D01*
G01*
X176750000Y-99700000D02*
G75*
G02*
X177250000Y-99700000I250000J0D01*
G01*
D11*
X220150000Y-157300000D02*
G75*
G02*
X219950000Y-157300000I-100000J0D01*
G01*
X219950000Y-157300000D02*
G75*
G02*
X220150000Y-157300000I100000J0D01*
G01*
D15*
X157250000Y-99700000D02*
G75*
G02*
X156750000Y-99700000I-250000J0D01*
G01*
X156750000Y-99700000D02*
G75*
G02*
X157250000Y-99700000I250000J0D01*
G01*
D17*
X120225000Y-103100000D02*
G75*
G02*
X119775000Y-103100000I-225000J0D01*
G01*
X119775000Y-103100000D02*
G75*
G02*
X120225000Y-103100000I225000J0D01*
G01*
D15*
X148250000Y-99700000D02*
G75*
G02*
X147750000Y-99700000I-250000J0D01*
G01*
X147750000Y-99700000D02*
G75*
G02*
X148250000Y-99700000I250000J0D01*
G01*
X175250000Y-92700000D02*
G75*
G02*
X174750000Y-92700000I-250000J0D01*
G01*
X174750000Y-92700000D02*
G75*
G02*
X175250000Y-92700000I250000J0D01*
G01*
D11*
X157150000Y-151300000D02*
G75*
G02*
X156950000Y-151300000I-100000J0D01*
G01*
X156950000Y-151300000D02*
G75*
G02*
X157150000Y-151300000I100000J0D01*
G01*
D17*
X206225000Y-103100000D02*
G75*
G02*
X205775000Y-103100000I-225000J0D01*
G01*
X205775000Y-103100000D02*
G75*
G02*
X206225000Y-103100000I225000J0D01*
G01*
D12*
X196125000Y-163300000D02*
G75*
G02*
X195975000Y-163300000I-75000J0D01*
G01*
X195975000Y-163300000D02*
G75*
G02*
X196125000Y-163300000I75000J0D01*
G01*
D13*
X119175000Y-137300000D02*
G75*
G02*
X118925000Y-137300000I-125000J0D01*
G01*
X118925000Y-137300000D02*
G75*
G02*
X119175000Y-137300000I125000J0D01*
G01*
D10*
X218225000Y-113100000D02*
G75*
G02*
X217875000Y-113100000I-175000J0D01*
G01*
X217875000Y-113100000D02*
G75*
G02*
X218225000Y-113100000I175000J0D01*
G01*
D13*
X156175000Y-137300000D02*
G75*
G02*
X155925000Y-137300000I-125000J0D01*
G01*
X155925000Y-137300000D02*
G75*
G02*
X156175000Y-137300000I125000J0D01*
G01*
D15*
X175250000Y-86700000D02*
G75*
G02*
X174750000Y-86700000I-250000J0D01*
G01*
X174750000Y-86700000D02*
G75*
G02*
X175250000Y-86700000I250000J0D01*
G01*
D10*
X157225000Y-114500000D02*
G75*
G02*
X156875000Y-114500000I-175000J0D01*
G01*
X156875000Y-114500000D02*
G75*
G02*
X157225000Y-114500000I175000J0D01*
G01*
D13*
X175175000Y-143300000D02*
G75*
G02*
X174925000Y-143300000I-125000J0D01*
G01*
X174925000Y-143300000D02*
G75*
G02*
X175175000Y-143300000I125000J0D01*
G01*
D10*
X166225000Y-114500000D02*
G75*
G02*
X165875000Y-114500000I-175000J0D01*
G01*
X165875000Y-114500000D02*
G75*
G02*
X166225000Y-114500000I175000J0D01*
G01*
D13*
X139175000Y-135300000D02*
G75*
G02*
X138925000Y-135300000I-125000J0D01*
G01*
X138925000Y-135300000D02*
G75*
G02*
X139175000Y-135300000I125000J0D01*
G01*
D12*
X220125000Y-181300000D02*
G75*
G02*
X219975000Y-181300000I-75000J0D01*
G01*
X219975000Y-181300000D02*
G75*
G02*
X220125000Y-181300000I75000J0D01*
G01*
D10*
X206225000Y-115900000D02*
G75*
G02*
X205875000Y-115900000I-175000J0D01*
G01*
X205875000Y-115900000D02*
G75*
G02*
X206225000Y-115900000I175000J0D01*
G01*
D11*
X120150000Y-151300000D02*
G75*
G02*
X119950000Y-151300000I-100000J0D01*
G01*
X119950000Y-151300000D02*
G75*
G02*
X120150000Y-151300000I100000J0D01*
G01*
D14*
X185200000Y-120100000D02*
G75*
G02*
X184900000Y-120100000I-150000J0D01*
G01*
X184900000Y-120100000D02*
G75*
G02*
X185200000Y-120100000I150000J0D01*
G01*
D12*
X243125000Y-171300000D02*
G75*
G02*
X242975000Y-171300000I-75000J0D01*
G01*
X242975000Y-171300000D02*
G75*
G02*
X243125000Y-171300000I75000J0D01*
G01*
X241125000Y-169300000D02*
G75*
G02*
X240975000Y-169300000I-75000J0D01*
G01*
X240975000Y-169300000D02*
G75*
G02*
X241125000Y-169300000I75000J0D01*
G01*
D15*
X157250000Y-96700000D02*
G75*
G02*
X156750000Y-96700000I-250000J0D01*
G01*
X156750000Y-96700000D02*
G75*
G02*
X157250000Y-96700000I250000J0D01*
G01*
D12*
X235125000Y-161300000D02*
G75*
G02*
X234975000Y-161300000I-75000J0D01*
G01*
X234975000Y-161300000D02*
G75*
G02*
X235125000Y-161300000I75000J0D01*
G01*
X234125000Y-163300000D02*
G75*
G02*
X233975000Y-163300000I-75000J0D01*
G01*
X233975000Y-163300000D02*
G75*
G02*
X234125000Y-163300000I75000J0D01*
G01*
D15*
X206250000Y-93700000D02*
G75*
G02*
X205750000Y-93700000I-250000J0D01*
G01*
X205750000Y-93700000D02*
G75*
G02*
X206250000Y-93700000I250000J0D01*
G01*
D10*
X205225000Y-110300000D02*
G75*
G02*
X204875000Y-110300000I-175000J0D01*
G01*
X204875000Y-110300000D02*
G75*
G02*
X205225000Y-110300000I175000J0D01*
G01*
D17*
X156225000Y-101900000D02*
G75*
G02*
X155775000Y-101900000I-225000J0D01*
G01*
X155775000Y-101900000D02*
G75*
G02*
X156225000Y-101900000I225000J0D01*
G01*
X149275000Y-105500000D02*
G75*
G02*
X148825000Y-105500000I-225000J0D01*
G01*
X148825000Y-105500000D02*
G75*
G02*
X149275000Y-105500000I225000J0D01*
G01*
D10*
X157225000Y-113100000D02*
G75*
G02*
X156875000Y-113100000I-175000J0D01*
G01*
X156875000Y-113100000D02*
G75*
G02*
X157225000Y-113100000I175000J0D01*
G01*
D13*
X139175000Y-133300000D02*
G75*
G02*
X138925000Y-133300000I-125000J0D01*
G01*
X138925000Y-133300000D02*
G75*
G02*
X139175000Y-133300000I125000J0D01*
G01*
D10*
X127225000Y-114500000D02*
G75*
G02*
X126875000Y-114500000I-175000J0D01*
G01*
X126875000Y-114500000D02*
G75*
G02*
X127225000Y-114500000I175000J0D01*
G01*
D15*
X195250000Y-87700000D02*
G75*
G02*
X194750000Y-87700000I-250000J0D01*
G01*
X194750000Y-87700000D02*
G75*
G02*
X195250000Y-87700000I250000J0D01*
G01*
X204250000Y-91700000D02*
G75*
G02*
X203750000Y-91700000I-250000J0D01*
G01*
X203750000Y-91700000D02*
G75*
G02*
X204250000Y-91700000I250000J0D01*
G01*
D13*
X127175000Y-131600000D02*
G75*
G02*
X126925000Y-131600000I-125000J0D01*
G01*
X126925000Y-131600000D02*
G75*
G02*
X127175000Y-131600000I125000J0D01*
G01*
D12*
X119125000Y-171300000D02*
G75*
G02*
X118975000Y-171300000I-75000J0D01*
G01*
X118975000Y-171300000D02*
G75*
G02*
X119125000Y-171300000I75000J0D01*
G01*
X243125000Y-179300000D02*
G75*
G02*
X242975000Y-179300000I-75000J0D01*
G01*
X242975000Y-179300000D02*
G75*
G02*
X243125000Y-179300000I75000J0D01*
G01*
D15*
X187250000Y-88700000D02*
G75*
G02*
X186750000Y-88700000I-250000J0D01*
G01*
X186750000Y-88700000D02*
G75*
G02*
X187250000Y-88700000I250000J0D01*
G01*
D14*
X149200000Y-118700000D02*
G75*
G02*
X148900000Y-118700000I-150000J0D01*
G01*
X148900000Y-118700000D02*
G75*
G02*
X149200000Y-118700000I150000J0D01*
G01*
D15*
X176250000Y-83700000D02*
G75*
G02*
X175750000Y-83700000I-250000J0D01*
G01*
X175750000Y-83700000D02*
G75*
G02*
X176250000Y-83700000I250000J0D01*
G01*
D10*
X205225000Y-115900000D02*
G75*
G02*
X204875000Y-115900000I-175000J0D01*
G01*
X204875000Y-115900000D02*
G75*
G02*
X205225000Y-115900000I175000J0D01*
G01*
D12*
X220125000Y-171300000D02*
G75*
G02*
X219975000Y-171300000I-75000J0D01*
G01*
X219975000Y-171300000D02*
G75*
G02*
X220125000Y-171300000I75000J0D01*
G01*
D10*
X157225000Y-109100000D02*
G75*
G02*
X156875000Y-109100000I-175000J0D01*
G01*
X156875000Y-109100000D02*
G75*
G02*
X157225000Y-109100000I175000J0D01*
G01*
D14*
X137200000Y-121500000D02*
G75*
G02*
X136900000Y-121500000I-150000J0D01*
G01*
X136900000Y-121500000D02*
G75*
G02*
X137200000Y-121500000I150000J0D01*
G01*
D11*
X119150000Y-149300000D02*
G75*
G02*
X118950000Y-149300000I-100000J0D01*
G01*
X118950000Y-149300000D02*
G75*
G02*
X119150000Y-149300000I100000J0D01*
G01*
D12*
X243125000Y-159300000D02*
G75*
G02*
X242975000Y-159300000I-75000J0D01*
G01*
X242975000Y-159300000D02*
G75*
G02*
X243125000Y-159300000I75000J0D01*
G01*
D13*
X139175000Y-139300000D02*
G75*
G02*
X138925000Y-139300000I-125000J0D01*
G01*
X138925000Y-139300000D02*
G75*
G02*
X139175000Y-139300000I125000J0D01*
G01*
D12*
X219125000Y-173300000D02*
G75*
G02*
X218975000Y-173300000I-75000J0D01*
G01*
X218975000Y-173300000D02*
G75*
G02*
X219125000Y-173300000I75000J0D01*
G01*
D15*
X203250000Y-91700000D02*
G75*
G02*
X202750000Y-91700000I-250000J0D01*
G01*
X202750000Y-91700000D02*
G75*
G02*
X203250000Y-91700000I250000J0D01*
G01*
D13*
X128175000Y-141300000D02*
G75*
G02*
X127925000Y-141300000I-125000J0D01*
G01*
X127925000Y-141300000D02*
G75*
G02*
X128175000Y-141300000I125000J0D01*
G01*
D11*
X204150000Y-145300000D02*
G75*
G02*
X203950000Y-145300000I-100000J0D01*
G01*
X203950000Y-145300000D02*
G75*
G02*
X204150000Y-145300000I100000J0D01*
G01*
D15*
X196250000Y-83700000D02*
G75*
G02*
X195750000Y-83700000I-250000J0D01*
G01*
X195750000Y-83700000D02*
G75*
G02*
X196250000Y-83700000I250000J0D01*
G01*
D17*
X220275000Y-105500000D02*
G75*
G02*
X219825000Y-105500000I-225000J0D01*
G01*
X219825000Y-105500000D02*
G75*
G02*
X220275000Y-105500000I225000J0D01*
G01*
D11*
X236150000Y-145300000D02*
G75*
G02*
X235950000Y-145300000I-100000J0D01*
G01*
X235950000Y-145300000D02*
G75*
G02*
X236150000Y-145300000I100000J0D01*
G01*
D13*
X128175000Y-135300000D02*
G75*
G02*
X127925000Y-135300000I-125000J0D01*
G01*
X127925000Y-135300000D02*
G75*
G02*
X128175000Y-135300000I125000J0D01*
G01*
D15*
X175250000Y-98700000D02*
G75*
G02*
X174750000Y-98700000I-250000J0D01*
G01*
X174750000Y-98700000D02*
G75*
G02*
X175250000Y-98700000I250000J0D01*
G01*
X177250000Y-89700000D02*
G75*
G02*
X176750000Y-89700000I-250000J0D01*
G01*
X176750000Y-89700000D02*
G75*
G02*
X177250000Y-89700000I250000J0D01*
G01*
D16*
X195250000Y-107900000D02*
G75*
G02*
X194850000Y-107900000I-200000J0D01*
G01*
X194850000Y-107900000D02*
G75*
G02*
X195250000Y-107900000I200000J0D01*
G01*
D14*
X217200000Y-129900000D02*
G75*
G02*
X216900000Y-129900000I-150000J0D01*
G01*
X216900000Y-129900000D02*
G75*
G02*
X217200000Y-129900000I150000J0D01*
G01*
D10*
X137225000Y-114500000D02*
G75*
G02*
X136875000Y-114500000I-175000J0D01*
G01*
X136875000Y-114500000D02*
G75*
G02*
X137225000Y-114500000I175000J0D01*
G01*
D12*
X236125000Y-171300000D02*
G75*
G02*
X235975000Y-171300000I-75000J0D01*
G01*
X235975000Y-171300000D02*
G75*
G02*
X236125000Y-171300000I75000J0D01*
G01*
D14*
X185200000Y-122900000D02*
G75*
G02*
X184900000Y-122900000I-150000J0D01*
G01*
X184900000Y-122900000D02*
G75*
G02*
X185200000Y-122900000I150000J0D01*
G01*
D11*
X158150000Y-145300000D02*
G75*
G02*
X157950000Y-145300000I-100000J0D01*
G01*
X157950000Y-145300000D02*
G75*
G02*
X158150000Y-145300000I100000J0D01*
G01*
D12*
X234125000Y-165300000D02*
G75*
G02*
X233975000Y-165300000I-75000J0D01*
G01*
X233975000Y-165300000D02*
G75*
G02*
X234125000Y-165300000I75000J0D01*
G01*
X219125000Y-169300000D02*
G75*
G02*
X218975000Y-169300000I-75000J0D01*
G01*
X218975000Y-169300000D02*
G75*
G02*
X219125000Y-169300000I75000J0D01*
G01*
D10*
X166225000Y-115900000D02*
G75*
G02*
X165875000Y-115900000I-175000J0D01*
G01*
X165875000Y-115900000D02*
G75*
G02*
X166225000Y-115900000I175000J0D01*
G01*
D15*
X176250000Y-85700000D02*
G75*
G02*
X175750000Y-85700000I-250000J0D01*
G01*
X175750000Y-85700000D02*
G75*
G02*
X176250000Y-85700000I250000J0D01*
G01*
X204250000Y-90700000D02*
G75*
G02*
X203750000Y-90700000I-250000J0D01*
G01*
X203750000Y-90700000D02*
G75*
G02*
X204250000Y-90700000I250000J0D01*
G01*
X186250000Y-83700000D02*
G75*
G02*
X185750000Y-83700000I-250000J0D01*
G01*
X185750000Y-83700000D02*
G75*
G02*
X186250000Y-83700000I250000J0D01*
G01*
D12*
X219125000Y-165300000D02*
G75*
G02*
X218975000Y-165300000I-75000J0D01*
G01*
X218975000Y-165300000D02*
G75*
G02*
X219125000Y-165300000I75000J0D01*
G01*
D15*
X177250000Y-86700000D02*
G75*
G02*
X176750000Y-86700000I-250000J0D01*
G01*
X176750000Y-86700000D02*
G75*
G02*
X177250000Y-86700000I250000J0D01*
G01*
X156250000Y-95700000D02*
G75*
G02*
X155750000Y-95700000I-250000J0D01*
G01*
X155750000Y-95700000D02*
G75*
G02*
X156250000Y-95700000I250000J0D01*
G01*
D14*
X148200000Y-121500000D02*
G75*
G02*
X147900000Y-121500000I-150000J0D01*
G01*
X147900000Y-121500000D02*
G75*
G02*
X148200000Y-121500000I150000J0D01*
G01*
D13*
X220175000Y-135300000D02*
G75*
G02*
X219925000Y-135300000I-125000J0D01*
G01*
X219925000Y-135300000D02*
G75*
G02*
X220175000Y-135300000I125000J0D01*
G01*
D14*
X137200000Y-128500000D02*
G75*
G02*
X136900000Y-128500000I-150000J0D01*
G01*
X136900000Y-128500000D02*
G75*
G02*
X137200000Y-128500000I150000J0D01*
G01*
D13*
X195175000Y-135300000D02*
G75*
G02*
X194925000Y-135300000I-125000J0D01*
G01*
X194925000Y-135300000D02*
G75*
G02*
X195175000Y-135300000I125000J0D01*
G01*
D15*
X150250000Y-98700000D02*
G75*
G02*
X149750000Y-98700000I-250000J0D01*
G01*
X149750000Y-98700000D02*
G75*
G02*
X150250000Y-98700000I250000J0D01*
G01*
X177250000Y-100700000D02*
G75*
G02*
X176750000Y-100700000I-250000J0D01*
G01*
X176750000Y-100700000D02*
G75*
G02*
X177250000Y-100700000I250000J0D01*
G01*
D11*
X127150000Y-147300000D02*
G75*
G02*
X126950000Y-147300000I-100000J0D01*
G01*
X126950000Y-147300000D02*
G75*
G02*
X127150000Y-147300000I100000J0D01*
G01*
D10*
X127225000Y-110300000D02*
G75*
G02*
X126875000Y-110300000I-175000J0D01*
G01*
X126875000Y-110300000D02*
G75*
G02*
X127225000Y-110300000I175000J0D01*
G01*
D17*
X137225000Y-104300000D02*
G75*
G02*
X136775000Y-104300000I-225000J0D01*
G01*
X136775000Y-104300000D02*
G75*
G02*
X137225000Y-104300000I225000J0D01*
G01*
D11*
X235150000Y-153300000D02*
G75*
G02*
X234950000Y-153300000I-100000J0D01*
G01*
X234950000Y-153300000D02*
G75*
G02*
X235150000Y-153300000I100000J0D01*
G01*
D13*
X236175000Y-141300000D02*
G75*
G02*
X235925000Y-141300000I-125000J0D01*
G01*
X235925000Y-141300000D02*
G75*
G02*
X236175000Y-141300000I125000J0D01*
G01*
D17*
X120225000Y-101900000D02*
G75*
G02*
X119775000Y-101900000I-225000J0D01*
G01*
X119775000Y-101900000D02*
G75*
G02*
X120225000Y-101900000I225000J0D01*
G01*
D15*
X177250000Y-81700000D02*
G75*
G02*
X176750000Y-81700000I-250000J0D01*
G01*
X176750000Y-81700000D02*
G75*
G02*
X177250000Y-81700000I250000J0D01*
G01*
D10*
X120225000Y-117300000D02*
G75*
G02*
X119875000Y-117300000I-175000J0D01*
G01*
X119875000Y-117300000D02*
G75*
G02*
X120225000Y-117300000I175000J0D01*
G01*
D12*
X243125000Y-175300000D02*
G75*
G02*
X242975000Y-175300000I-75000J0D01*
G01*
X242975000Y-175300000D02*
G75*
G02*
X243125000Y-175300000I75000J0D01*
G01*
D14*
X219200000Y-122900000D02*
G75*
G02*
X218900000Y-122900000I-150000J0D01*
G01*
X218900000Y-122900000D02*
G75*
G02*
X219200000Y-122900000I150000J0D01*
G01*
D11*
X196150000Y-151300000D02*
G75*
G02*
X195950000Y-151300000I-100000J0D01*
G01*
X195950000Y-151300000D02*
G75*
G02*
X196150000Y-151300000I100000J0D01*
G01*
X217150000Y-147300000D02*
G75*
G02*
X216950000Y-147300000I-100000J0D01*
G01*
X216950000Y-147300000D02*
G75*
G02*
X217150000Y-147300000I100000J0D01*
G01*
D13*
X235175000Y-133300000D02*
G75*
G02*
X234925000Y-133300000I-125000J0D01*
G01*
X234925000Y-133300000D02*
G75*
G02*
X235175000Y-133300000I125000J0D01*
G01*
D11*
X242150000Y-157300000D02*
G75*
G02*
X241950000Y-157300000I-100000J0D01*
G01*
X241950000Y-157300000D02*
G75*
G02*
X242150000Y-157300000I100000J0D01*
G01*
D12*
X242125000Y-159300000D02*
G75*
G02*
X241975000Y-159300000I-75000J0D01*
G01*
X241975000Y-159300000D02*
G75*
G02*
X242125000Y-159300000I75000J0D01*
G01*
D13*
X167175000Y-133300000D02*
G75*
G02*
X166925000Y-133300000I-125000J0D01*
G01*
X166925000Y-133300000D02*
G75*
G02*
X167175000Y-133300000I125000J0D01*
G01*
D10*
X195225000Y-113100000D02*
G75*
G02*
X194875000Y-113100000I-175000J0D01*
G01*
X194875000Y-113100000D02*
G75*
G02*
X195225000Y-113100000I175000J0D01*
G01*
D11*
X157150000Y-147300000D02*
G75*
G02*
X156950000Y-147300000I-100000J0D01*
G01*
X156950000Y-147300000D02*
G75*
G02*
X157150000Y-147300000I100000J0D01*
G01*
D15*
X206250000Y-97700000D02*
G75*
G02*
X205750000Y-97700000I-250000J0D01*
G01*
X205750000Y-97700000D02*
G75*
G02*
X206250000Y-97700000I250000J0D01*
G01*
D17*
X136225000Y-104300000D02*
G75*
G02*
X135775000Y-104300000I-225000J0D01*
G01*
X135775000Y-104300000D02*
G75*
G02*
X136225000Y-104300000I225000J0D01*
G01*
D14*
X136200000Y-118700000D02*
G75*
G02*
X135900000Y-118700000I-150000J0D01*
G01*
X135900000Y-118700000D02*
G75*
G02*
X136200000Y-118700000I150000J0D01*
G01*
D15*
X166250000Y-90700000D02*
G75*
G02*
X165750000Y-90700000I-250000J0D01*
G01*
X165750000Y-90700000D02*
G75*
G02*
X166250000Y-90700000I250000J0D01*
G01*
D13*
X219175000Y-133300000D02*
G75*
G02*
X218925000Y-133300000I-125000J0D01*
G01*
X218925000Y-133300000D02*
G75*
G02*
X219175000Y-133300000I125000J0D01*
G01*
D14*
X119200000Y-127100000D02*
G75*
G02*
X118900000Y-127100000I-150000J0D01*
G01*
X118900000Y-127100000D02*
G75*
G02*
X119200000Y-127100000I150000J0D01*
G01*
D12*
X241125000Y-165300000D02*
G75*
G02*
X240975000Y-165300000I-75000J0D01*
G01*
X240975000Y-165300000D02*
G75*
G02*
X241125000Y-165300000I75000J0D01*
G01*
D14*
X195200000Y-128500000D02*
G75*
G02*
X194900000Y-128500000I-150000J0D01*
G01*
X194900000Y-128500000D02*
G75*
G02*
X195200000Y-128500000I150000J0D01*
G01*
X136200000Y-122900000D02*
G75*
G02*
X135900000Y-122900000I-150000J0D01*
G01*
X135900000Y-122900000D02*
G75*
G02*
X136200000Y-122900000I150000J0D01*
G01*
D11*
X156150000Y-145300000D02*
G75*
G02*
X155950000Y-145300000I-100000J0D01*
G01*
X155950000Y-145300000D02*
G75*
G02*
X156150000Y-145300000I100000J0D01*
G01*
D15*
X165250000Y-97700000D02*
G75*
G02*
X164750000Y-97700000I-250000J0D01*
G01*
X164750000Y-97700000D02*
G75*
G02*
X165250000Y-97700000I250000J0D01*
G01*
X187250000Y-84700000D02*
G75*
G02*
X186750000Y-84700000I-250000J0D01*
G01*
X186750000Y-84700000D02*
G75*
G02*
X187250000Y-84700000I250000J0D01*
G01*
X157250000Y-100700000D02*
G75*
G02*
X156750000Y-100700000I-250000J0D01*
G01*
X156750000Y-100700000D02*
G75*
G02*
X157250000Y-100700000I250000J0D01*
G01*
D17*
X127225000Y-104300000D02*
G75*
G02*
X126775000Y-104300000I-225000J0D01*
G01*
X126775000Y-104300000D02*
G75*
G02*
X127225000Y-104300000I225000J0D01*
G01*
D15*
X196250000Y-96700000D02*
G75*
G02*
X195750000Y-96700000I-250000J0D01*
G01*
X195750000Y-96700000D02*
G75*
G02*
X196250000Y-96700000I250000J0D01*
G01*
D12*
X119125000Y-167300000D02*
G75*
G02*
X118975000Y-167300000I-75000J0D01*
G01*
X118975000Y-167300000D02*
G75*
G02*
X119125000Y-167300000I75000J0D01*
G01*
D11*
X242150000Y-153300000D02*
G75*
G02*
X241950000Y-153300000I-100000J0D01*
G01*
X241950000Y-153300000D02*
G75*
G02*
X242150000Y-153300000I100000J0D01*
G01*
X242150000Y-155300000D02*
G75*
G02*
X241950000Y-155300000I-100000J0D01*
G01*
X241950000Y-155300000D02*
G75*
G02*
X242150000Y-155300000I100000J0D01*
G01*
D14*
X188200000Y-122900000D02*
G75*
G02*
X187900000Y-122900000I-150000J0D01*
G01*
X187900000Y-122900000D02*
G75*
G02*
X188200000Y-122900000I150000J0D01*
G01*
D16*
X137250000Y-106700000D02*
G75*
G02*
X136850000Y-106700000I-200000J0D01*
G01*
X136850000Y-106700000D02*
G75*
G02*
X137250000Y-106700000I200000J0D01*
G01*
D14*
X165200000Y-120100000D02*
G75*
G02*
X164900000Y-120100000I-150000J0D01*
G01*
X164900000Y-120100000D02*
G75*
G02*
X165200000Y-120100000I150000J0D01*
G01*
X139200000Y-125700000D02*
G75*
G02*
X138900000Y-125700000I-150000J0D01*
G01*
X138900000Y-125700000D02*
G75*
G02*
X139200000Y-125700000I150000J0D01*
G01*
D10*
X136225000Y-113100000D02*
G75*
G02*
X135875000Y-113100000I-175000J0D01*
G01*
X135875000Y-113100000D02*
G75*
G02*
X136225000Y-113100000I175000J0D01*
G01*
D11*
X235150000Y-145300000D02*
G75*
G02*
X234950000Y-145300000I-100000J0D01*
G01*
X234950000Y-145300000D02*
G75*
G02*
X235150000Y-145300000I100000J0D01*
G01*
D14*
X156200000Y-118700000D02*
G75*
G02*
X155900000Y-118700000I-150000J0D01*
G01*
X155900000Y-118700000D02*
G75*
G02*
X156200000Y-118700000I150000J0D01*
G01*
D13*
X136175000Y-135300000D02*
G75*
G02*
X135925000Y-135300000I-125000J0D01*
G01*
X135925000Y-135300000D02*
G75*
G02*
X136175000Y-135300000I125000J0D01*
G01*
X165175000Y-133300000D02*
G75*
G02*
X164925000Y-133300000I-125000J0D01*
G01*
X164925000Y-133300000D02*
G75*
G02*
X165175000Y-133300000I125000J0D01*
G01*
X176175000Y-137300000D02*
G75*
G02*
X175925000Y-137300000I-125000J0D01*
G01*
X175925000Y-137300000D02*
G75*
G02*
X176175000Y-137300000I125000J0D01*
G01*
D11*
X127150000Y-157300000D02*
G75*
G02*
X126950000Y-157300000I-100000J0D01*
G01*
X126950000Y-157300000D02*
G75*
G02*
X127150000Y-157300000I100000J0D01*
G01*
D10*
X120225000Y-114500000D02*
G75*
G02*
X119875000Y-114500000I-175000J0D01*
G01*
X119875000Y-114500000D02*
G75*
G02*
X120225000Y-114500000I175000J0D01*
G01*
D15*
X176250000Y-100700000D02*
G75*
G02*
X175750000Y-100700000I-250000J0D01*
G01*
X175750000Y-100700000D02*
G75*
G02*
X176250000Y-100700000I250000J0D01*
G01*
D13*
X175175000Y-131600000D02*
G75*
G02*
X174925000Y-131600000I-125000J0D01*
G01*
X174925000Y-131600000D02*
G75*
G02*
X175175000Y-131600000I125000J0D01*
G01*
D12*
X241125000Y-167300000D02*
G75*
G02*
X240975000Y-167300000I-75000J0D01*
G01*
X240975000Y-167300000D02*
G75*
G02*
X241125000Y-167300000I75000J0D01*
G01*
D17*
X148225000Y-104300000D02*
G75*
G02*
X147775000Y-104300000I-225000J0D01*
G01*
X147775000Y-104300000D02*
G75*
G02*
X148225000Y-104300000I225000J0D01*
G01*
D13*
X177175000Y-141300000D02*
G75*
G02*
X176925000Y-141300000I-125000J0D01*
G01*
X176925000Y-141300000D02*
G75*
G02*
X177175000Y-141300000I125000J0D01*
G01*
D11*
X203150000Y-147300000D02*
G75*
G02*
X202950000Y-147300000I-100000J0D01*
G01*
X202950000Y-147300000D02*
G75*
G02*
X203150000Y-147300000I100000J0D01*
G01*
D15*
X139250000Y-99700000D02*
G75*
G02*
X138750000Y-99700000I-250000J0D01*
G01*
X138750000Y-99700000D02*
G75*
G02*
X139250000Y-99700000I250000J0D01*
G01*
D17*
X128225000Y-104300000D02*
G75*
G02*
X127775000Y-104300000I-225000J0D01*
G01*
X127775000Y-104300000D02*
G75*
G02*
X128225000Y-104300000I225000J0D01*
G01*
D12*
X196125000Y-169300000D02*
G75*
G02*
X195975000Y-169300000I-75000J0D01*
G01*
X195975000Y-169300000D02*
G75*
G02*
X196125000Y-169300000I75000J0D01*
G01*
X236125000Y-163300000D02*
G75*
G02*
X235975000Y-163300000I-75000J0D01*
G01*
X235975000Y-163300000D02*
G75*
G02*
X236125000Y-163300000I75000J0D01*
G01*
D13*
X234175000Y-141300000D02*
G75*
G02*
X233925000Y-141300000I-125000J0D01*
G01*
X233925000Y-141300000D02*
G75*
G02*
X234175000Y-141300000I125000J0D01*
G01*
D17*
X149225000Y-104300000D02*
G75*
G02*
X148775000Y-104300000I-225000J0D01*
G01*
X148775000Y-104300000D02*
G75*
G02*
X149225000Y-104300000I225000J0D01*
G01*
X175225000Y-103100000D02*
G75*
G02*
X174775000Y-103100000I-225000J0D01*
G01*
X174775000Y-103100000D02*
G75*
G02*
X175225000Y-103100000I225000J0D01*
G01*
D14*
X156200000Y-122900000D02*
G75*
G02*
X155900000Y-122900000I-150000J0D01*
G01*
X155900000Y-122900000D02*
G75*
G02*
X156200000Y-122900000I150000J0D01*
G01*
D15*
X149250000Y-100700000D02*
G75*
G02*
X148750000Y-100700000I-250000J0D01*
G01*
X148750000Y-100700000D02*
G75*
G02*
X149250000Y-100700000I250000J0D01*
G01*
D14*
X196200000Y-127100000D02*
G75*
G02*
X195900000Y-127100000I-150000J0D01*
G01*
X195900000Y-127100000D02*
G75*
G02*
X196200000Y-127100000I150000J0D01*
G01*
D13*
X119175000Y-139300000D02*
G75*
G02*
X118925000Y-139300000I-125000J0D01*
G01*
X118925000Y-139300000D02*
G75*
G02*
X119175000Y-139300000I125000J0D01*
G01*
D12*
X242125000Y-161300000D02*
G75*
G02*
X241975000Y-161300000I-75000J0D01*
G01*
X241975000Y-161300000D02*
G75*
G02*
X242125000Y-161300000I75000J0D01*
G01*
D13*
X235175000Y-141300000D02*
G75*
G02*
X234925000Y-141300000I-125000J0D01*
G01*
X234925000Y-141300000D02*
G75*
G02*
X235175000Y-141300000I125000J0D01*
G01*
D17*
X139275000Y-105500000D02*
G75*
G02*
X138825000Y-105500000I-225000J0D01*
G01*
X138825000Y-105500000D02*
G75*
G02*
X139275000Y-105500000I225000J0D01*
G01*
D16*
X186250000Y-106700000D02*
G75*
G02*
X185850000Y-106700000I-200000J0D01*
G01*
X185850000Y-106700000D02*
G75*
G02*
X186250000Y-106700000I200000J0D01*
G01*
D15*
X166250000Y-96700000D02*
G75*
G02*
X165750000Y-96700000I-250000J0D01*
G01*
X165750000Y-96700000D02*
G75*
G02*
X166250000Y-96700000I250000J0D01*
G01*
D11*
X242150000Y-147300000D02*
G75*
G02*
X241950000Y-147300000I-100000J0D01*
G01*
X241950000Y-147300000D02*
G75*
G02*
X242150000Y-147300000I100000J0D01*
G01*
D15*
X167250000Y-92700000D02*
G75*
G02*
X166750000Y-92700000I-250000J0D01*
G01*
X166750000Y-92700000D02*
G75*
G02*
X167250000Y-92700000I250000J0D01*
G01*
D17*
X156275000Y-105500000D02*
G75*
G02*
X155825000Y-105500000I-225000J0D01*
G01*
X155825000Y-105500000D02*
G75*
G02*
X156275000Y-105500000I225000J0D01*
G01*
D12*
X219125000Y-161300000D02*
G75*
G02*
X218975000Y-161300000I-75000J0D01*
G01*
X218975000Y-161300000D02*
G75*
G02*
X219125000Y-161300000I75000J0D01*
G01*
D10*
X156225000Y-113100000D02*
G75*
G02*
X155875000Y-113100000I-175000J0D01*
G01*
X155875000Y-113100000D02*
G75*
G02*
X156225000Y-113100000I175000J0D01*
G01*
X203225000Y-110300000D02*
G75*
G02*
X202875000Y-110300000I-175000J0D01*
G01*
X202875000Y-110300000D02*
G75*
G02*
X203225000Y-110300000I175000J0D01*
G01*
D12*
X241125000Y-177300000D02*
G75*
G02*
X240975000Y-177300000I-75000J0D01*
G01*
X240975000Y-177300000D02*
G75*
G02*
X241125000Y-177300000I75000J0D01*
G01*
D15*
X167250000Y-91700000D02*
G75*
G02*
X166750000Y-91700000I-250000J0D01*
G01*
X166750000Y-91700000D02*
G75*
G02*
X167250000Y-91700000I250000J0D01*
G01*
D10*
X167225000Y-115900000D02*
G75*
G02*
X166875000Y-115900000I-175000J0D01*
G01*
X166875000Y-115900000D02*
G75*
G02*
X167225000Y-115900000I175000J0D01*
G01*
D16*
X156250000Y-107900000D02*
G75*
G02*
X155850000Y-107900000I-200000J0D01*
G01*
X155850000Y-107900000D02*
G75*
G02*
X156250000Y-107900000I200000J0D01*
G01*
D10*
X217225000Y-111700000D02*
G75*
G02*
X216875000Y-111700000I-175000J0D01*
G01*
X216875000Y-111700000D02*
G75*
G02*
X217225000Y-111700000I175000J0D01*
G01*
X156225000Y-109100000D02*
G75*
G02*
X155875000Y-109100000I-175000J0D01*
G01*
X155875000Y-109100000D02*
G75*
G02*
X156225000Y-109100000I175000J0D01*
G01*
D11*
X120150000Y-155300000D02*
G75*
G02*
X119950000Y-155300000I-100000J0D01*
G01*
X119950000Y-155300000D02*
G75*
G02*
X120150000Y-155300000I100000J0D01*
G01*
D14*
X185200000Y-124300000D02*
G75*
G02*
X184900000Y-124300000I-150000J0D01*
G01*
X184900000Y-124300000D02*
G75*
G02*
X185200000Y-124300000I150000J0D01*
G01*
D15*
X206250000Y-90700000D02*
G75*
G02*
X205750000Y-90700000I-250000J0D01*
G01*
X205750000Y-90700000D02*
G75*
G02*
X206250000Y-90700000I250000J0D01*
G01*
D11*
X236150000Y-153300000D02*
G75*
G02*
X235950000Y-153300000I-100000J0D01*
G01*
X235950000Y-153300000D02*
G75*
G02*
X236150000Y-153300000I100000J0D01*
G01*
X234150000Y-147300000D02*
G75*
G02*
X233950000Y-147300000I-100000J0D01*
G01*
X233950000Y-147300000D02*
G75*
G02*
X234150000Y-147300000I100000J0D01*
G01*
D12*
X217125000Y-165300000D02*
G75*
G02*
X216975000Y-165300000I-75000J0D01*
G01*
X216975000Y-165300000D02*
G75*
G02*
X217125000Y-165300000I75000J0D01*
G01*
D13*
X167175000Y-131600000D02*
G75*
G02*
X166925000Y-131600000I-125000J0D01*
G01*
X166925000Y-131600000D02*
G75*
G02*
X167175000Y-131600000I125000J0D01*
G01*
D17*
X127275000Y-105500000D02*
G75*
G02*
X126825000Y-105500000I-225000J0D01*
G01*
X126825000Y-105500000D02*
G75*
G02*
X127275000Y-105500000I225000J0D01*
G01*
D16*
X196250000Y-107900000D02*
G75*
G02*
X195850000Y-107900000I-200000J0D01*
G01*
X195850000Y-107900000D02*
G75*
G02*
X196250000Y-107900000I200000J0D01*
G01*
D15*
X195250000Y-98700000D02*
G75*
G02*
X194750000Y-98700000I-250000J0D01*
G01*
X194750000Y-98700000D02*
G75*
G02*
X195250000Y-98700000I250000J0D01*
G01*
D17*
X120275000Y-105500000D02*
G75*
G02*
X119825000Y-105500000I-225000J0D01*
G01*
X119825000Y-105500000D02*
G75*
G02*
X120275000Y-105500000I225000J0D01*
G01*
D12*
X241125000Y-186700000D02*
G75*
G02*
X240975000Y-186700000I-75000J0D01*
G01*
X240975000Y-186700000D02*
G75*
G02*
X241125000Y-186700000I75000J0D01*
G01*
X195125000Y-163300000D02*
G75*
G02*
X194975000Y-163300000I-75000J0D01*
G01*
X194975000Y-163300000D02*
G75*
G02*
X195125000Y-163300000I75000J0D01*
G01*
D11*
X219150000Y-157300000D02*
G75*
G02*
X218950000Y-157300000I-100000J0D01*
G01*
X218950000Y-157300000D02*
G75*
G02*
X219150000Y-157300000I100000J0D01*
G01*
D10*
X166225000Y-110300000D02*
G75*
G02*
X165875000Y-110300000I-175000J0D01*
G01*
X165875000Y-110300000D02*
G75*
G02*
X166225000Y-110300000I175000J0D01*
G01*
D13*
X220175000Y-141300000D02*
G75*
G02*
X219925000Y-141300000I-125000J0D01*
G01*
X219925000Y-141300000D02*
G75*
G02*
X220175000Y-141300000I125000J0D01*
G01*
D15*
X165250000Y-91700000D02*
G75*
G02*
X164750000Y-91700000I-250000J0D01*
G01*
X164750000Y-91700000D02*
G75*
G02*
X165250000Y-91700000I250000J0D01*
G01*
D16*
X136250000Y-107900000D02*
G75*
G02*
X135850000Y-107900000I-200000J0D01*
G01*
X135850000Y-107900000D02*
G75*
G02*
X136250000Y-107900000I200000J0D01*
G01*
D14*
X175200000Y-125700000D02*
G75*
G02*
X174900000Y-125700000I-150000J0D01*
G01*
X174900000Y-125700000D02*
G75*
G02*
X175200000Y-125700000I150000J0D01*
G01*
D12*
X119125000Y-163300000D02*
G75*
G02*
X118975000Y-163300000I-75000J0D01*
G01*
X118975000Y-163300000D02*
G75*
G02*
X119125000Y-163300000I75000J0D01*
G01*
D15*
X219250000Y-99700000D02*
G75*
G02*
X218750000Y-99700000I-250000J0D01*
G01*
X218750000Y-99700000D02*
G75*
G02*
X219250000Y-99700000I250000J0D01*
G01*
D14*
X186200000Y-124300000D02*
G75*
G02*
X185900000Y-124300000I-150000J0D01*
G01*
X185900000Y-124300000D02*
G75*
G02*
X186200000Y-124300000I150000J0D01*
G01*
D15*
X156250000Y-96700000D02*
G75*
G02*
X155750000Y-96700000I-250000J0D01*
G01*
X155750000Y-96700000D02*
G75*
G02*
X156250000Y-96700000I250000J0D01*
G01*
D14*
X166200000Y-128500000D02*
G75*
G02*
X165900000Y-128500000I-150000J0D01*
G01*
X165900000Y-128500000D02*
G75*
G02*
X166200000Y-128500000I150000J0D01*
G01*
D11*
X220150000Y-145300000D02*
G75*
G02*
X219950000Y-145300000I-100000J0D01*
G01*
X219950000Y-145300000D02*
G75*
G02*
X220150000Y-145300000I100000J0D01*
G01*
D15*
X120250000Y-99700000D02*
G75*
G02*
X119750000Y-99700000I-250000J0D01*
G01*
X119750000Y-99700000D02*
G75*
G02*
X120250000Y-99700000I250000J0D01*
G01*
D14*
X127200000Y-128500000D02*
G75*
G02*
X126900000Y-128500000I-150000J0D01*
G01*
X126900000Y-128500000D02*
G75*
G02*
X127200000Y-128500000I150000J0D01*
G01*
D11*
X119150000Y-145300000D02*
G75*
G02*
X118950000Y-145300000I-100000J0D01*
G01*
X118950000Y-145300000D02*
G75*
G02*
X119150000Y-145300000I100000J0D01*
G01*
D15*
X157250000Y-93700000D02*
G75*
G02*
X156750000Y-93700000I-250000J0D01*
G01*
X156750000Y-93700000D02*
G75*
G02*
X157250000Y-93700000I250000J0D01*
G01*
D12*
X241125000Y-179300000D02*
G75*
G02*
X240975000Y-179300000I-75000J0D01*
G01*
X240975000Y-179300000D02*
G75*
G02*
X241125000Y-179300000I75000J0D01*
G01*
X220125000Y-183300000D02*
G75*
G02*
X219975000Y-183300000I-75000J0D01*
G01*
X219975000Y-183300000D02*
G75*
G02*
X220125000Y-183300000I75000J0D01*
G01*
D14*
X156200000Y-125700000D02*
G75*
G02*
X155900000Y-125700000I-150000J0D01*
G01*
X155900000Y-125700000D02*
G75*
G02*
X156200000Y-125700000I150000J0D01*
G01*
D12*
X242125000Y-177300000D02*
G75*
G02*
X241975000Y-177300000I-75000J0D01*
G01*
X241975000Y-177300000D02*
G75*
G02*
X242125000Y-177300000I75000J0D01*
G01*
D15*
X156250000Y-94700000D02*
G75*
G02*
X155750000Y-94700000I-250000J0D01*
G01*
X155750000Y-94700000D02*
G75*
G02*
X156250000Y-94700000I250000J0D01*
G01*
D11*
X120150000Y-153300000D02*
G75*
G02*
X119950000Y-153300000I-100000J0D01*
G01*
X119950000Y-153300000D02*
G75*
G02*
X120150000Y-153300000I100000J0D01*
G01*
D13*
X205175000Y-133300000D02*
G75*
G02*
X204925000Y-133300000I-125000J0D01*
G01*
X204925000Y-133300000D02*
G75*
G02*
X205175000Y-133300000I125000J0D01*
G01*
D15*
X167250000Y-90700000D02*
G75*
G02*
X166750000Y-90700000I-250000J0D01*
G01*
X166750000Y-90700000D02*
G75*
G02*
X167250000Y-90700000I250000J0D01*
G01*
D13*
X166175000Y-131600000D02*
G75*
G02*
X165925000Y-131600000I-125000J0D01*
G01*
X165925000Y-131600000D02*
G75*
G02*
X166175000Y-131600000I125000J0D01*
G01*
D12*
X218125000Y-161300000D02*
G75*
G02*
X217975000Y-161300000I-75000J0D01*
G01*
X217975000Y-161300000D02*
G75*
G02*
X218125000Y-161300000I75000J0D01*
G01*
D15*
X177250000Y-83700000D02*
G75*
G02*
X176750000Y-83700000I-250000J0D01*
G01*
X176750000Y-83700000D02*
G75*
G02*
X177250000Y-83700000I250000J0D01*
G01*
D14*
X136200000Y-125700000D02*
G75*
G02*
X135900000Y-125700000I-150000J0D01*
G01*
X135900000Y-125700000D02*
G75*
G02*
X136200000Y-125700000I150000J0D01*
G01*
D12*
X220125000Y-161300000D02*
G75*
G02*
X219975000Y-161300000I-75000J0D01*
G01*
X219975000Y-161300000D02*
G75*
G02*
X220125000Y-161300000I75000J0D01*
G01*
D13*
X177175000Y-137300000D02*
G75*
G02*
X176925000Y-137300000I-125000J0D01*
G01*
X176925000Y-137300000D02*
G75*
G02*
X177175000Y-137300000I125000J0D01*
G01*
D10*
X137225000Y-110300000D02*
G75*
G02*
X136875000Y-110300000I-175000J0D01*
G01*
X136875000Y-110300000D02*
G75*
G02*
X137225000Y-110300000I175000J0D01*
G01*
D15*
X138250000Y-100700000D02*
G75*
G02*
X137750000Y-100700000I-250000J0D01*
G01*
X137750000Y-100700000D02*
G75*
G02*
X138250000Y-100700000I250000J0D01*
G01*
D12*
X236125000Y-177300000D02*
G75*
G02*
X235975000Y-177300000I-75000J0D01*
G01*
X235975000Y-177300000D02*
G75*
G02*
X236125000Y-177300000I75000J0D01*
G01*
D13*
X234175000Y-139300000D02*
G75*
G02*
X233925000Y-139300000I-125000J0D01*
G01*
X233925000Y-139300000D02*
G75*
G02*
X234175000Y-139300000I125000J0D01*
G01*
D12*
X243125000Y-161300000D02*
G75*
G02*
X242975000Y-161300000I-75000J0D01*
G01*
X242975000Y-161300000D02*
G75*
G02*
X243125000Y-161300000I75000J0D01*
G01*
D17*
X177225000Y-103100000D02*
G75*
G02*
X176775000Y-103100000I-225000J0D01*
G01*
X176775000Y-103100000D02*
G75*
G02*
X177225000Y-103100000I225000J0D01*
G01*
D15*
X175250000Y-100700000D02*
G75*
G02*
X174750000Y-100700000I-250000J0D01*
G01*
X174750000Y-100700000D02*
G75*
G02*
X175250000Y-100700000I250000J0D01*
G01*
D12*
X119125000Y-165300000D02*
G75*
G02*
X118975000Y-165300000I-75000J0D01*
G01*
X118975000Y-165300000D02*
G75*
G02*
X119125000Y-165300000I75000J0D01*
G01*
D11*
X236150000Y-155300000D02*
G75*
G02*
X235950000Y-155300000I-100000J0D01*
G01*
X235950000Y-155300000D02*
G75*
G02*
X236150000Y-155300000I100000J0D01*
G01*
D15*
X196250000Y-87700000D02*
G75*
G02*
X195750000Y-87700000I-250000J0D01*
G01*
X195750000Y-87700000D02*
G75*
G02*
X196250000Y-87700000I250000J0D01*
G01*
D13*
X176175000Y-135300000D02*
G75*
G02*
X175925000Y-135300000I-125000J0D01*
G01*
X175925000Y-135300000D02*
G75*
G02*
X176175000Y-135300000I125000J0D01*
G01*
X120175000Y-141300000D02*
G75*
G02*
X119925000Y-141300000I-125000J0D01*
G01*
X119925000Y-141300000D02*
G75*
G02*
X120175000Y-141300000I125000J0D01*
G01*
D12*
X235125000Y-165300000D02*
G75*
G02*
X234975000Y-165300000I-75000J0D01*
G01*
X234975000Y-165300000D02*
G75*
G02*
X235125000Y-165300000I75000J0D01*
G01*
D14*
X187200000Y-124300000D02*
G75*
G02*
X186900000Y-124300000I-150000J0D01*
G01*
X186900000Y-124300000D02*
G75*
G02*
X187200000Y-124300000I150000J0D01*
G01*
X139200000Y-121500000D02*
G75*
G02*
X138900000Y-121500000I-150000J0D01*
G01*
X138900000Y-121500000D02*
G75*
G02*
X139200000Y-121500000I150000J0D01*
G01*
D13*
X120175000Y-137300000D02*
G75*
G02*
X119925000Y-137300000I-125000J0D01*
G01*
X119925000Y-137300000D02*
G75*
G02*
X120175000Y-137300000I125000J0D01*
G01*
D12*
X220125000Y-163300000D02*
G75*
G02*
X219975000Y-163300000I-75000J0D01*
G01*
X219975000Y-163300000D02*
G75*
G02*
X220125000Y-163300000I75000J0D01*
G01*
D13*
X157175000Y-131600000D02*
G75*
G02*
X156925000Y-131600000I-125000J0D01*
G01*
X156925000Y-131600000D02*
G75*
G02*
X157175000Y-131600000I125000J0D01*
G01*
D12*
X243125000Y-163300000D02*
G75*
G02*
X242975000Y-163300000I-75000J0D01*
G01*
X242975000Y-163300000D02*
G75*
G02*
X243125000Y-163300000I75000J0D01*
G01*
D15*
X165250000Y-96700000D02*
G75*
G02*
X164750000Y-96700000I-250000J0D01*
G01*
X164750000Y-96700000D02*
G75*
G02*
X165250000Y-96700000I250000J0D01*
G01*
D13*
X175175000Y-135300000D02*
G75*
G02*
X174925000Y-135300000I-125000J0D01*
G01*
X174925000Y-135300000D02*
G75*
G02*
X175175000Y-135300000I125000J0D01*
G01*
D14*
X157200000Y-127100000D02*
G75*
G02*
X156900000Y-127100000I-150000J0D01*
G01*
X156900000Y-127100000D02*
G75*
G02*
X157200000Y-127100000I150000J0D01*
G01*
D10*
X165225000Y-115900000D02*
G75*
G02*
X164875000Y-115900000I-175000J0D01*
G01*
X164875000Y-115900000D02*
G75*
G02*
X165225000Y-115900000I175000J0D01*
G01*
D12*
X235125000Y-163300000D02*
G75*
G02*
X234975000Y-163300000I-75000J0D01*
G01*
X234975000Y-163300000D02*
G75*
G02*
X235125000Y-163300000I75000J0D01*
G01*
D15*
X203250000Y-96700000D02*
G75*
G02*
X202750000Y-96700000I-250000J0D01*
G01*
X202750000Y-96700000D02*
G75*
G02*
X203250000Y-96700000I250000J0D01*
G01*
D11*
X234150000Y-157300000D02*
G75*
G02*
X233950000Y-157300000I-100000J0D01*
G01*
X233950000Y-157300000D02*
G75*
G02*
X234150000Y-157300000I100000J0D01*
G01*
D13*
X205175000Y-141300000D02*
G75*
G02*
X204925000Y-141300000I-125000J0D01*
G01*
X204925000Y-141300000D02*
G75*
G02*
X205175000Y-141300000I125000J0D01*
G01*
D12*
X235125000Y-173300000D02*
G75*
G02*
X234975000Y-173300000I-75000J0D01*
G01*
X234975000Y-173300000D02*
G75*
G02*
X235125000Y-173300000I75000J0D01*
G01*
D15*
X176250000Y-90700000D02*
G75*
G02*
X175750000Y-90700000I-250000J0D01*
G01*
X175750000Y-90700000D02*
G75*
G02*
X176250000Y-90700000I250000J0D01*
G01*
X203250000Y-95700000D02*
G75*
G02*
X202750000Y-95700000I-250000J0D01*
G01*
X202750000Y-95700000D02*
G75*
G02*
X203250000Y-95700000I250000J0D01*
G01*
D13*
X203175000Y-141300000D02*
G75*
G02*
X202925000Y-141300000I-125000J0D01*
G01*
X202925000Y-141300000D02*
G75*
G02*
X203175000Y-141300000I125000J0D01*
G01*
D15*
X166250000Y-91700000D02*
G75*
G02*
X165750000Y-91700000I-250000J0D01*
G01*
X165750000Y-91700000D02*
G75*
G02*
X166250000Y-91700000I250000J0D01*
G01*
X176250000Y-87700000D02*
G75*
G02*
X175750000Y-87700000I-250000J0D01*
G01*
X175750000Y-87700000D02*
G75*
G02*
X176250000Y-87700000I250000J0D01*
G01*
D17*
X138275000Y-105500000D02*
G75*
G02*
X137825000Y-105500000I-225000J0D01*
G01*
X137825000Y-105500000D02*
G75*
G02*
X138275000Y-105500000I225000J0D01*
G01*
D11*
X128150000Y-153300000D02*
G75*
G02*
X127950000Y-153300000I-100000J0D01*
G01*
X127950000Y-153300000D02*
G75*
G02*
X128150000Y-153300000I100000J0D01*
G01*
D12*
X241125000Y-181300000D02*
G75*
G02*
X240975000Y-181300000I-75000J0D01*
G01*
X240975000Y-181300000D02*
G75*
G02*
X241125000Y-181300000I75000J0D01*
G01*
D15*
X120250000Y-100700000D02*
G75*
G02*
X119750000Y-100700000I-250000J0D01*
G01*
X119750000Y-100700000D02*
G75*
G02*
X120250000Y-100700000I250000J0D01*
G01*
D14*
X127200000Y-124300000D02*
G75*
G02*
X126900000Y-124300000I-150000J0D01*
G01*
X126900000Y-124300000D02*
G75*
G02*
X127200000Y-124300000I150000J0D01*
G01*
X137200000Y-125700000D02*
G75*
G02*
X136900000Y-125700000I-150000J0D01*
G01*
X136900000Y-125700000D02*
G75*
G02*
X137200000Y-125700000I150000J0D01*
G01*
D13*
X139175000Y-141300000D02*
G75*
G02*
X138925000Y-141300000I-125000J0D01*
G01*
X138925000Y-141300000D02*
G75*
G02*
X139175000Y-141300000I125000J0D01*
G01*
D10*
X156225000Y-111700000D02*
G75*
G02*
X155875000Y-111700000I-175000J0D01*
G01*
X155875000Y-111700000D02*
G75*
G02*
X156225000Y-111700000I175000J0D01*
G01*
D14*
X188200000Y-125700000D02*
G75*
G02*
X187900000Y-125700000I-150000J0D01*
G01*
X187900000Y-125700000D02*
G75*
G02*
X188200000Y-125700000I150000J0D01*
G01*
D10*
X175225000Y-113100000D02*
G75*
G02*
X174875000Y-113100000I-175000J0D01*
G01*
X174875000Y-113100000D02*
G75*
G02*
X175225000Y-113100000I175000J0D01*
G01*
D12*
X119125000Y-161300000D02*
G75*
G02*
X118975000Y-161300000I-75000J0D01*
G01*
X118975000Y-161300000D02*
G75*
G02*
X119125000Y-161300000I75000J0D01*
G01*
X220125000Y-173300000D02*
G75*
G02*
X219975000Y-173300000I-75000J0D01*
G01*
X219975000Y-173300000D02*
G75*
G02*
X220125000Y-173300000I75000J0D01*
G01*
D10*
X167225000Y-113100000D02*
G75*
G02*
X166875000Y-113100000I-175000J0D01*
G01*
X166875000Y-113100000D02*
G75*
G02*
X167225000Y-113100000I175000J0D01*
G01*
D14*
X206200000Y-120100000D02*
G75*
G02*
X205900000Y-120100000I-150000J0D01*
G01*
X205900000Y-120100000D02*
G75*
G02*
X206200000Y-120100000I150000J0D01*
G01*
D10*
X175225000Y-115900000D02*
G75*
G02*
X174875000Y-115900000I-175000J0D01*
G01*
X174875000Y-115900000D02*
G75*
G02*
X175225000Y-115900000I175000J0D01*
G01*
D14*
X150200000Y-121500000D02*
G75*
G02*
X149900000Y-121500000I-150000J0D01*
G01*
X149900000Y-121500000D02*
G75*
G02*
X150200000Y-121500000I150000J0D01*
G01*
D12*
X120125000Y-165300000D02*
G75*
G02*
X119975000Y-165300000I-75000J0D01*
G01*
X119975000Y-165300000D02*
G75*
G02*
X120125000Y-165300000I75000J0D01*
G01*
D11*
X220150000Y-147300000D02*
G75*
G02*
X219950000Y-147300000I-100000J0D01*
G01*
X219950000Y-147300000D02*
G75*
G02*
X220150000Y-147300000I100000J0D01*
G01*
D16*
X195250000Y-106700000D02*
G75*
G02*
X194850000Y-106700000I-200000J0D01*
G01*
X194850000Y-106700000D02*
G75*
G02*
X195250000Y-106700000I200000J0D01*
G01*
D11*
X127150000Y-153300000D02*
G75*
G02*
X126950000Y-153300000I-100000J0D01*
G01*
X126950000Y-153300000D02*
G75*
G02*
X127150000Y-153300000I100000J0D01*
G01*
D14*
X219200000Y-121500000D02*
G75*
G02*
X218900000Y-121500000I-150000J0D01*
G01*
X218900000Y-121500000D02*
G75*
G02*
X219200000Y-121500000I150000J0D01*
G01*
D12*
X195125000Y-171300000D02*
G75*
G02*
X194975000Y-171300000I-75000J0D01*
G01*
X194975000Y-171300000D02*
G75*
G02*
X195125000Y-171300000I75000J0D01*
G01*
D10*
X150225000Y-109100000D02*
G75*
G02*
X149875000Y-109100000I-175000J0D01*
G01*
X149875000Y-109100000D02*
G75*
G02*
X150225000Y-109100000I175000J0D01*
G01*
D14*
X127200000Y-121500000D02*
G75*
G02*
X126900000Y-121500000I-150000J0D01*
G01*
X126900000Y-121500000D02*
G75*
G02*
X127200000Y-121500000I150000J0D01*
G01*
D13*
X236175000Y-135300000D02*
G75*
G02*
X235925000Y-135300000I-125000J0D01*
G01*
X235925000Y-135300000D02*
G75*
G02*
X236175000Y-135300000I125000J0D01*
G01*
D15*
X195250000Y-99700000D02*
G75*
G02*
X194750000Y-99700000I-250000J0D01*
G01*
X194750000Y-99700000D02*
G75*
G02*
X195250000Y-99700000I250000J0D01*
G01*
D13*
X177175000Y-135300000D02*
G75*
G02*
X176925000Y-135300000I-125000J0D01*
G01*
X176925000Y-135300000D02*
G75*
G02*
X177175000Y-135300000I125000J0D01*
G01*
D12*
X120125000Y-169300000D02*
G75*
G02*
X119975000Y-169300000I-75000J0D01*
G01*
X119975000Y-169300000D02*
G75*
G02*
X120125000Y-169300000I75000J0D01*
G01*
D17*
X128275000Y-105500000D02*
G75*
G02*
X127825000Y-105500000I-225000J0D01*
G01*
X127825000Y-105500000D02*
G75*
G02*
X128275000Y-105500000I225000J0D01*
G01*
D16*
X150250000Y-107900000D02*
G75*
G02*
X149850000Y-107900000I-200000J0D01*
G01*
X149850000Y-107900000D02*
G75*
G02*
X150250000Y-107900000I200000J0D01*
G01*
D12*
X243125000Y-173300000D02*
G75*
G02*
X242975000Y-173300000I-75000J0D01*
G01*
X242975000Y-173300000D02*
G75*
G02*
X243125000Y-173300000I75000J0D01*
G01*
D15*
X203250000Y-97700000D02*
G75*
G02*
X202750000Y-97700000I-250000J0D01*
G01*
X202750000Y-97700000D02*
G75*
G02*
X203250000Y-97700000I250000J0D01*
G01*
D14*
X136200000Y-127100000D02*
G75*
G02*
X135900000Y-127100000I-150000J0D01*
G01*
X135900000Y-127100000D02*
G75*
G02*
X136200000Y-127100000I150000J0D01*
G01*
D13*
X156175000Y-139300000D02*
G75*
G02*
X155925000Y-139300000I-125000J0D01*
G01*
X155925000Y-139300000D02*
G75*
G02*
X156175000Y-139300000I125000J0D01*
G01*
D14*
X204200000Y-128500000D02*
G75*
G02*
X203900000Y-128500000I-150000J0D01*
G01*
X203900000Y-128500000D02*
G75*
G02*
X204200000Y-128500000I150000J0D01*
G01*
D17*
X119275000Y-105500000D02*
G75*
G02*
X118825000Y-105500000I-225000J0D01*
G01*
X118825000Y-105500000D02*
G75*
G02*
X119275000Y-105500000I225000J0D01*
G01*
D14*
X136200000Y-124300000D02*
G75*
G02*
X135900000Y-124300000I-150000J0D01*
G01*
X135900000Y-124300000D02*
G75*
G02*
X136200000Y-124300000I150000J0D01*
G01*
D11*
X158150000Y-147300000D02*
G75*
G02*
X157950000Y-147300000I-100000J0D01*
G01*
X157950000Y-147300000D02*
G75*
G02*
X158150000Y-147300000I100000J0D01*
G01*
D10*
X219225000Y-111700000D02*
G75*
G02*
X218875000Y-111700000I-175000J0D01*
G01*
X218875000Y-111700000D02*
G75*
G02*
X219225000Y-111700000I175000J0D01*
G01*
D17*
X203225000Y-103100000D02*
G75*
G02*
X202775000Y-103100000I-225000J0D01*
G01*
X202775000Y-103100000D02*
G75*
G02*
X203225000Y-103100000I225000J0D01*
G01*
D15*
X195250000Y-83700000D02*
G75*
G02*
X194750000Y-83700000I-250000J0D01*
G01*
X194750000Y-83700000D02*
G75*
G02*
X195250000Y-83700000I250000J0D01*
G01*
D14*
X188200000Y-129900000D02*
G75*
G02*
X187900000Y-129900000I-150000J0D01*
G01*
X187900000Y-129900000D02*
G75*
G02*
X188200000Y-129900000I150000J0D01*
G01*
D16*
X136250000Y-106700000D02*
G75*
G02*
X135850000Y-106700000I-200000J0D01*
G01*
X135850000Y-106700000D02*
G75*
G02*
X136250000Y-106700000I200000J0D01*
G01*
D13*
X234175000Y-133300000D02*
G75*
G02*
X233925000Y-133300000I-125000J0D01*
G01*
X233925000Y-133300000D02*
G75*
G02*
X234175000Y-133300000I125000J0D01*
G01*
D10*
X156225000Y-110300000D02*
G75*
G02*
X155875000Y-110300000I-175000J0D01*
G01*
X155875000Y-110300000D02*
G75*
G02*
X156225000Y-110300000I175000J0D01*
G01*
D11*
X234150000Y-151300000D02*
G75*
G02*
X233950000Y-151300000I-100000J0D01*
G01*
X233950000Y-151300000D02*
G75*
G02*
X234150000Y-151300000I100000J0D01*
G01*
X196150000Y-149300000D02*
G75*
G02*
X195950000Y-149300000I-100000J0D01*
G01*
X195950000Y-149300000D02*
G75*
G02*
X196150000Y-149300000I100000J0D01*
G01*
D14*
X120200000Y-118700000D02*
G75*
G02*
X119900000Y-118700000I-150000J0D01*
G01*
X119900000Y-118700000D02*
G75*
G02*
X120200000Y-118700000I150000J0D01*
G01*
D15*
X204250000Y-96700000D02*
G75*
G02*
X203750000Y-96700000I-250000J0D01*
G01*
X203750000Y-96700000D02*
G75*
G02*
X204250000Y-96700000I250000J0D01*
G01*
D11*
X241150000Y-145300000D02*
G75*
G02*
X240950000Y-145300000I-100000J0D01*
G01*
X240950000Y-145300000D02*
G75*
G02*
X241150000Y-145300000I100000J0D01*
G01*
D12*
X234125000Y-175300000D02*
G75*
G02*
X233975000Y-175300000I-75000J0D01*
G01*
X233975000Y-175300000D02*
G75*
G02*
X234125000Y-175300000I75000J0D01*
G01*
X218125000Y-183300000D02*
G75*
G02*
X217975000Y-183300000I-75000J0D01*
G01*
X217975000Y-183300000D02*
G75*
G02*
X218125000Y-183300000I75000J0D01*
G01*
X242125000Y-167300000D02*
G75*
G02*
X241975000Y-167300000I-75000J0D01*
G01*
X241975000Y-167300000D02*
G75*
G02*
X242125000Y-167300000I75000J0D01*
G01*
D10*
X119225000Y-115900000D02*
G75*
G02*
X118875000Y-115900000I-175000J0D01*
G01*
X118875000Y-115900000D02*
G75*
G02*
X119225000Y-115900000I175000J0D01*
G01*
X176225000Y-110300000D02*
G75*
G02*
X175875000Y-110300000I-175000J0D01*
G01*
X175875000Y-110300000D02*
G75*
G02*
X176225000Y-110300000I175000J0D01*
G01*
D11*
X241150000Y-157300000D02*
G75*
G02*
X240950000Y-157300000I-100000J0D01*
G01*
X240950000Y-157300000D02*
G75*
G02*
X241150000Y-157300000I100000J0D01*
G01*
D15*
X204250000Y-97700000D02*
G75*
G02*
X203750000Y-97700000I-250000J0D01*
G01*
X203750000Y-97700000D02*
G75*
G02*
X204250000Y-97700000I250000J0D01*
G01*
D10*
X137225000Y-113100000D02*
G75*
G02*
X136875000Y-113100000I-175000J0D01*
G01*
X136875000Y-113100000D02*
G75*
G02*
X137225000Y-113100000I175000J0D01*
G01*
D15*
X187250000Y-83700000D02*
G75*
G02*
X186750000Y-83700000I-250000J0D01*
G01*
X186750000Y-83700000D02*
G75*
G02*
X187250000Y-83700000I250000J0D01*
G01*
D12*
X242125000Y-183300000D02*
G75*
G02*
X241975000Y-183300000I-75000J0D01*
G01*
X241975000Y-183300000D02*
G75*
G02*
X242125000Y-183300000I75000J0D01*
G01*
D11*
X243150000Y-157300000D02*
G75*
G02*
X242950000Y-157300000I-100000J0D01*
G01*
X242950000Y-157300000D02*
G75*
G02*
X243150000Y-157300000I100000J0D01*
G01*
D10*
X204225000Y-110300000D02*
G75*
G02*
X203875000Y-110300000I-175000J0D01*
G01*
X203875000Y-110300000D02*
G75*
G02*
X204225000Y-110300000I175000J0D01*
G01*
D11*
X119150000Y-147300000D02*
G75*
G02*
X118950000Y-147300000I-100000J0D01*
G01*
X118950000Y-147300000D02*
G75*
G02*
X119150000Y-147300000I100000J0D01*
G01*
D13*
X204175000Y-141300000D02*
G75*
G02*
X203925000Y-141300000I-125000J0D01*
G01*
X203925000Y-141300000D02*
G75*
G02*
X204175000Y-141300000I125000J0D01*
G01*
D12*
X217125000Y-161300000D02*
G75*
G02*
X216975000Y-161300000I-75000J0D01*
G01*
X216975000Y-161300000D02*
G75*
G02*
X217125000Y-161300000I75000J0D01*
G01*
D15*
X175250000Y-99700000D02*
G75*
G02*
X174750000Y-99700000I-250000J0D01*
G01*
X174750000Y-99700000D02*
G75*
G02*
X175250000Y-99700000I250000J0D01*
G01*
D17*
X119225000Y-101900000D02*
G75*
G02*
X118775000Y-101900000I-225000J0D01*
G01*
X118775000Y-101900000D02*
G75*
G02*
X119225000Y-101900000I225000J0D01*
G01*
D13*
X175175000Y-133300000D02*
G75*
G02*
X174925000Y-133300000I-125000J0D01*
G01*
X174925000Y-133300000D02*
G75*
G02*
X175175000Y-133300000I125000J0D01*
G01*
D10*
X149225000Y-110300000D02*
G75*
G02*
X148875000Y-110300000I-175000J0D01*
G01*
X148875000Y-110300000D02*
G75*
G02*
X149225000Y-110300000I175000J0D01*
G01*
D11*
X241150000Y-151300000D02*
G75*
G02*
X240950000Y-151300000I-100000J0D01*
G01*
X240950000Y-151300000D02*
G75*
G02*
X241150000Y-151300000I100000J0D01*
G01*
D12*
X120125000Y-171300000D02*
G75*
G02*
X119975000Y-171300000I-75000J0D01*
G01*
X119975000Y-171300000D02*
G75*
G02*
X120125000Y-171300000I75000J0D01*
G01*
D15*
X138250000Y-99700000D02*
G75*
G02*
X137750000Y-99700000I-250000J0D01*
G01*
X137750000Y-99700000D02*
G75*
G02*
X138250000Y-99700000I250000J0D01*
G01*
X205250000Y-90700000D02*
G75*
G02*
X204750000Y-90700000I-250000J0D01*
G01*
X204750000Y-90700000D02*
G75*
G02*
X205250000Y-90700000I250000J0D01*
G01*
D17*
X177225000Y-101900000D02*
G75*
G02*
X176775000Y-101900000I-225000J0D01*
G01*
X176775000Y-101900000D02*
G75*
G02*
X177225000Y-101900000I225000J0D01*
G01*
D14*
X139200000Y-122900000D02*
G75*
G02*
X138900000Y-122900000I-150000J0D01*
G01*
X138900000Y-122900000D02*
G75*
G02*
X139200000Y-122900000I150000J0D01*
G01*
D11*
X236150000Y-157300000D02*
G75*
G02*
X235950000Y-157300000I-100000J0D01*
G01*
X235950000Y-157300000D02*
G75*
G02*
X236150000Y-157300000I100000J0D01*
G01*
D15*
X185250000Y-83700000D02*
G75*
G02*
X184750000Y-83700000I-250000J0D01*
G01*
X184750000Y-83700000D02*
G75*
G02*
X185250000Y-83700000I250000J0D01*
G01*
X137250000Y-99700000D02*
G75*
G02*
X136750000Y-99700000I-250000J0D01*
G01*
X136750000Y-99700000D02*
G75*
G02*
X137250000Y-99700000I250000J0D01*
G01*
D10*
X136225000Y-111700000D02*
G75*
G02*
X135875000Y-111700000I-175000J0D01*
G01*
X135875000Y-111700000D02*
G75*
G02*
X136225000Y-111700000I175000J0D01*
G01*
D15*
X206250000Y-96700000D02*
G75*
G02*
X205750000Y-96700000I-250000J0D01*
G01*
X205750000Y-96700000D02*
G75*
G02*
X206250000Y-96700000I250000J0D01*
G01*
X165250000Y-95700000D02*
G75*
G02*
X164750000Y-95700000I-250000J0D01*
G01*
X164750000Y-95700000D02*
G75*
G02*
X165250000Y-95700000I250000J0D01*
G01*
X186250000Y-84700000D02*
G75*
G02*
X185750000Y-84700000I-250000J0D01*
G01*
X185750000Y-84700000D02*
G75*
G02*
X186250000Y-84700000I250000J0D01*
G01*
D13*
X136175000Y-131600000D02*
G75*
G02*
X135925000Y-131600000I-125000J0D01*
G01*
X135925000Y-131600000D02*
G75*
G02*
X136175000Y-131600000I125000J0D01*
G01*
D17*
X139225000Y-104300000D02*
G75*
G02*
X138775000Y-104300000I-225000J0D01*
G01*
X138775000Y-104300000D02*
G75*
G02*
X139225000Y-104300000I225000J0D01*
G01*
D16*
X119250000Y-107900000D02*
G75*
G02*
X118850000Y-107900000I-200000J0D01*
G01*
X118850000Y-107900000D02*
G75*
G02*
X119250000Y-107900000I200000J0D01*
G01*
D14*
X187200000Y-129900000D02*
G75*
G02*
X186900000Y-129900000I-150000J0D01*
G01*
X186900000Y-129900000D02*
G75*
G02*
X187200000Y-129900000I150000J0D01*
G01*
D17*
X148275000Y-105500000D02*
G75*
G02*
X147825000Y-105500000I-225000J0D01*
G01*
X147825000Y-105500000D02*
G75*
G02*
X148275000Y-105500000I225000J0D01*
G01*
D14*
X127200000Y-129900000D02*
G75*
G02*
X126900000Y-129900000I-150000J0D01*
G01*
X126900000Y-129900000D02*
G75*
G02*
X127200000Y-129900000I150000J0D01*
G01*
D11*
X156150000Y-151300000D02*
G75*
G02*
X155950000Y-151300000I-100000J0D01*
G01*
X155950000Y-151300000D02*
G75*
G02*
X156150000Y-151300000I100000J0D01*
G01*
D15*
X138250000Y-98700000D02*
G75*
G02*
X137750000Y-98700000I-250000J0D01*
G01*
X137750000Y-98700000D02*
G75*
G02*
X138250000Y-98700000I250000J0D01*
G01*
D14*
X156200000Y-129900000D02*
G75*
G02*
X155900000Y-129900000I-150000J0D01*
G01*
X155900000Y-129900000D02*
G75*
G02*
X156200000Y-129900000I150000J0D01*
G01*
D12*
X219125000Y-177300000D02*
G75*
G02*
X218975000Y-177300000I-75000J0D01*
G01*
X218975000Y-177300000D02*
G75*
G02*
X219125000Y-177300000I75000J0D01*
G01*
D14*
X136200000Y-121500000D02*
G75*
G02*
X135900000Y-121500000I-150000J0D01*
G01*
X135900000Y-121500000D02*
G75*
G02*
X136200000Y-121500000I150000J0D01*
G01*
X138200000Y-122900000D02*
G75*
G02*
X137900000Y-122900000I-150000J0D01*
G01*
X137900000Y-122900000D02*
G75*
G02*
X138200000Y-122900000I150000J0D01*
G01*
D13*
X206175000Y-137300000D02*
G75*
G02*
X205925000Y-137300000I-125000J0D01*
G01*
X205925000Y-137300000D02*
G75*
G02*
X206175000Y-137300000I125000J0D01*
G01*
D12*
X221125000Y-175300000D02*
G75*
G02*
X220975000Y-175300000I-75000J0D01*
G01*
X220975000Y-175300000D02*
G75*
G02*
X221125000Y-175300000I75000J0D01*
G01*
D11*
X220150000Y-155300000D02*
G75*
G02*
X219950000Y-155300000I-100000J0D01*
G01*
X219950000Y-155300000D02*
G75*
G02*
X220150000Y-155300000I100000J0D01*
G01*
D12*
X234125000Y-179300000D02*
G75*
G02*
X233975000Y-179300000I-75000J0D01*
G01*
X233975000Y-179300000D02*
G75*
G02*
X234125000Y-179300000I75000J0D01*
G01*
X234125000Y-161300000D02*
G75*
G02*
X233975000Y-161300000I-75000J0D01*
G01*
X233975000Y-161300000D02*
G75*
G02*
X234125000Y-161300000I75000J0D01*
G01*
X243125000Y-181300000D02*
G75*
G02*
X242975000Y-181300000I-75000J0D01*
G01*
X242975000Y-181300000D02*
G75*
G02*
X243125000Y-181300000I75000J0D01*
G01*
D16*
X120250000Y-107900000D02*
G75*
G02*
X119850000Y-107900000I-200000J0D01*
G01*
X119850000Y-107900000D02*
G75*
G02*
X120250000Y-107900000I200000J0D01*
G01*
D13*
X204175000Y-133300000D02*
G75*
G02*
X203925000Y-133300000I-125000J0D01*
G01*
X203925000Y-133300000D02*
G75*
G02*
X204175000Y-133300000I125000J0D01*
G01*
D12*
X220125000Y-177300000D02*
G75*
G02*
X219975000Y-177300000I-75000J0D01*
G01*
X219975000Y-177300000D02*
G75*
G02*
X220125000Y-177300000I75000J0D01*
G01*
D11*
X242150000Y-151300000D02*
G75*
G02*
X241950000Y-151300000I-100000J0D01*
G01*
X241950000Y-151300000D02*
G75*
G02*
X242150000Y-151300000I100000J0D01*
G01*
D13*
X235175000Y-135300000D02*
G75*
G02*
X234925000Y-135300000I-125000J0D01*
G01*
X234925000Y-135300000D02*
G75*
G02*
X235175000Y-135300000I125000J0D01*
G01*
D12*
X242125000Y-175300000D02*
G75*
G02*
X241975000Y-175300000I-75000J0D01*
G01*
X241975000Y-175300000D02*
G75*
G02*
X242125000Y-175300000I75000J0D01*
G01*
D10*
X150225000Y-110300000D02*
G75*
G02*
X149875000Y-110300000I-175000J0D01*
G01*
X149875000Y-110300000D02*
G75*
G02*
X150225000Y-110300000I175000J0D01*
G01*
D15*
X185250000Y-87700000D02*
G75*
G02*
X184750000Y-87700000I-250000J0D01*
G01*
X184750000Y-87700000D02*
G75*
G02*
X185250000Y-87700000I250000J0D01*
G01*
D13*
X217175000Y-133300000D02*
G75*
G02*
X216925000Y-133300000I-125000J0D01*
G01*
X216925000Y-133300000D02*
G75*
G02*
X217175000Y-133300000I125000J0D01*
G01*
D15*
X175250000Y-91700000D02*
G75*
G02*
X174750000Y-91700000I-250000J0D01*
G01*
X174750000Y-91700000D02*
G75*
G02*
X175250000Y-91700000I250000J0D01*
G01*
X186250000Y-88700000D02*
G75*
G02*
X185750000Y-88700000I-250000J0D01*
G01*
X185750000Y-88700000D02*
G75*
G02*
X186250000Y-88700000I250000J0D01*
G01*
X166250000Y-92700000D02*
G75*
G02*
X165750000Y-92700000I-250000J0D01*
G01*
X165750000Y-92700000D02*
G75*
G02*
X166250000Y-92700000I250000J0D01*
G01*
D14*
X138200000Y-125700000D02*
G75*
G02*
X137900000Y-125700000I-150000J0D01*
G01*
X137900000Y-125700000D02*
G75*
G02*
X138200000Y-125700000I150000J0D01*
G01*
D18*
%TO.C,MCU1*%
X236370000Y-99010000D02*
X235870000Y-99510000D01*
X234870000Y-99510000D01*
X234870000Y-98510000D01*
X235870000Y-98510000D01*
X236370000Y-99010000D01*
G36*
X236370000Y-99010000D02*
G01*
X235870000Y-99510000D01*
X234870000Y-99510000D01*
X234870000Y-98510000D01*
X235870000Y-98510000D01*
X236370000Y-99010000D01*
G37*
X236370000Y-101550000D02*
X235870000Y-102050000D01*
X234870000Y-102050000D01*
X234870000Y-101050000D01*
X235870000Y-101050000D01*
X236370000Y-101550000D01*
G36*
X236370000Y-101550000D02*
G01*
X235870000Y-102050000D01*
X234870000Y-102050000D01*
X234870000Y-101050000D01*
X235870000Y-101050000D01*
X236370000Y-101550000D01*
G37*
X236370000Y-104090000D02*
X235870000Y-104590000D01*
X234870000Y-104590000D01*
X234870000Y-103590000D01*
X235870000Y-103590000D01*
X236370000Y-104090000D01*
G36*
X236370000Y-104090000D02*
G01*
X235870000Y-104590000D01*
X234870000Y-104590000D01*
X234870000Y-103590000D01*
X235870000Y-103590000D01*
X236370000Y-104090000D01*
G37*
X236370000Y-106630000D02*
X235870000Y-107130000D01*
X234870000Y-107130000D01*
X234870000Y-106130000D01*
X235870000Y-106130000D01*
X236370000Y-106630000D01*
G36*
X236370000Y-106630000D02*
G01*
X235870000Y-107130000D01*
X234870000Y-107130000D01*
X234870000Y-106130000D01*
X235870000Y-106130000D01*
X236370000Y-106630000D01*
G37*
X236370000Y-109170000D02*
X235870000Y-109670000D01*
X234870000Y-109670000D01*
X234870000Y-108670000D01*
X235870000Y-108670000D01*
X236370000Y-109170000D01*
G36*
X236370000Y-109170000D02*
G01*
X235870000Y-109670000D01*
X234870000Y-109670000D01*
X234870000Y-108670000D01*
X235870000Y-108670000D01*
X236370000Y-109170000D01*
G37*
X236370000Y-111710000D02*
X235870000Y-112210000D01*
X234870000Y-112210000D01*
X234870000Y-111210000D01*
X235870000Y-111210000D01*
X236370000Y-111710000D01*
G36*
X236370000Y-111710000D02*
G01*
X235870000Y-112210000D01*
X234870000Y-112210000D01*
X234870000Y-111210000D01*
X235870000Y-111210000D01*
X236370000Y-111710000D01*
G37*
X236370000Y-114250000D02*
X235870000Y-114750000D01*
X234870000Y-114750000D01*
X234870000Y-113750000D01*
X235870000Y-113750000D01*
X236370000Y-114250000D01*
G36*
X236370000Y-114250000D02*
G01*
X235870000Y-114750000D01*
X234870000Y-114750000D01*
X234870000Y-113750000D01*
X235870000Y-113750000D01*
X236370000Y-114250000D01*
G37*
X236370000Y-116790000D02*
X235870000Y-117290000D01*
X234870000Y-117290000D01*
X234870000Y-116290000D01*
X235870000Y-116290000D01*
X236370000Y-116790000D01*
G36*
X236370000Y-116790000D02*
G01*
X235870000Y-117290000D01*
X234870000Y-117290000D01*
X234870000Y-116290000D01*
X235870000Y-116290000D01*
X236370000Y-116790000D01*
G37*
X236370000Y-119330000D02*
X235870000Y-119830000D01*
X234870000Y-119830000D01*
X234870000Y-118830000D01*
X235870000Y-118830000D01*
X236370000Y-119330000D01*
G36*
X236370000Y-119330000D02*
G01*
X235870000Y-119830000D01*
X234870000Y-119830000D01*
X234870000Y-118830000D01*
X235870000Y-118830000D01*
X236370000Y-119330000D01*
G37*
X236370000Y-121870000D02*
X235870000Y-122370000D01*
X234870000Y-122370000D01*
X234870000Y-121370000D01*
X235870000Y-121370000D01*
X236370000Y-121870000D01*
G36*
X236370000Y-121870000D02*
G01*
X235870000Y-122370000D01*
X234870000Y-122370000D01*
X234870000Y-121370000D01*
X235870000Y-121370000D01*
X236370000Y-121870000D01*
G37*
X236370000Y-124410000D02*
X235870000Y-124910000D01*
X234870000Y-124910000D01*
X234870000Y-123910000D01*
X235870000Y-123910000D01*
X236370000Y-124410000D01*
G36*
X236370000Y-124410000D02*
G01*
X235870000Y-124910000D01*
X234870000Y-124910000D01*
X234870000Y-123910000D01*
X235870000Y-123910000D01*
X236370000Y-124410000D01*
G37*
X236370000Y-126950000D02*
X235870000Y-127450000D01*
X234870000Y-127450000D01*
X234870000Y-126450000D01*
X235870000Y-126450000D01*
X236370000Y-126950000D01*
G36*
X236370000Y-126950000D02*
G01*
X235870000Y-127450000D01*
X234870000Y-127450000D01*
X234870000Y-126450000D01*
X235870000Y-126450000D01*
X236370000Y-126950000D01*
G37*
X237120000Y-99510000D02*
X236120000Y-99510000D01*
X236620000Y-99010000D01*
X236120000Y-98510000D01*
X237120000Y-98510000D01*
X237120000Y-99510000D01*
G36*
X237120000Y-99510000D02*
G01*
X236120000Y-99510000D01*
X236620000Y-99010000D01*
X236120000Y-98510000D01*
X237120000Y-98510000D01*
X237120000Y-99510000D01*
G37*
X237120000Y-102050000D02*
X236120000Y-102050000D01*
X236620000Y-101550000D01*
X236120000Y-101050000D01*
X237120000Y-101050000D01*
X237120000Y-102050000D01*
G36*
X237120000Y-102050000D02*
G01*
X236120000Y-102050000D01*
X236620000Y-101550000D01*
X236120000Y-101050000D01*
X237120000Y-101050000D01*
X237120000Y-102050000D01*
G37*
X237120000Y-104590000D02*
X236120000Y-104590000D01*
X236620000Y-104090000D01*
X236120000Y-103590000D01*
X237120000Y-103590000D01*
X237120000Y-104590000D01*
G36*
X237120000Y-104590000D02*
G01*
X236120000Y-104590000D01*
X236620000Y-104090000D01*
X236120000Y-103590000D01*
X237120000Y-103590000D01*
X237120000Y-104590000D01*
G37*
X237120000Y-107130000D02*
X236120000Y-107130000D01*
X236620000Y-106630000D01*
X236120000Y-106130000D01*
X237120000Y-106130000D01*
X237120000Y-107130000D01*
G36*
X237120000Y-107130000D02*
G01*
X236120000Y-107130000D01*
X236620000Y-106630000D01*
X236120000Y-106130000D01*
X237120000Y-106130000D01*
X237120000Y-107130000D01*
G37*
X237120000Y-109670000D02*
X236120000Y-109670000D01*
X236620000Y-109170000D01*
X236120000Y-108670000D01*
X237120000Y-108670000D01*
X237120000Y-109670000D01*
G36*
X237120000Y-109670000D02*
G01*
X236120000Y-109670000D01*
X236620000Y-109170000D01*
X236120000Y-108670000D01*
X237120000Y-108670000D01*
X237120000Y-109670000D01*
G37*
X237120000Y-112210000D02*
X236120000Y-112210000D01*
X236620000Y-111710000D01*
X236120000Y-111210000D01*
X237120000Y-111210000D01*
X237120000Y-112210000D01*
G36*
X237120000Y-112210000D02*
G01*
X236120000Y-112210000D01*
X236620000Y-111710000D01*
X236120000Y-111210000D01*
X237120000Y-111210000D01*
X237120000Y-112210000D01*
G37*
X237120000Y-114750000D02*
X236120000Y-114750000D01*
X236620000Y-114250000D01*
X236120000Y-113750000D01*
X237120000Y-113750000D01*
X237120000Y-114750000D01*
G36*
X237120000Y-114750000D02*
G01*
X236120000Y-114750000D01*
X236620000Y-114250000D01*
X236120000Y-113750000D01*
X237120000Y-113750000D01*
X237120000Y-114750000D01*
G37*
X237120000Y-117290000D02*
X236120000Y-117290000D01*
X236620000Y-116790000D01*
X236120000Y-116290000D01*
X237120000Y-116290000D01*
X237120000Y-117290000D01*
G36*
X237120000Y-117290000D02*
G01*
X236120000Y-117290000D01*
X236620000Y-116790000D01*
X236120000Y-116290000D01*
X237120000Y-116290000D01*
X237120000Y-117290000D01*
G37*
X237120000Y-119830000D02*
X236120000Y-119830000D01*
X236620000Y-119330000D01*
X236120000Y-118830000D01*
X237120000Y-118830000D01*
X237120000Y-119830000D01*
G36*
X237120000Y-119830000D02*
G01*
X236120000Y-119830000D01*
X236620000Y-119330000D01*
X236120000Y-118830000D01*
X237120000Y-118830000D01*
X237120000Y-119830000D01*
G37*
X237120000Y-122370000D02*
X236120000Y-122370000D01*
X236620000Y-121870000D01*
X236120000Y-121370000D01*
X237120000Y-121370000D01*
X237120000Y-122370000D01*
G36*
X237120000Y-122370000D02*
G01*
X236120000Y-122370000D01*
X236620000Y-121870000D01*
X236120000Y-121370000D01*
X237120000Y-121370000D01*
X237120000Y-122370000D01*
G37*
X237120000Y-124910000D02*
X236120000Y-124910000D01*
X236620000Y-124410000D01*
X236120000Y-123910000D01*
X237120000Y-123910000D01*
X237120000Y-124910000D01*
G36*
X237120000Y-124910000D02*
G01*
X236120000Y-124910000D01*
X236620000Y-124410000D01*
X236120000Y-123910000D01*
X237120000Y-123910000D01*
X237120000Y-124910000D01*
G37*
X237120000Y-127450000D02*
X236120000Y-127450000D01*
X236620000Y-126950000D01*
X236120000Y-126450000D01*
X237120000Y-126450000D01*
X237120000Y-127450000D01*
G36*
X237120000Y-127450000D02*
G01*
X236120000Y-127450000D01*
X236620000Y-126950000D01*
X236120000Y-126450000D01*
X237120000Y-126450000D01*
X237120000Y-127450000D01*
G37*
X247620000Y-99010000D02*
X248120000Y-99510000D01*
X247120000Y-99510000D01*
X247120000Y-98510000D01*
X248120000Y-98510000D01*
X247620000Y-99010000D01*
G36*
X247620000Y-99010000D02*
G01*
X248120000Y-99510000D01*
X247120000Y-99510000D01*
X247120000Y-98510000D01*
X248120000Y-98510000D01*
X247620000Y-99010000D01*
G37*
X247620000Y-101550000D02*
X248120000Y-102050000D01*
X247120000Y-102050000D01*
X247120000Y-101050000D01*
X248120000Y-101050000D01*
X247620000Y-101550000D01*
G36*
X247620000Y-101550000D02*
G01*
X248120000Y-102050000D01*
X247120000Y-102050000D01*
X247120000Y-101050000D01*
X248120000Y-101050000D01*
X247620000Y-101550000D01*
G37*
X247620000Y-104090000D02*
X248120000Y-104590000D01*
X247120000Y-104590000D01*
X247120000Y-103590000D01*
X248120000Y-103590000D01*
X247620000Y-104090000D01*
G36*
X247620000Y-104090000D02*
G01*
X248120000Y-104590000D01*
X247120000Y-104590000D01*
X247120000Y-103590000D01*
X248120000Y-103590000D01*
X247620000Y-104090000D01*
G37*
X247620000Y-106630000D02*
X248120000Y-107130000D01*
X247120000Y-107130000D01*
X247120000Y-106130000D01*
X248120000Y-106130000D01*
X247620000Y-106630000D01*
G36*
X247620000Y-106630000D02*
G01*
X248120000Y-107130000D01*
X247120000Y-107130000D01*
X247120000Y-106130000D01*
X248120000Y-106130000D01*
X247620000Y-106630000D01*
G37*
X247620000Y-109170000D02*
X248120000Y-109670000D01*
X247120000Y-109670000D01*
X247120000Y-108670000D01*
X248120000Y-108670000D01*
X247620000Y-109170000D01*
G36*
X247620000Y-109170000D02*
G01*
X248120000Y-109670000D01*
X247120000Y-109670000D01*
X247120000Y-108670000D01*
X248120000Y-108670000D01*
X247620000Y-109170000D01*
G37*
X247620000Y-111710000D02*
X248120000Y-112210000D01*
X247120000Y-112210000D01*
X247120000Y-111210000D01*
X248120000Y-111210000D01*
X247620000Y-111710000D01*
G36*
X247620000Y-111710000D02*
G01*
X248120000Y-112210000D01*
X247120000Y-112210000D01*
X247120000Y-111210000D01*
X248120000Y-111210000D01*
X247620000Y-111710000D01*
G37*
X247620000Y-114250000D02*
X248120000Y-114750000D01*
X247120000Y-114750000D01*
X247120000Y-113750000D01*
X248120000Y-113750000D01*
X247620000Y-114250000D01*
G36*
X247620000Y-114250000D02*
G01*
X248120000Y-114750000D01*
X247120000Y-114750000D01*
X247120000Y-113750000D01*
X248120000Y-113750000D01*
X247620000Y-114250000D01*
G37*
X247620000Y-116790000D02*
X248120000Y-117290000D01*
X247120000Y-117290000D01*
X247120000Y-116290000D01*
X248120000Y-116290000D01*
X247620000Y-116790000D01*
G36*
X247620000Y-116790000D02*
G01*
X248120000Y-117290000D01*
X247120000Y-117290000D01*
X247120000Y-116290000D01*
X248120000Y-116290000D01*
X247620000Y-116790000D01*
G37*
X247620000Y-119330000D02*
X248120000Y-119830000D01*
X247120000Y-119830000D01*
X247120000Y-118830000D01*
X248120000Y-118830000D01*
X247620000Y-119330000D01*
G36*
X247620000Y-119330000D02*
G01*
X248120000Y-119830000D01*
X247120000Y-119830000D01*
X247120000Y-118830000D01*
X248120000Y-118830000D01*
X247620000Y-119330000D01*
G37*
X247620000Y-121870000D02*
X248120000Y-122370000D01*
X247120000Y-122370000D01*
X247120000Y-121370000D01*
X248120000Y-121370000D01*
X247620000Y-121870000D01*
G36*
X247620000Y-121870000D02*
G01*
X248120000Y-122370000D01*
X247120000Y-122370000D01*
X247120000Y-121370000D01*
X248120000Y-121370000D01*
X247620000Y-121870000D01*
G37*
X247620000Y-124410000D02*
X248120000Y-124910000D01*
X247120000Y-124910000D01*
X247120000Y-123910000D01*
X248120000Y-123910000D01*
X247620000Y-124410000D01*
G36*
X247620000Y-124410000D02*
G01*
X248120000Y-124910000D01*
X247120000Y-124910000D01*
X247120000Y-123910000D01*
X248120000Y-123910000D01*
X247620000Y-124410000D01*
G37*
X247620000Y-126950000D02*
X248120000Y-127450000D01*
X247120000Y-127450000D01*
X247120000Y-126450000D01*
X248120000Y-126450000D01*
X247620000Y-126950000D01*
G36*
X247620000Y-126950000D02*
G01*
X248120000Y-127450000D01*
X247120000Y-127450000D01*
X247120000Y-126450000D01*
X248120000Y-126450000D01*
X247620000Y-126950000D01*
G37*
X249370000Y-99510000D02*
X248370000Y-99510000D01*
X247870000Y-99010000D01*
X248370000Y-98510000D01*
X249370000Y-98510000D01*
X249370000Y-99510000D01*
G36*
X249370000Y-99510000D02*
G01*
X248370000Y-99510000D01*
X247870000Y-99010000D01*
X248370000Y-98510000D01*
X249370000Y-98510000D01*
X249370000Y-99510000D01*
G37*
X249370000Y-102050000D02*
X248370000Y-102050000D01*
X247870000Y-101550000D01*
X248370000Y-101050000D01*
X249370000Y-101050000D01*
X249370000Y-102050000D01*
G36*
X249370000Y-102050000D02*
G01*
X248370000Y-102050000D01*
X247870000Y-101550000D01*
X248370000Y-101050000D01*
X249370000Y-101050000D01*
X249370000Y-102050000D01*
G37*
X249370000Y-104590000D02*
X248370000Y-104590000D01*
X247870000Y-104090000D01*
X248370000Y-103590000D01*
X249370000Y-103590000D01*
X249370000Y-104590000D01*
G36*
X249370000Y-104590000D02*
G01*
X248370000Y-104590000D01*
X247870000Y-104090000D01*
X248370000Y-103590000D01*
X249370000Y-103590000D01*
X249370000Y-104590000D01*
G37*
X249370000Y-107130000D02*
X248370000Y-107130000D01*
X247870000Y-106630000D01*
X248370000Y-106130000D01*
X249370000Y-106130000D01*
X249370000Y-107130000D01*
G36*
X249370000Y-107130000D02*
G01*
X248370000Y-107130000D01*
X247870000Y-106630000D01*
X248370000Y-106130000D01*
X249370000Y-106130000D01*
X249370000Y-107130000D01*
G37*
X249370000Y-109670000D02*
X248370000Y-109670000D01*
X247870000Y-109170000D01*
X248370000Y-108670000D01*
X249370000Y-108670000D01*
X249370000Y-109670000D01*
G36*
X249370000Y-109670000D02*
G01*
X248370000Y-109670000D01*
X247870000Y-109170000D01*
X248370000Y-108670000D01*
X249370000Y-108670000D01*
X249370000Y-109670000D01*
G37*
X249370000Y-112210000D02*
X248370000Y-112210000D01*
X247870000Y-111710000D01*
X248370000Y-111210000D01*
X249370000Y-111210000D01*
X249370000Y-112210000D01*
G36*
X249370000Y-112210000D02*
G01*
X248370000Y-112210000D01*
X247870000Y-111710000D01*
X248370000Y-111210000D01*
X249370000Y-111210000D01*
X249370000Y-112210000D01*
G37*
X249370000Y-114750000D02*
X248370000Y-114750000D01*
X247870000Y-114250000D01*
X248370000Y-113750000D01*
X249370000Y-113750000D01*
X249370000Y-114750000D01*
G36*
X249370000Y-114750000D02*
G01*
X248370000Y-114750000D01*
X247870000Y-114250000D01*
X248370000Y-113750000D01*
X249370000Y-113750000D01*
X249370000Y-114750000D01*
G37*
X249370000Y-117290000D02*
X248370000Y-117290000D01*
X247870000Y-116790000D01*
X248370000Y-116290000D01*
X249370000Y-116290000D01*
X249370000Y-117290000D01*
G36*
X249370000Y-117290000D02*
G01*
X248370000Y-117290000D01*
X247870000Y-116790000D01*
X248370000Y-116290000D01*
X249370000Y-116290000D01*
X249370000Y-117290000D01*
G37*
X249370000Y-119830000D02*
X248370000Y-119830000D01*
X247870000Y-119330000D01*
X248370000Y-118830000D01*
X249370000Y-118830000D01*
X249370000Y-119830000D01*
G36*
X249370000Y-119830000D02*
G01*
X248370000Y-119830000D01*
X247870000Y-119330000D01*
X248370000Y-118830000D01*
X249370000Y-118830000D01*
X249370000Y-119830000D01*
G37*
X249370000Y-122370000D02*
X248370000Y-122370000D01*
X247870000Y-121870000D01*
X248370000Y-121370000D01*
X249370000Y-121370000D01*
X249370000Y-122370000D01*
G36*
X249370000Y-122370000D02*
G01*
X248370000Y-122370000D01*
X247870000Y-121870000D01*
X248370000Y-121370000D01*
X249370000Y-121370000D01*
X249370000Y-122370000D01*
G37*
X249370000Y-124910000D02*
X248370000Y-124910000D01*
X247870000Y-124410000D01*
X248370000Y-123910000D01*
X249370000Y-123910000D01*
X249370000Y-124910000D01*
G36*
X249370000Y-124910000D02*
G01*
X248370000Y-124910000D01*
X247870000Y-124410000D01*
X248370000Y-123910000D01*
X249370000Y-123910000D01*
X249370000Y-124910000D01*
G37*
X249370000Y-127450000D02*
X248370000Y-127450000D01*
X247870000Y-126950000D01*
X248370000Y-126450000D01*
X249370000Y-126450000D01*
X249370000Y-127450000D01*
G36*
X249370000Y-127450000D02*
G01*
X248370000Y-127450000D01*
X247870000Y-126950000D01*
X248370000Y-126450000D01*
X249370000Y-126450000D01*
X249370000Y-127450000D01*
G37*
%TO.C,JST1*%
X224750000Y-118000000D02*
X225250000Y-118500000D01*
X224250000Y-118500000D01*
X224250000Y-117500000D01*
X225250000Y-117500000D01*
X224750000Y-118000000D01*
G36*
X224750000Y-118000000D02*
G01*
X225250000Y-118500000D01*
X224250000Y-118500000D01*
X224250000Y-117500000D01*
X225250000Y-117500000D01*
X224750000Y-118000000D01*
G37*
X224789214Y-116000000D02*
X225289214Y-116500000D01*
X224289214Y-116500000D01*
X224289214Y-115500000D01*
X225289214Y-115500000D01*
X224789214Y-116000000D01*
G36*
X224789214Y-116000000D02*
G01*
X225289214Y-116500000D01*
X224289214Y-116500000D01*
X224289214Y-115500000D01*
X225289214Y-115500000D01*
X224789214Y-116000000D01*
G37*
X226500000Y-118500000D02*
X225500000Y-118500000D01*
X225000000Y-118000000D01*
X225500000Y-117500000D01*
X226500000Y-117500000D01*
X226500000Y-118500000D01*
G36*
X226500000Y-118500000D02*
G01*
X225500000Y-118500000D01*
X225000000Y-118000000D01*
X225500000Y-117500000D01*
X226500000Y-117500000D01*
X226500000Y-118500000D01*
G37*
X226539214Y-116500000D02*
X225539214Y-116500000D01*
X225039214Y-116000000D01*
X225539214Y-115500000D01*
X226539214Y-115500000D01*
X226539214Y-116500000D01*
G36*
X226539214Y-116500000D02*
G01*
X225539214Y-116500000D01*
X225039214Y-116000000D01*
X225539214Y-115500000D01*
X226539214Y-115500000D01*
X226539214Y-116500000D01*
G37*
%TD*%
D19*
%TO.C,S5*%
X123500000Y-108382250D03*
D20*
X124000000Y-112132250D03*
D21*
X129000000Y-108382250D03*
X129000000Y-108382250D03*
D20*
X129000000Y-114332250D03*
X134000000Y-112132250D03*
D19*
X134500000Y-108382250D03*
D22*
X132275000Y-114332250D03*
X120725000Y-112132250D03*
%TD*%
D19*
%TO.C,S6*%
X142250000Y-108382250D03*
D20*
X142750000Y-112132250D03*
D21*
X147750000Y-108382250D03*
X147750000Y-108382250D03*
D20*
X147750000Y-114332250D03*
X152750000Y-112132250D03*
D19*
X153250000Y-108382250D03*
D22*
X151025000Y-114332250D03*
X139475000Y-112132250D03*
%TD*%
D19*
%TO.C,S19*%
X161000000Y-136014500D03*
D20*
X161500000Y-139764500D03*
D21*
X166500000Y-136014500D03*
X166500000Y-136014500D03*
D20*
X166500000Y-141964500D03*
X171500000Y-139764500D03*
D19*
X172000000Y-136014500D03*
D22*
X169775000Y-141964500D03*
X158225000Y-139764500D03*
%TD*%
D19*
%TO.C,S22*%
X217250000Y-141014500D03*
D20*
X217750000Y-144764500D03*
D21*
X222750000Y-141014500D03*
X222750000Y-141014500D03*
D20*
X222750000Y-146964500D03*
X227750000Y-144764500D03*
D19*
X228250000Y-141014500D03*
D22*
X226025000Y-146964500D03*
X214475000Y-144764500D03*
%TD*%
D19*
%TO.C,S24*%
X142250000Y-161632250D03*
D20*
X142750000Y-165382250D03*
D21*
X147750000Y-161632250D03*
X147750000Y-161632250D03*
D20*
X147750000Y-167582250D03*
X152750000Y-165382250D03*
D19*
X153250000Y-161632250D03*
D22*
X151025000Y-167582250D03*
X139475000Y-165382250D03*
%TD*%
D19*
%TO.C,S16*%
X217250000Y-123264500D03*
D20*
X217750000Y-127014500D03*
D21*
X222750000Y-123264500D03*
X222750000Y-123264500D03*
D20*
X222750000Y-129214500D03*
X227750000Y-127014500D03*
D19*
X228250000Y-123264500D03*
D22*
X226025000Y-129214500D03*
X214475000Y-127014500D03*
%TD*%
D19*
%TO.C,S26*%
X179750000Y-145132250D03*
D20*
X180250000Y-148882250D03*
D21*
X185250000Y-145132250D03*
X185250000Y-145132250D03*
D20*
X185250000Y-151082250D03*
X190250000Y-148882250D03*
D19*
X190750000Y-145132250D03*
D22*
X188525000Y-151082250D03*
X176975000Y-148882250D03*
%TD*%
D19*
%TO.C,S7*%
X161000000Y-100514500D03*
D20*
X161500000Y-104264500D03*
D21*
X166500000Y-100514500D03*
X166500000Y-100514500D03*
D20*
X166500000Y-106464500D03*
X171500000Y-104264500D03*
D19*
X172000000Y-100514500D03*
D22*
X169775000Y-106464500D03*
X158225000Y-104264500D03*
%TD*%
D19*
%TO.C,S20*%
X179750000Y-127382250D03*
D20*
X180250000Y-131132250D03*
D21*
X185250000Y-127382250D03*
X185250000Y-127382250D03*
D20*
X185250000Y-133332250D03*
X190250000Y-131132250D03*
D19*
X190750000Y-127382250D03*
D22*
X188525000Y-133332250D03*
X176975000Y-131132250D03*
%TD*%
D19*
%TO.C,S23*%
X123500000Y-161632250D03*
D20*
X124000000Y-165382250D03*
D21*
X129000000Y-161632250D03*
X129000000Y-161632250D03*
D20*
X129000000Y-167582250D03*
X134000000Y-165382250D03*
D19*
X134500000Y-161632250D03*
D22*
X132275000Y-167582250D03*
X120725000Y-165382250D03*
%TD*%
D19*
%TO.C,S10*%
X217250000Y-105514500D03*
D20*
X217750000Y-109264500D03*
D21*
X222750000Y-105514500D03*
X222750000Y-105514500D03*
D20*
X222750000Y-111464500D03*
X227750000Y-109264500D03*
D19*
X228250000Y-105514500D03*
D22*
X226025000Y-111464500D03*
X214475000Y-109264500D03*
%TD*%
D19*
%TO.C,S12*%
X142250000Y-126132250D03*
D20*
X142750000Y-129882250D03*
D21*
X147750000Y-126132250D03*
X147750000Y-126132250D03*
D20*
X147750000Y-132082250D03*
X152750000Y-129882250D03*
D19*
X153250000Y-126132250D03*
D22*
X151025000Y-132082250D03*
X139475000Y-129882250D03*
%TD*%
D19*
%TO.C,S18*%
X142250000Y-143882250D03*
D20*
X142750000Y-147632250D03*
D21*
X147750000Y-143882250D03*
X147750000Y-143882250D03*
D20*
X147750000Y-149832250D03*
X152750000Y-147632250D03*
D19*
X153250000Y-143882250D03*
D22*
X151025000Y-149832250D03*
X139475000Y-147632250D03*
%TD*%
D19*
%TO.C,S25*%
X161000000Y-153764500D03*
D20*
X161500000Y-157514500D03*
D21*
X166500000Y-153764500D03*
X166500000Y-153764500D03*
D20*
X166500000Y-159714500D03*
X171500000Y-157514500D03*
D19*
X172000000Y-153764500D03*
D22*
X169775000Y-159714500D03*
X158225000Y-157514500D03*
%TD*%
D19*
%TO.C,S28*%
X217250000Y-158764500D03*
D20*
X217750000Y-162514500D03*
D21*
X222750000Y-158764500D03*
X222750000Y-158764500D03*
D20*
X222750000Y-164714500D03*
X227750000Y-162514500D03*
D19*
X228250000Y-158764500D03*
D22*
X226025000Y-164714500D03*
X214475000Y-162514500D03*
%TD*%
D19*
%TO.C,S27*%
X198500000Y-153764500D03*
D20*
X199000000Y-157514500D03*
D21*
X204000000Y-153764500D03*
X204000000Y-153764500D03*
D20*
X204000000Y-159714500D03*
X209000000Y-157514500D03*
D19*
X209500000Y-153764500D03*
D22*
X207275000Y-159714500D03*
X195725000Y-157514500D03*
%TD*%
D19*
%TO.C,S15*%
X198500000Y-118264500D03*
D20*
X199000000Y-122014500D03*
D21*
X204000000Y-118264500D03*
X204000000Y-118264500D03*
D20*
X204000000Y-124214500D03*
X209000000Y-122014500D03*
D19*
X209500000Y-118264500D03*
D22*
X207275000Y-124214500D03*
X195725000Y-122014500D03*
%TD*%
D19*
%TO.C,S17*%
X123500000Y-143882250D03*
D20*
X124000000Y-147632250D03*
D21*
X129000000Y-143882250D03*
X129000000Y-143882250D03*
D20*
X129000000Y-149832250D03*
X134000000Y-147632250D03*
D19*
X134500000Y-143882250D03*
D22*
X132275000Y-149832250D03*
X120725000Y-147632250D03*
%TD*%
D19*
%TO.C,S13*%
X161000000Y-118264500D03*
D20*
X161500000Y-122014500D03*
D21*
X166500000Y-118264500D03*
X166500000Y-118264500D03*
D20*
X166500000Y-124214500D03*
X171500000Y-122014500D03*
D19*
X172000000Y-118264500D03*
D22*
X169775000Y-124214500D03*
X158225000Y-122014500D03*
%TD*%
D19*
%TO.C,S29*%
X217250000Y-176514500D03*
D20*
X217750000Y-180264500D03*
D21*
X222750000Y-176514500D03*
X222750000Y-176514500D03*
D20*
X222750000Y-182464500D03*
X227750000Y-180264500D03*
D19*
X228250000Y-176514500D03*
D22*
X226025000Y-182464500D03*
X214475000Y-180264500D03*
%TD*%
D19*
%TO.C,S9*%
X198500000Y-100514500D03*
D20*
X199000000Y-104264500D03*
D21*
X204000000Y-100514500D03*
X204000000Y-100514500D03*
D20*
X204000000Y-106464500D03*
X209000000Y-104264500D03*
D19*
X209500000Y-100514500D03*
D22*
X207275000Y-106464500D03*
X195725000Y-104264500D03*
%TD*%
D19*
%TO.C,S14*%
X179750000Y-109632250D03*
D20*
X180250000Y-113382250D03*
D21*
X185250000Y-109632250D03*
X185250000Y-109632250D03*
D20*
X185250000Y-115582250D03*
X190250000Y-113382250D03*
D19*
X190750000Y-109632250D03*
D22*
X188525000Y-115582250D03*
X176975000Y-113382250D03*
%TD*%
D19*
%TO.C,S31*%
X236000000Y-184764500D03*
D20*
X236500000Y-188514500D03*
D21*
X241500000Y-184764500D03*
X241500000Y-184764500D03*
D20*
X241500000Y-190714500D03*
X246500000Y-188514500D03*
D19*
X247000000Y-184764500D03*
D22*
X244775000Y-190714500D03*
X233225000Y-188514500D03*
%TD*%
D19*
%TO.C,S8*%
X179750000Y-91882250D03*
D20*
X180250000Y-95632250D03*
D21*
X185250000Y-91882250D03*
X185250000Y-91882250D03*
D20*
X185250000Y-97832250D03*
X190250000Y-95632250D03*
D19*
X190750000Y-91882250D03*
D22*
X188525000Y-97832250D03*
X176975000Y-95632250D03*
%TD*%
D19*
%TO.C,S30*%
X198500000Y-171514500D03*
D20*
X199000000Y-175264500D03*
D21*
X204000000Y-171514500D03*
X204000000Y-171514500D03*
D20*
X204000000Y-177464500D03*
X209000000Y-175264500D03*
D19*
X209500000Y-171514500D03*
D22*
X207275000Y-177464500D03*
X195725000Y-175264500D03*
%TD*%
D19*
%TO.C,S21*%
X198500000Y-136014500D03*
D20*
X199000000Y-139764500D03*
D21*
X204000000Y-136014500D03*
X204000000Y-136014500D03*
D20*
X204000000Y-141964500D03*
X209000000Y-139764500D03*
D19*
X209500000Y-136014500D03*
D22*
X207275000Y-141964500D03*
X195725000Y-139764500D03*
%TD*%
D19*
%TO.C,S11*%
X123500000Y-126132250D03*
D20*
X124000000Y-129882250D03*
D21*
X129000000Y-126132250D03*
X129000000Y-126132250D03*
D20*
X129000000Y-132082250D03*
X134000000Y-129882250D03*
D19*
X134500000Y-126132250D03*
D22*
X132275000Y-132082250D03*
X120725000Y-129882250D03*
%TD*%
D23*
%TO.C,T1*%
X218900000Y-95300000D03*
X218900000Y-97500000D03*
D24*
X221100000Y-96400000D03*
X224100000Y-96400000D03*
D23*
X226300000Y-95300000D03*
X226300000Y-97500000D03*
D25*
X220350000Y-98475000D03*
X223350000Y-98475000D03*
X224850000Y-98475000D03*
%TD*%
D26*
%TO.C,B1*%
X251800000Y-135550000D03*
X249050000Y-135550000D03*
D27*
X251275000Y-132925000D03*
X251275000Y-138175000D03*
X249575000Y-132925000D03*
X249575000Y-138175000D03*
%TD*%
D28*
%TO.C,D39*%
X179500000Y-121350000D03*
X179500000Y-124650000D03*
%TD*%
%TO.C,D40*%
X123250000Y-155600000D03*
X123250000Y-158900000D03*
%TD*%
%TO.C,D38*%
X160750000Y-129850000D03*
X160750000Y-133150000D03*
%TD*%
%TO.C,D28*%
X123250000Y-120100000D03*
X123250000Y-123400000D03*
%TD*%
%TO.C,D34*%
X123250000Y-137850000D03*
X123250000Y-141150000D03*
%TD*%
%TO.C,D30*%
X217000000Y-117350000D03*
X217000000Y-120650000D03*
%TD*%
%TO.C,D35*%
X142000000Y-137850000D03*
X142000000Y-141150000D03*
%TD*%
%TO.C,D32*%
X160750000Y-112100000D03*
X160750000Y-115400000D03*
%TD*%
%TO.C,D44*%
X160750000Y-147600000D03*
X160750000Y-150900000D03*
%TD*%
%TO.C,D42*%
X217000000Y-170600000D03*
X217000000Y-173900000D03*
%TD*%
%TO.C,D33*%
X179500000Y-103600000D03*
X179500000Y-106900000D03*
%TD*%
%TO.C,D43*%
X198250000Y-165600000D03*
X198250000Y-168900000D03*
%TD*%
%TO.C,D27*%
X198250000Y-94600000D03*
X198250000Y-97900000D03*
%TD*%
%TO.C,D31*%
X198250000Y-112350000D03*
X198250000Y-115650000D03*
%TD*%
%TO.C,D27*%
X179500000Y-85850000D03*
X179500000Y-89150000D03*
%TD*%
%TO.C,D29*%
X142000000Y-120100000D03*
X142000000Y-123400000D03*
%TD*%
%TO.C,D42*%
X235750000Y-178850000D03*
X235750000Y-182150000D03*
%TD*%
%TO.C,D27*%
X160750000Y-94350000D03*
X160750000Y-97650000D03*
%TD*%
%TO.C,D43*%
X198250000Y-147850000D03*
X198250000Y-151150000D03*
%TD*%
%TO.C,D37*%
X198250000Y-130100000D03*
X198250000Y-133400000D03*
%TD*%
%TO.C,D27*%
X123250000Y-102350000D03*
X123250000Y-105650000D03*
%TD*%
%TO.C,D27*%
X217000000Y-99600000D03*
X217000000Y-102900000D03*
%TD*%
%TO.C,D36*%
X217000000Y-135100000D03*
X217000000Y-138400000D03*
%TD*%
%TO.C,D42*%
X217000000Y-152850000D03*
X217000000Y-156150000D03*
%TD*%
%TO.C,D45*%
X179500000Y-139100000D03*
X179500000Y-142400000D03*
%TD*%
%TO.C,D27*%
X142000000Y-102350000D03*
X142000000Y-105650000D03*
%TD*%
%TO.C,D41*%
X142000000Y-155600000D03*
X142000000Y-158900000D03*
%TD*%
D29*
%TO.C,*%
X175900000Y-118400000D03*
%TD*%
%TO.C,*%
X213900000Y-185000000D03*
%TD*%
%TO.C,*%
X231000000Y-96800000D03*
%TD*%
D30*
%TO.C,MCU1*%
X234500000Y-99040000D03*
X234500000Y-101580000D03*
X234500000Y-104120000D03*
X234500000Y-106660000D03*
X234500000Y-109200000D03*
X234500000Y-111740000D03*
X234500000Y-114280000D03*
X234500000Y-116820000D03*
X234500000Y-119360000D03*
X234500000Y-121900000D03*
X234500000Y-124440000D03*
X234500000Y-126980000D03*
X249740000Y-126980000D03*
X249740000Y-124440000D03*
X249740000Y-121900000D03*
X249740000Y-119360000D03*
X249740000Y-116820000D03*
X249740000Y-114280000D03*
X249740000Y-111740000D03*
X249740000Y-109200000D03*
X249740000Y-106660000D03*
X249740000Y-104120000D03*
X249740000Y-101580000D03*
X249740000Y-99040000D03*
%TD*%
D29*
%TO.C,*%
X138400000Y-117300000D03*
%TD*%
D31*
%TO.C,JST1*%
X226500000Y-118000000D03*
D32*
X226500000Y-116000000D03*
%TD*%
D29*
%TO.C,*%
X138400000Y-152800000D03*
%TD*%
M02*
