%TF.GenerationSoftware,KiCad,Pcbnew,8.0.5*%
%TF.CreationDate,2024-10-08T15:48:39-07:00*%
%TF.ProjectId,qimera_pcb,71696d65-7261-45f7-9063-622e6b696361,v1.0.0*%
%TF.SameCoordinates,Original*%
%TF.FileFunction,Profile,NP*%
%FSLAX46Y46*%
G04 Gerber Fmt 4.6, Leading zero omitted, Abs format (unit mm)*
G04 Created by KiCad (PCBNEW 8.0.5) date 2024-10-08 15:48:39*
%MOMM*%
%LPD*%
G01*
G04 APERTURE LIST*
%TA.AperFunction,Profile*%
%ADD10C,0.100000*%
%TD*%
G04 APERTURE END LIST*
D10*
X177944489Y-157942880D02*
G75*
G02*
X179943673Y-155999973I1999211J-57120D01*
G01*
X119500000Y-97132250D02*
X153000000Y-97132250D01*
X159250000Y-166750000D02*
G75*
G02*
X161250000Y-164750000I2000000J0D01*
G01*
X159250000Y-170632250D02*
G75*
G02*
X157250000Y-172632300I-2000000J-50D01*
G01*
X117500000Y-170632250D02*
X117500000Y-99132250D01*
X217500000Y-94500000D02*
X232250000Y-94500000D01*
X250500000Y-94500000D02*
G75*
G02*
X252500000Y-96500000I0J-2000000D01*
G01*
X209250000Y-182500000D02*
X194500000Y-182500000D01*
X198750000Y-89500000D02*
X213500000Y-89500000D01*
X119500000Y-172632250D02*
G75*
G02*
X117500050Y-170632250I0J1999950D01*
G01*
X228000000Y-187500000D02*
G75*
G02*
X230000000Y-189500000I0J-2000000D01*
G01*
X252500000Y-96500000D02*
X252500000Y-193750000D01*
X174000000Y-87514500D02*
X174000000Y-82882250D01*
X213250000Y-187500000D02*
G75*
G02*
X211250000Y-185500000I0J2000000D01*
G01*
X232000000Y-195750000D02*
G75*
G02*
X230000000Y-193750000I0J2000000D01*
G01*
X230000000Y-193750000D02*
X230000000Y-189500000D01*
X174000000Y-87514500D02*
G75*
G02*
X172000000Y-89514500I-2000000J0D01*
G01*
X194500000Y-182500000D02*
G75*
G02*
X192500000Y-180500000I0J2000000D01*
G01*
X211250000Y-185500000D02*
X211250000Y-184500000D01*
X209250000Y-182500000D02*
G75*
G02*
X211250000Y-184500000I0J-2000000D01*
G01*
X117500000Y-99132250D02*
G75*
G02*
X119500000Y-97132300I1999900J50D01*
G01*
X177805511Y-162807119D02*
G75*
G02*
X175806327Y-164750027I-1999211J57119D01*
G01*
X190500000Y-156000000D02*
X179943673Y-156000000D01*
X190500000Y-156000000D02*
G75*
G02*
X192500000Y-158000000I0J-2000000D01*
G01*
X155000000Y-91514500D02*
G75*
G02*
X157000000Y-89514500I2000000J0D01*
G01*
X176000000Y-80882250D02*
X194750000Y-80882250D01*
X159250000Y-166750000D02*
X159250000Y-170632250D01*
X155000000Y-95132250D02*
X155000000Y-91514500D01*
X175806327Y-164750000D02*
X161250000Y-164750000D01*
X194750000Y-80882250D02*
G75*
G02*
X196749950Y-82882250I0J-1999950D01*
G01*
X198750000Y-89500000D02*
G75*
G02*
X196750000Y-87500000I0J2000000D01*
G01*
X252500000Y-193750000D02*
G75*
G02*
X250500000Y-195750000I-2000000J0D01*
G01*
X213500000Y-89500000D02*
G75*
G02*
X215500000Y-91500000I0J-2000000D01*
G01*
X174000000Y-82882250D02*
G75*
G02*
X176000000Y-80882200I2000000J50D01*
G01*
X217500000Y-94500000D02*
G75*
G02*
X215500000Y-92500000I0J2000000D01*
G01*
X250500000Y-195750000D02*
X232000000Y-195750000D01*
X177944489Y-157942880D02*
X177805511Y-162807119D01*
X157250000Y-172632250D02*
X119500000Y-172632250D01*
X196750000Y-82882250D02*
X196750000Y-87500000D01*
X232250000Y-94500000D02*
X250500000Y-94500000D01*
X228000000Y-187500000D02*
X213250000Y-187500000D01*
X215500000Y-91500000D02*
X215500000Y-92500000D01*
X155000000Y-95132250D02*
G75*
G02*
X153000000Y-97132200I-1999900J-50D01*
G01*
X192500000Y-180500000D02*
X192500000Y-158000000D01*
X157000000Y-89514500D02*
X172000000Y-89514500D01*
M02*
