M48
; DRILL file {KiCad 8.0.5} date 2024-10-08T15:48:33-0700
; FORMAT={-:-/ absolute / metric / decimal}
; #@! TF.CreationDate,2024-10-08T15:48:33-07:00
; #@! TF.GenerationSoftware,Kicad,Pcbnew,8.0.5
; #@! TF.FileFunction,MixedPlating,1,2
FMAT,2
METRIC
; #@! TA.AperFunction,Plated,PTH,ViaDrill
T1C0.400
; #@! TA.AperFunction,Plated,PTH,ComponentDrill
T2C0.400
; #@! TA.AperFunction,Plated,PTH,ComponentDrill
T3C0.500
; #@! TA.AperFunction,Plated,PTH,ComponentDrill
T4C0.750
; #@! TA.AperFunction,Plated,PTH,ComponentDrill
T5C1.092
; #@! TA.AperFunction,NonPlated,NPTH,ComponentDrill
T6C0.750
; #@! TA.AperFunction,NonPlated,NPTH,ComponentDrill
T7C0.900
; #@! TA.AperFunction,NonPlated,NPTH,ComponentDrill
T8C1.702
; #@! TA.AperFunction,NonPlated,NPTH,ComponentDrill
T9C3.000
; #@! TA.AperFunction,NonPlated,NPTH,ComponentDrill
T10C3.429
; #@! TA.AperFunction,NonPlated,NPTH,ComponentDrill
T11C3.500
%
G90
G05
T1
X211.0Y-97.7
X218.0Y-151.31
X218.2Y-154.5
X218.6Y-139.7
X218.75Y-116.0
X220.75Y-120.0
X221.2Y-138.7
X221.9Y-151.91
X222.825Y-153.375
X224.37Y-103.0
X224.6Y-101.2
X229.75Y-114.75
T2
X123.25Y-101.5
X123.25Y-106.5
X123.25Y-119.25
X123.25Y-124.25
X123.25Y-137.0
X123.25Y-142.0
X123.25Y-154.75
X123.25Y-159.75
X129.0Y-111.782
X129.0Y-129.532
X129.0Y-147.282
X129.0Y-165.032
X137.25Y-114.382
X137.25Y-132.132
X137.25Y-149.882
X137.25Y-167.632
X142.0Y-101.5
X142.0Y-106.5
X142.0Y-119.25
X142.0Y-124.25
X142.0Y-137.0
X142.0Y-142.0
X142.0Y-154.75
X142.0Y-159.75
X147.75Y-111.782
X147.75Y-129.532
X147.75Y-147.282
X147.75Y-165.032
X156.0Y-114.382
X156.0Y-132.132
X156.0Y-149.882
X156.0Y-167.632
X160.75Y-93.5
X160.75Y-98.5
X160.75Y-111.25
X160.75Y-116.25
X160.75Y-129.0
X160.75Y-134.0
X160.75Y-146.75
X160.75Y-151.75
X166.5Y-103.914
X166.5Y-121.664
X166.5Y-139.415
X166.5Y-157.165
X174.75Y-106.514
X174.75Y-124.264
X174.75Y-142.014
X174.75Y-159.764
X179.5Y-85.0
X179.5Y-90.0
X179.5Y-102.75
X179.5Y-107.75
X179.5Y-120.5
X179.5Y-125.5
X179.5Y-138.25
X179.5Y-143.25
X185.25Y-95.282
X185.25Y-113.032
X185.25Y-130.782
X185.25Y-148.532
X193.5Y-97.882
X193.5Y-115.632
X193.5Y-133.382
X193.5Y-151.132
X198.25Y-93.75
X198.25Y-98.75
X198.25Y-111.5
X198.25Y-116.5
X198.25Y-129.25
X198.25Y-134.25
X198.25Y-147.0
X198.25Y-152.0
X198.25Y-164.75
X198.25Y-169.75
X204.0Y-103.914
X204.0Y-121.664
X204.0Y-139.415
X204.0Y-157.165
X204.0Y-174.915
X212.25Y-106.514
X212.25Y-124.264
X212.25Y-142.014
X212.25Y-159.764
X212.25Y-177.514
X217.0Y-98.75
X217.0Y-103.75
X217.0Y-116.5
X217.0Y-121.5
X217.0Y-134.25
X217.0Y-139.25
X217.0Y-152.0
X217.0Y-157.0
X217.0Y-169.75
X217.0Y-174.75
X222.6Y-96.6
X222.6Y-98.5
X222.672Y-118.0
X222.75Y-108.914
X222.75Y-116.0
X222.75Y-126.664
X222.75Y-144.415
X222.75Y-162.165
X222.75Y-179.915
X231.0Y-111.514
X231.0Y-129.264
X231.0Y-147.014
X231.0Y-164.764
X231.0Y-182.514
X235.75Y-178.0
X235.75Y-183.0
X241.5Y-188.165
X249.525Y-131.85
X249.525Y-139.25
X249.75Y-190.764
X251.325Y-131.85
X251.325Y-139.25
T3
X239.87Y-99.01
X239.87Y-101.55
X239.87Y-104.09
X239.87Y-106.63
X239.87Y-109.17
X239.87Y-111.71
X239.87Y-114.25
X239.87Y-116.79
X239.87Y-119.33
X239.87Y-121.87
X239.87Y-124.41
X239.87Y-126.95
X244.37Y-99.01
X244.37Y-101.55
X244.37Y-104.09
X244.37Y-106.63
X244.37Y-109.17
X244.37Y-111.71
X244.37Y-114.25
X244.37Y-116.79
X244.37Y-119.33
X244.37Y-121.87
X244.37Y-124.41
X244.37Y-126.95
T4
X226.5Y-116.0
X226.5Y-118.0
T5
X234.5Y-99.04
X234.5Y-101.58
X234.5Y-104.12
X234.5Y-106.66
X234.5Y-109.2
X234.5Y-111.74
X234.5Y-114.28
X234.5Y-116.82
X234.5Y-119.36
X234.5Y-121.9
X234.5Y-124.44
X234.5Y-126.98
X249.74Y-99.04
X249.74Y-101.58
X249.74Y-104.12
X249.74Y-106.66
X249.74Y-109.2
X249.74Y-111.74
X249.74Y-114.28
X249.74Y-116.82
X249.74Y-119.36
X249.74Y-121.9
X249.74Y-124.44
X249.74Y-126.98
T6
X249.05Y-135.55
X251.8Y-135.55
T7
X221.1Y-96.4
X224.1Y-96.4
T8
X123.5Y-108.382
X123.5Y-126.132
X123.5Y-143.882
X123.5Y-161.632
X134.5Y-108.382
X134.5Y-126.132
X134.5Y-143.882
X134.5Y-161.632
X142.25Y-108.382
X142.25Y-126.132
X142.25Y-143.882
X142.25Y-161.632
X153.25Y-108.382
X153.25Y-126.132
X153.25Y-143.882
X153.25Y-161.632
X161.0Y-100.514
X161.0Y-118.264
X161.0Y-136.014
X161.0Y-153.764
X172.0Y-100.514
X172.0Y-118.264
X172.0Y-136.014
X172.0Y-153.764
X179.75Y-91.882
X179.75Y-109.632
X179.75Y-127.382
X179.75Y-145.132
X190.75Y-91.882
X190.75Y-109.632
X190.75Y-127.382
X190.75Y-145.132
X198.5Y-100.514
X198.5Y-118.264
X198.5Y-136.014
X198.5Y-153.764
X198.5Y-171.514
X209.5Y-100.514
X209.5Y-118.264
X209.5Y-136.014
X209.5Y-153.764
X209.5Y-171.514
X217.25Y-105.514
X217.25Y-123.264
X217.25Y-141.014
X217.25Y-158.764
X217.25Y-176.514
X228.25Y-105.514
X228.25Y-123.264
X228.25Y-141.014
X228.25Y-158.764
X228.25Y-176.514
X236.0Y-184.764
X247.0Y-184.764
T9
X124.0Y-112.132
X124.0Y-129.882
X124.0Y-147.632
X124.0Y-165.382
X129.0Y-114.332
X129.0Y-132.082
X129.0Y-149.832
X129.0Y-167.582
X134.0Y-112.132
X134.0Y-129.882
X134.0Y-147.632
X134.0Y-165.382
X142.75Y-112.132
X142.75Y-129.882
X142.75Y-147.632
X142.75Y-165.382
X147.75Y-114.332
X147.75Y-132.082
X147.75Y-149.832
X147.75Y-167.582
X152.75Y-112.132
X152.75Y-129.882
X152.75Y-147.632
X152.75Y-165.382
X161.5Y-104.264
X161.5Y-122.014
X161.5Y-139.764
X161.5Y-157.514
X166.5Y-106.465
X166.5Y-124.215
X166.5Y-141.964
X166.5Y-159.714
X171.5Y-104.264
X171.5Y-122.014
X171.5Y-139.764
X171.5Y-157.514
X180.25Y-95.632
X180.25Y-113.382
X180.25Y-131.132
X180.25Y-148.882
X185.25Y-97.832
X185.25Y-115.582
X185.25Y-133.332
X185.25Y-151.082
X190.25Y-95.632
X190.25Y-113.382
X190.25Y-131.132
X190.25Y-148.882
X199.0Y-104.264
X199.0Y-122.014
X199.0Y-139.764
X199.0Y-157.514
X199.0Y-175.264
X204.0Y-106.465
X204.0Y-124.215
X204.0Y-141.964
X204.0Y-159.714
X204.0Y-177.464
X209.0Y-104.264
X209.0Y-122.014
X209.0Y-139.764
X209.0Y-157.514
X209.0Y-175.264
X217.75Y-109.264
X217.75Y-127.014
X217.75Y-144.764
X217.75Y-162.514
X217.75Y-180.264
X222.75Y-111.465
X222.75Y-129.214
X222.75Y-146.964
X222.75Y-164.714
X222.75Y-182.464
X227.75Y-109.264
X227.75Y-127.014
X227.75Y-144.764
X227.75Y-162.514
X227.75Y-180.264
X236.5Y-188.514
X241.5Y-190.714
X246.5Y-188.514
T10
X129.0Y-108.382
X129.0Y-108.382
X129.0Y-126.132
X129.0Y-126.132
X129.0Y-143.882
X129.0Y-143.882
X129.0Y-161.632
X129.0Y-161.632
X147.75Y-108.382
X147.75Y-108.382
X147.75Y-126.132
X147.75Y-126.132
X147.75Y-143.882
X147.75Y-143.882
X147.75Y-161.632
X147.75Y-161.632
X166.5Y-100.514
X166.5Y-100.514
X166.5Y-118.264
X166.5Y-118.264
X166.5Y-136.014
X166.5Y-136.014
X166.5Y-153.764
X166.5Y-153.764
X185.25Y-91.882
X185.25Y-91.882
X185.25Y-109.632
X185.25Y-109.632
X185.25Y-127.382
X185.25Y-127.382
X185.25Y-145.132
X185.25Y-145.132
X204.0Y-100.514
X204.0Y-100.514
X204.0Y-118.264
X204.0Y-118.264
X204.0Y-136.014
X204.0Y-136.014
X204.0Y-153.764
X204.0Y-153.764
X204.0Y-171.514
X204.0Y-171.514
X222.75Y-105.514
X222.75Y-105.514
X222.75Y-123.264
X222.75Y-123.264
X222.75Y-141.014
X222.75Y-141.014
X222.75Y-158.764
X222.75Y-158.764
X222.75Y-176.514
X222.75Y-176.514
X241.5Y-184.764
X241.5Y-184.764
T11
X138.4Y-117.3
X138.4Y-152.8
X175.9Y-118.4
X213.9Y-185.0
X231.0Y-96.8
M30
